<mxfile host="app.diagrams.net" modified="2022-10-13T04:30:15.327Z" agent="5.0 (Windows NT 10.0; Win64; x64) AppleWebKit/537.36 (KHTML, like Gecko) Chrome/105.0.0.0 Safari/537.36" etag="-8wptGIdN_OlwaqsxKyu" version="20.3.0" type="github">
  <diagram id="xCQYUhQY-9CgGbMPQbed" name="Page-1">
    <mxGraphModel dx="782" dy="428" grid="1" gridSize="10" guides="1" tooltips="1" connect="1" arrows="1" fold="1" page="1" pageScale="1" pageWidth="850" pageHeight="1100" math="0" shadow="0">
      <root>
        <mxCell id="0" />
        <mxCell id="1" parent="0" />
        <mxCell id="VnHRzEKTD8y2LnNAsG4Z-1" value="" style="sketch=0;outlineConnect=0;fontColor=#232F3E;gradientColor=none;fillColor=#2E27AD;strokeColor=none;dashed=0;verticalLabelPosition=bottom;verticalAlign=top;align=center;html=1;fontSize=12;fontStyle=0;aspect=fixed;pointerEvents=1;shape=mxgraph.aws4.rds_mysql_instance;" vertex="1" parent="1">
          <mxGeometry x="141" y="570" width="78" height="78" as="geometry" />
        </mxCell>
        <mxCell id="VnHRzEKTD8y2LnNAsG4Z-3" value="" style="rounded=0;whiteSpace=wrap;html=1;" vertex="1" parent="1">
          <mxGeometry x="30" y="670" width="290" height="170" as="geometry" />
        </mxCell>
        <mxCell id="VnHRzEKTD8y2LnNAsG4Z-4" value="" style="shape=table;startSize=30;container=1;collapsible=0;childLayout=tableLayout;fontStyle=1;align=center;fontColor=#000000;" vertex="1" parent="1">
          <mxGeometry x="200" y="717" width="108" height="70" as="geometry" />
        </mxCell>
        <mxCell id="VnHRzEKTD8y2LnNAsG4Z-5" value="" style="shape=tableRow;horizontal=0;startSize=0;swimlaneHead=0;swimlaneBody=0;top=0;left=0;bottom=0;right=0;collapsible=0;dropTarget=0;fillColor=none;points=[[0,0.5],[1,0.5]];portConstraint=eastwest;" vertex="1" parent="VnHRzEKTD8y2LnNAsG4Z-4">
          <mxGeometry y="30" width="108" height="14" as="geometry" />
        </mxCell>
        <mxCell id="VnHRzEKTD8y2LnNAsG4Z-6" value="" style="shape=partialRectangle;html=1;whiteSpace=wrap;connectable=0;fillColor=none;top=0;left=0;bottom=0;right=0;overflow=hidden;" vertex="1" parent="VnHRzEKTD8y2LnNAsG4Z-5">
          <mxGeometry width="36" height="14" as="geometry">
            <mxRectangle width="36" height="14" as="alternateBounds" />
          </mxGeometry>
        </mxCell>
        <mxCell id="VnHRzEKTD8y2LnNAsG4Z-7" value="" style="shape=partialRectangle;html=1;whiteSpace=wrap;connectable=0;fillColor=none;top=0;left=0;bottom=0;right=0;overflow=hidden;" vertex="1" parent="VnHRzEKTD8y2LnNAsG4Z-5">
          <mxGeometry x="36" width="36" height="14" as="geometry">
            <mxRectangle width="36" height="14" as="alternateBounds" />
          </mxGeometry>
        </mxCell>
        <mxCell id="VnHRzEKTD8y2LnNAsG4Z-8" value="" style="shape=partialRectangle;html=1;whiteSpace=wrap;connectable=0;fillColor=none;top=0;left=0;bottom=0;right=0;overflow=hidden;" vertex="1" parent="VnHRzEKTD8y2LnNAsG4Z-5">
          <mxGeometry x="72" width="36" height="14" as="geometry">
            <mxRectangle width="36" height="14" as="alternateBounds" />
          </mxGeometry>
        </mxCell>
        <mxCell id="VnHRzEKTD8y2LnNAsG4Z-9" value="" style="shape=tableRow;horizontal=0;startSize=0;swimlaneHead=0;swimlaneBody=0;top=0;left=0;bottom=0;right=0;collapsible=0;dropTarget=0;fillColor=none;points=[[0,0.5],[1,0.5]];portConstraint=eastwest;" vertex="1" parent="VnHRzEKTD8y2LnNAsG4Z-4">
          <mxGeometry y="44" width="108" height="12" as="geometry" />
        </mxCell>
        <mxCell id="VnHRzEKTD8y2LnNAsG4Z-10" value="" style="shape=partialRectangle;html=1;whiteSpace=wrap;connectable=0;fillColor=none;top=0;left=0;bottom=0;right=0;overflow=hidden;" vertex="1" parent="VnHRzEKTD8y2LnNAsG4Z-9">
          <mxGeometry width="36" height="12" as="geometry">
            <mxRectangle width="36" height="12" as="alternateBounds" />
          </mxGeometry>
        </mxCell>
        <mxCell id="VnHRzEKTD8y2LnNAsG4Z-11" value="" style="shape=partialRectangle;html=1;whiteSpace=wrap;connectable=0;fillColor=none;top=0;left=0;bottom=0;right=0;overflow=hidden;" vertex="1" parent="VnHRzEKTD8y2LnNAsG4Z-9">
          <mxGeometry x="36" width="36" height="12" as="geometry">
            <mxRectangle width="36" height="12" as="alternateBounds" />
          </mxGeometry>
        </mxCell>
        <mxCell id="VnHRzEKTD8y2LnNAsG4Z-12" value="" style="shape=partialRectangle;html=1;whiteSpace=wrap;connectable=0;fillColor=none;top=0;left=0;bottom=0;right=0;overflow=hidden;" vertex="1" parent="VnHRzEKTD8y2LnNAsG4Z-9">
          <mxGeometry x="72" width="36" height="12" as="geometry">
            <mxRectangle width="36" height="12" as="alternateBounds" />
          </mxGeometry>
        </mxCell>
        <mxCell id="VnHRzEKTD8y2LnNAsG4Z-13" value="" style="shape=tableRow;horizontal=0;startSize=0;swimlaneHead=0;swimlaneBody=0;top=0;left=0;bottom=0;right=0;collapsible=0;dropTarget=0;fillColor=none;points=[[0,0.5],[1,0.5]];portConstraint=eastwest;" vertex="1" parent="VnHRzEKTD8y2LnNAsG4Z-4">
          <mxGeometry y="56" width="108" height="14" as="geometry" />
        </mxCell>
        <mxCell id="VnHRzEKTD8y2LnNAsG4Z-14" value="" style="shape=partialRectangle;html=1;whiteSpace=wrap;connectable=0;fillColor=none;top=0;left=0;bottom=0;right=0;overflow=hidden;" vertex="1" parent="VnHRzEKTD8y2LnNAsG4Z-13">
          <mxGeometry width="36" height="14" as="geometry">
            <mxRectangle width="36" height="14" as="alternateBounds" />
          </mxGeometry>
        </mxCell>
        <mxCell id="VnHRzEKTD8y2LnNAsG4Z-15" value="" style="shape=partialRectangle;html=1;whiteSpace=wrap;connectable=0;fillColor=none;top=0;left=0;bottom=0;right=0;overflow=hidden;" vertex="1" parent="VnHRzEKTD8y2LnNAsG4Z-13">
          <mxGeometry x="36" width="36" height="14" as="geometry">
            <mxRectangle width="36" height="14" as="alternateBounds" />
          </mxGeometry>
        </mxCell>
        <mxCell id="VnHRzEKTD8y2LnNAsG4Z-16" value="" style="shape=partialRectangle;html=1;whiteSpace=wrap;connectable=0;fillColor=none;top=0;left=0;bottom=0;right=0;overflow=hidden;" vertex="1" parent="VnHRzEKTD8y2LnNAsG4Z-13">
          <mxGeometry x="72" width="36" height="14" as="geometry">
            <mxRectangle width="36" height="14" as="alternateBounds" />
          </mxGeometry>
        </mxCell>
        <mxCell id="VnHRzEKTD8y2LnNAsG4Z-30" value="" style="shape=table;html=1;whiteSpace=wrap;startSize=0;container=1;collapsible=0;childLayout=tableLayout;fontColor=#000000;" vertex="1" parent="1">
          <mxGeometry x="51" y="710" width="90" height="67" as="geometry" />
        </mxCell>
        <mxCell id="VnHRzEKTD8y2LnNAsG4Z-31" value="" style="shape=tableRow;horizontal=0;startSize=0;swimlaneHead=0;swimlaneBody=0;top=0;left=0;bottom=0;right=0;collapsible=0;dropTarget=0;fillColor=none;points=[[0,0.5],[1,0.5]];portConstraint=eastwest;fontColor=#000000;" vertex="1" parent="VnHRzEKTD8y2LnNAsG4Z-30">
          <mxGeometry width="90" height="20" as="geometry" />
        </mxCell>
        <mxCell id="VnHRzEKTD8y2LnNAsG4Z-32" value="" style="shape=partialRectangle;html=1;whiteSpace=wrap;connectable=0;fillColor=none;top=0;left=0;bottom=0;right=0;overflow=hidden;fontColor=#000000;" vertex="1" parent="VnHRzEKTD8y2LnNAsG4Z-31">
          <mxGeometry width="30" height="20" as="geometry">
            <mxRectangle width="30" height="20" as="alternateBounds" />
          </mxGeometry>
        </mxCell>
        <mxCell id="VnHRzEKTD8y2LnNAsG4Z-33" value="" style="shape=partialRectangle;html=1;whiteSpace=wrap;connectable=0;fillColor=none;top=0;left=0;bottom=0;right=0;overflow=hidden;fontColor=#000000;" vertex="1" parent="VnHRzEKTD8y2LnNAsG4Z-31">
          <mxGeometry x="30" width="30" height="20" as="geometry">
            <mxRectangle width="30" height="20" as="alternateBounds" />
          </mxGeometry>
        </mxCell>
        <mxCell id="VnHRzEKTD8y2LnNAsG4Z-34" value="" style="shape=partialRectangle;html=1;whiteSpace=wrap;connectable=0;fillColor=none;top=0;left=0;bottom=0;right=0;overflow=hidden;fontColor=#000000;" vertex="1" parent="VnHRzEKTD8y2LnNAsG4Z-31">
          <mxGeometry x="60" width="30" height="20" as="geometry">
            <mxRectangle width="30" height="20" as="alternateBounds" />
          </mxGeometry>
        </mxCell>
        <mxCell id="VnHRzEKTD8y2LnNAsG4Z-35" value="" style="shape=tableRow;horizontal=0;startSize=0;swimlaneHead=0;swimlaneBody=0;top=0;left=0;bottom=0;right=0;collapsible=0;dropTarget=0;fillColor=none;points=[[0,0.5],[1,0.5]];portConstraint=eastwest;fontColor=#000000;" vertex="1" parent="VnHRzEKTD8y2LnNAsG4Z-30">
          <mxGeometry y="20" width="90" height="24" as="geometry" />
        </mxCell>
        <mxCell id="VnHRzEKTD8y2LnNAsG4Z-36" value="" style="shape=partialRectangle;html=1;whiteSpace=wrap;connectable=0;fillColor=none;top=0;left=0;bottom=0;right=0;overflow=hidden;fontColor=#000000;" vertex="1" parent="VnHRzEKTD8y2LnNAsG4Z-35">
          <mxGeometry width="30" height="24" as="geometry">
            <mxRectangle width="30" height="24" as="alternateBounds" />
          </mxGeometry>
        </mxCell>
        <mxCell id="VnHRzEKTD8y2LnNAsG4Z-37" value="" style="shape=partialRectangle;html=1;whiteSpace=wrap;connectable=0;fillColor=none;top=0;left=0;bottom=0;right=0;overflow=hidden;fontColor=#000000;" vertex="1" parent="VnHRzEKTD8y2LnNAsG4Z-35">
          <mxGeometry x="30" width="30" height="24" as="geometry">
            <mxRectangle width="30" height="24" as="alternateBounds" />
          </mxGeometry>
        </mxCell>
        <mxCell id="VnHRzEKTD8y2LnNAsG4Z-38" value="" style="shape=partialRectangle;html=1;whiteSpace=wrap;connectable=0;fillColor=none;top=0;left=0;bottom=0;right=0;overflow=hidden;fontColor=#000000;" vertex="1" parent="VnHRzEKTD8y2LnNAsG4Z-35">
          <mxGeometry x="60" width="30" height="24" as="geometry">
            <mxRectangle width="30" height="24" as="alternateBounds" />
          </mxGeometry>
        </mxCell>
        <mxCell id="VnHRzEKTD8y2LnNAsG4Z-39" value="" style="shape=tableRow;horizontal=0;startSize=0;swimlaneHead=0;swimlaneBody=0;top=0;left=0;bottom=0;right=0;collapsible=0;dropTarget=0;fillColor=none;points=[[0,0.5],[1,0.5]];portConstraint=eastwest;fontColor=#000000;" vertex="1" parent="VnHRzEKTD8y2LnNAsG4Z-30">
          <mxGeometry y="44" width="90" height="23" as="geometry" />
        </mxCell>
        <mxCell id="VnHRzEKTD8y2LnNAsG4Z-40" value="" style="shape=partialRectangle;html=1;whiteSpace=wrap;connectable=0;fillColor=none;top=0;left=0;bottom=0;right=0;overflow=hidden;fontColor=#000000;" vertex="1" parent="VnHRzEKTD8y2LnNAsG4Z-39">
          <mxGeometry width="30" height="23" as="geometry">
            <mxRectangle width="30" height="23" as="alternateBounds" />
          </mxGeometry>
        </mxCell>
        <mxCell id="VnHRzEKTD8y2LnNAsG4Z-41" value="" style="shape=partialRectangle;html=1;whiteSpace=wrap;connectable=0;fillColor=none;top=0;left=0;bottom=0;right=0;overflow=hidden;fontColor=#000000;" vertex="1" parent="VnHRzEKTD8y2LnNAsG4Z-39">
          <mxGeometry x="30" width="30" height="23" as="geometry">
            <mxRectangle width="30" height="23" as="alternateBounds" />
          </mxGeometry>
        </mxCell>
        <mxCell id="VnHRzEKTD8y2LnNAsG4Z-42" value="" style="shape=partialRectangle;html=1;whiteSpace=wrap;connectable=0;fillColor=none;top=0;left=0;bottom=0;right=0;overflow=hidden;pointerEvents=1;fontColor=#000000;" vertex="1" parent="VnHRzEKTD8y2LnNAsG4Z-39">
          <mxGeometry x="60" width="30" height="23" as="geometry">
            <mxRectangle width="30" height="23" as="alternateBounds" />
          </mxGeometry>
        </mxCell>
        <mxCell id="VnHRzEKTD8y2LnNAsG4Z-56" style="edgeStyle=orthogonalEdgeStyle;rounded=0;orthogonalLoop=1;jettySize=auto;html=1;entryX=0;entryY=0.5;entryDx=0;entryDy=0;fontColor=#000000;" edge="1" parent="1" source="VnHRzEKTD8y2LnNAsG4Z-43" target="VnHRzEKTD8y2LnNAsG4Z-5">
          <mxGeometry relative="1" as="geometry" />
        </mxCell>
        <mxCell id="VnHRzEKTD8y2LnNAsG4Z-43" value="" style="shape=table;html=1;whiteSpace=wrap;startSize=0;container=1;collapsible=0;childLayout=tableLayout;fontColor=#000000;" vertex="1" parent="1">
          <mxGeometry x="61" y="720" width="89" height="67" as="geometry" />
        </mxCell>
        <mxCell id="VnHRzEKTD8y2LnNAsG4Z-44" value="" style="shape=tableRow;horizontal=0;startSize=0;swimlaneHead=0;swimlaneBody=0;top=0;left=0;bottom=0;right=0;collapsible=0;dropTarget=0;fillColor=none;points=[[0,0.5],[1,0.5]];portConstraint=eastwest;fontColor=#000000;" vertex="1" parent="VnHRzEKTD8y2LnNAsG4Z-43">
          <mxGeometry width="89" height="20" as="geometry" />
        </mxCell>
        <mxCell id="VnHRzEKTD8y2LnNAsG4Z-45" value="" style="shape=partialRectangle;html=1;whiteSpace=wrap;connectable=0;fillColor=none;top=0;left=0;bottom=0;right=0;overflow=hidden;fontColor=#000000;" vertex="1" parent="VnHRzEKTD8y2LnNAsG4Z-44">
          <mxGeometry width="30" height="20" as="geometry">
            <mxRectangle width="30" height="20" as="alternateBounds" />
          </mxGeometry>
        </mxCell>
        <mxCell id="VnHRzEKTD8y2LnNAsG4Z-46" value="" style="shape=partialRectangle;html=1;whiteSpace=wrap;connectable=0;fillColor=none;top=0;left=0;bottom=0;right=0;overflow=hidden;fontColor=#000000;" vertex="1" parent="VnHRzEKTD8y2LnNAsG4Z-44">
          <mxGeometry x="30" width="29" height="20" as="geometry">
            <mxRectangle width="29" height="20" as="alternateBounds" />
          </mxGeometry>
        </mxCell>
        <mxCell id="VnHRzEKTD8y2LnNAsG4Z-47" value="" style="shape=partialRectangle;html=1;whiteSpace=wrap;connectable=0;fillColor=none;top=0;left=0;bottom=0;right=0;overflow=hidden;fontColor=#000000;" vertex="1" parent="VnHRzEKTD8y2LnNAsG4Z-44">
          <mxGeometry x="59" width="30" height="20" as="geometry">
            <mxRectangle width="30" height="20" as="alternateBounds" />
          </mxGeometry>
        </mxCell>
        <mxCell id="VnHRzEKTD8y2LnNAsG4Z-48" value="" style="shape=tableRow;horizontal=0;startSize=0;swimlaneHead=0;swimlaneBody=0;top=0;left=0;bottom=0;right=0;collapsible=0;dropTarget=0;fillColor=none;points=[[0,0.5],[1,0.5]];portConstraint=eastwest;fontColor=#000000;" vertex="1" parent="VnHRzEKTD8y2LnNAsG4Z-43">
          <mxGeometry y="20" width="89" height="24" as="geometry" />
        </mxCell>
        <mxCell id="VnHRzEKTD8y2LnNAsG4Z-49" value="" style="shape=partialRectangle;html=1;whiteSpace=wrap;connectable=0;fillColor=none;top=0;left=0;bottom=0;right=0;overflow=hidden;fontColor=#000000;" vertex="1" parent="VnHRzEKTD8y2LnNAsG4Z-48">
          <mxGeometry width="30" height="24" as="geometry">
            <mxRectangle width="30" height="24" as="alternateBounds" />
          </mxGeometry>
        </mxCell>
        <mxCell id="VnHRzEKTD8y2LnNAsG4Z-50" value="" style="shape=partialRectangle;html=1;whiteSpace=wrap;connectable=0;fillColor=none;top=0;left=0;bottom=0;right=0;overflow=hidden;fontColor=#000000;" vertex="1" parent="VnHRzEKTD8y2LnNAsG4Z-48">
          <mxGeometry x="30" width="29" height="24" as="geometry">
            <mxRectangle width="29" height="24" as="alternateBounds" />
          </mxGeometry>
        </mxCell>
        <mxCell id="VnHRzEKTD8y2LnNAsG4Z-51" value="" style="shape=partialRectangle;html=1;whiteSpace=wrap;connectable=0;fillColor=none;top=0;left=0;bottom=0;right=0;overflow=hidden;fontColor=#000000;" vertex="1" parent="VnHRzEKTD8y2LnNAsG4Z-48">
          <mxGeometry x="59" width="30" height="24" as="geometry">
            <mxRectangle width="30" height="24" as="alternateBounds" />
          </mxGeometry>
        </mxCell>
        <mxCell id="VnHRzEKTD8y2LnNAsG4Z-52" value="" style="shape=tableRow;horizontal=0;startSize=0;swimlaneHead=0;swimlaneBody=0;top=0;left=0;bottom=0;right=0;collapsible=0;dropTarget=0;fillColor=none;points=[[0,0.5],[1,0.5]];portConstraint=eastwest;fontColor=#000000;" vertex="1" parent="VnHRzEKTD8y2LnNAsG4Z-43">
          <mxGeometry y="44" width="89" height="23" as="geometry" />
        </mxCell>
        <mxCell id="VnHRzEKTD8y2LnNAsG4Z-53" value="" style="shape=partialRectangle;html=1;whiteSpace=wrap;connectable=0;fillColor=none;top=0;left=0;bottom=0;right=0;overflow=hidden;fontColor=#000000;" vertex="1" parent="VnHRzEKTD8y2LnNAsG4Z-52">
          <mxGeometry width="30" height="23" as="geometry">
            <mxRectangle width="30" height="23" as="alternateBounds" />
          </mxGeometry>
        </mxCell>
        <mxCell id="VnHRzEKTD8y2LnNAsG4Z-54" value="" style="shape=partialRectangle;html=1;whiteSpace=wrap;connectable=0;fillColor=none;top=0;left=0;bottom=0;right=0;overflow=hidden;fontColor=#000000;" vertex="1" parent="VnHRzEKTD8y2LnNAsG4Z-52">
          <mxGeometry x="30" width="29" height="23" as="geometry">
            <mxRectangle width="29" height="23" as="alternateBounds" />
          </mxGeometry>
        </mxCell>
        <mxCell id="VnHRzEKTD8y2LnNAsG4Z-55" value="" style="shape=partialRectangle;html=1;whiteSpace=wrap;connectable=0;fillColor=none;top=0;left=0;bottom=0;right=0;overflow=hidden;pointerEvents=1;fontColor=#000000;" vertex="1" parent="VnHRzEKTD8y2LnNAsG4Z-52">
          <mxGeometry x="59" width="30" height="23" as="geometry">
            <mxRectangle width="30" height="23" as="alternateBounds" />
          </mxGeometry>
        </mxCell>
        <mxCell id="VnHRzEKTD8y2LnNAsG4Z-57" value="&lt;b&gt;CDC Event Table&lt;/b&gt;" style="text;html=1;align=center;verticalAlign=middle;resizable=0;points=[];autosize=1;strokeColor=none;fillColor=none;fontColor=#000000;" vertex="1" parent="1">
          <mxGeometry x="194" y="800" width="120" height="30" as="geometry" />
        </mxCell>
        <mxCell id="VnHRzEKTD8y2LnNAsG4Z-58" value="AWS Database Migration Service" style="sketch=0;outlineConnect=0;fontColor=#232F3E;gradientColor=none;strokeColor=#ffffff;fillColor=#232F3E;dashed=0;verticalLabelPosition=middle;verticalAlign=bottom;align=center;html=1;whiteSpace=wrap;fontSize=10;fontStyle=1;spacing=3;shape=mxgraph.aws4.productIcon;prIcon=mxgraph.aws4.database_migration_service;" vertex="1" parent="1">
          <mxGeometry x="570" y="540" width="80" height="120" as="geometry" />
        </mxCell>
        <mxCell id="VnHRzEKTD8y2LnNAsG4Z-59" value="&lt;b&gt;&lt;font style=&quot;font-size: 17px;&quot;&gt;1&lt;/font&gt;&lt;/b&gt;" style="strokeWidth=2;html=1;shape=mxgraph.flowchart.start_2;whiteSpace=wrap;fillColor=#fff2cc;strokeColor=#d6b656;" vertex="1" parent="1">
          <mxGeometry x="41" y="680" width="20" height="20" as="geometry" />
        </mxCell>
        <mxCell id="VnHRzEKTD8y2LnNAsG4Z-62" value="Database Event Generation" style="text;html=1;align=center;verticalAlign=middle;resizable=0;points=[];autosize=1;strokeColor=none;fillColor=none;fontSize=17;fontColor=#000000;" vertex="1" parent="1">
          <mxGeometry x="65" y="675" width="230" height="30" as="geometry" />
        </mxCell>
        <mxCell id="VnHRzEKTD8y2LnNAsG4Z-63" value="" style="rounded=0;whiteSpace=wrap;html=1;fontSize=17;fontColor=#000000;" vertex="1" parent="1">
          <mxGeometry x="400" y="670" width="400" height="170" as="geometry" />
        </mxCell>
        <mxCell id="VnHRzEKTD8y2LnNAsG4Z-70" value="" style="edgeStyle=orthogonalEdgeStyle;rounded=0;orthogonalLoop=1;jettySize=auto;html=1;fontSize=17;fontColor=#000000;" edge="1" parent="1" source="VnHRzEKTD8y2LnNAsG4Z-65" target="VnHRzEKTD8y2LnNAsG4Z-67">
          <mxGeometry relative="1" as="geometry" />
        </mxCell>
        <mxCell id="VnHRzEKTD8y2LnNAsG4Z-65" value="Replication&lt;br&gt;Task" style="ellipse;whiteSpace=wrap;html=1;fontSize=17;fontColor=#ffffff;fillColor=#008a00;strokeColor=#005700;" vertex="1" parent="1">
          <mxGeometry x="540" y="722.75" width="120" height="58.5" as="geometry" />
        </mxCell>
        <mxCell id="VnHRzEKTD8y2LnNAsG4Z-69" style="edgeStyle=orthogonalEdgeStyle;rounded=0;orthogonalLoop=1;jettySize=auto;html=1;fontSize=17;fontColor=#000000;" edge="1" parent="1" source="VnHRzEKTD8y2LnNAsG4Z-66" target="VnHRzEKTD8y2LnNAsG4Z-65">
          <mxGeometry relative="1" as="geometry" />
        </mxCell>
        <mxCell id="VnHRzEKTD8y2LnNAsG4Z-66" value="Source&lt;br&gt;Endpoint" style="whiteSpace=wrap;html=1;aspect=fixed;fontSize=17;fillColor=#eeeeee;strokeColor=#36393d;" vertex="1" parent="1">
          <mxGeometry x="425" y="712" width="80" height="80" as="geometry" />
        </mxCell>
        <mxCell id="VnHRzEKTD8y2LnNAsG4Z-67" value="Target&lt;br&gt;Endpoint" style="whiteSpace=wrap;html=1;aspect=fixed;fontSize=17;fillColor=#eeeeee;strokeColor=#36393d;" vertex="1" parent="1">
          <mxGeometry x="700" y="712" width="80" height="80" as="geometry" />
        </mxCell>
        <mxCell id="VnHRzEKTD8y2LnNAsG4Z-68" style="edgeStyle=orthogonalEdgeStyle;rounded=0;orthogonalLoop=1;jettySize=auto;html=1;entryX=0;entryY=0.5;entryDx=0;entryDy=0;fontSize=17;fontColor=#000000;" edge="1" parent="1" source="VnHRzEKTD8y2LnNAsG4Z-4" target="VnHRzEKTD8y2LnNAsG4Z-66">
          <mxGeometry relative="1" as="geometry" />
        </mxCell>
        <mxCell id="VnHRzEKTD8y2LnNAsG4Z-71" value="" style="rounded=0;whiteSpace=wrap;html=1;fontSize=17;fontColor=#000000;" vertex="1" parent="1">
          <mxGeometry x="850" y="590" width="470" height="320" as="geometry" />
        </mxCell>
        <mxCell id="VnHRzEKTD8y2LnNAsG4Z-84" style="edgeStyle=orthogonalEdgeStyle;rounded=0;orthogonalLoop=1;jettySize=auto;html=1;fontSize=15;fontColor=#FF8000;" edge="1" parent="1" source="VnHRzEKTD8y2LnNAsG4Z-73" target="VnHRzEKTD8y2LnNAsG4Z-74">
          <mxGeometry relative="1" as="geometry" />
        </mxCell>
        <mxCell id="VnHRzEKTD8y2LnNAsG4Z-73" value="&lt;font style=&quot;font-size: 15px;&quot;&gt;Landing&lt;br&gt;Zone&lt;/font&gt;" style="shape=hexagon;perimeter=hexagonPerimeter2;whiteSpace=wrap;html=1;fixedSize=1;fontSize=17;fontColor=#000000;" vertex="1" parent="1">
          <mxGeometry x="870" y="730" width="90" height="50" as="geometry" />
        </mxCell>
        <mxCell id="VnHRzEKTD8y2LnNAsG4Z-74" value="" style="shape=image;verticalLabelPosition=bottom;labelBackgroundColor=default;verticalAlign=top;aspect=fixed;imageAspect=0;image=https://styles.redditmedia.com/t5_316clq/styles/communityIcon_2d7wrh1uh1j51.jpg;" vertex="1" parent="1">
          <mxGeometry x="1010" y="725.5" width="59" height="59" as="geometry" />
        </mxCell>
        <mxCell id="VnHRzEKTD8y2LnNAsG4Z-75" value="" style="shape=image;verticalLabelPosition=bottom;labelBackgroundColor=default;verticalAlign=top;aspect=fixed;imageAspect=0;image=https://styles.redditmedia.com/t5_316clq/styles/communityIcon_2d7wrh1uh1j51.jpg;" vertex="1" parent="1">
          <mxGeometry x="1206" y="725.5" width="59" height="59" as="geometry" />
        </mxCell>
        <mxCell id="VnHRzEKTD8y2LnNAsG4Z-77" value="" style="shape=image;verticalLabelPosition=bottom;labelBackgroundColor=default;verticalAlign=top;aspect=fixed;imageAspect=0;image=data:image/png,iVBORw0KGgoAAAANSUhEUgAAAa4AAAGQCAYAAAD2hYRHAAAAAXNSR0IArs4c6QAAAARnQU1BAACxjwv8YQUAAAAJcEhZcwAAFiUAABYlAUlSJPAAAITTSURBVHhe7b1nkFxZlt938pnMgvfee1cwBe+9d+1nZmd3diiSsWSQnySRUoREKVYfGAoyFPqgFRlaicvdmd2Z3p723fDeAwWg4H3BFwre28rnUud/XtZMT1cbmKpbma/OLwLR3UjsDurme/d/zr3n/E8qx5CiKIqiFAlW/p+KoiiKUhSocCmKoihFhQqXoiiKUlSocCmKoihFhQqXoiiKUlSocCmKoihFhQqXoiiKUlSocCmKoihFhQqXoiiKUlSocCmKoihFhQqXoiiKUlSocCmKoihFhQqXoiiKUlSocCmKoihFhQqXoiiKUlSocCmKoihFhQqXoiiKUlSocCmKoihFhQqXoiiKUlSocCmKoihFhQqXoiiKUlSocCmKoihFhQqXoiiKUlSocCmKoihFhQqXoiiKUlSocCmKoihFhQqXoiiKUlSocCmKoihFhQqXoiiKUlSocCmKoihFRSrH5P9dUZSGhF+16M4tCk4eo/DCOUq5LjljJ5I9aCilSprl/5CiKD+GCpeiGCD34D4Fl85TcOQg+Qf3Ulh5hlIOC9fEqeSOnUTO8JFk9ehFqeYt8v8XiqJ8HypcitJQ8KuVe/GcouoqzrKOkr9rGwWnjlH05HH+D8RYHTqRO2UGuZNnkIPsq0NHSmVK8p8qivJtVLgUpb7BK+V7FHGWFZ4/Q9nPPiKfhSv37Gn+D3w3ds8+5E6bRekZc8nuN4BSLVuxqtn5TxVFqUWFS1HqE2RZNS8ouniOXvzjr8jbuZUoDPMfvhxW955UsvQdyix7m1Lt2rOiQbxS8YeKoqhwKUp9kWOBCs6cIG/tl+Tv2U65x48ol83mP30FWKhw12V36Ubp5e+SO3shWe07UCql4qUoQIVLUeoBHAl62zaRX1FO4bUrlHv0MD4yfF1YpFKOQ6kOncju05/Ss+eTO3EaWZ275v+AojRdVLgU5XXhDCu6cY38fbvIP3yAgnOnKbp7hyjw83+gfkhlMmT17COVhxAvd8w4SrVtn/9UUZoeKlyK8qr4vvRj+UcrKDh2iILjh1nArlPOe41jwVcg1ao1Of0HkVM2npzR48gtHUOE6kM9QlSaGCpcivKS5KKIont3KDp/jsXqEHm7t1F46cKbHQm+BqnWbVi0RpM7bTbZQ4aT1asvWc2aq4ApTQYVLkV5CXJPHlHAWVVQUU7+9k0Unj1JuSDIf9oI4A4skyF3+lxyZs0nd+Bgsjp0plQzdeBQko8Kl6J8H/xq5Hxf+q/8A3vIW/UpBSePN/iR4KuSatuO0jPnUXruYrIHDyOrOWdftpP/VFGShwqXonwPEChYNGV/+7fknz0VNxAX6utiWeLAkebsK/PWB2T3HZD/QFGShwqXonwLCFR45gRl168mv2KflLZLllXor0pt/1ePXuROmi4CBjGDqClKklDhUpRaamooqDxNHjwFD+6l6NYNitCPVWy4LlntO3LW1T/2P5wxj+xOnSil9lFKQlDhUpo8cLwIz5+l4FA5BUcPsXidoej2zfynxQsamK1efcgeNpLcsRPJGTWWrC7dWMA0A1OKGxUupekSBBReryL/+BEK8z1ZyLIatVqwAUil02QPGCKzv9wx48kePFQyMkUpVlS4lKaHB+f2exRevkD+gb3kbd9E0d3bImRGQL9Vbc9VFMX/NADc5p0hI8idOpOc0tFk9+lHqeYt//B3UZQiQYVLaTqEIeWePaGw6ooIlr95HQUsXiZJpTNSvm61a8dCGVLIgpl78oQF7NUc5N8EFHA4w0op89b75AwaTqmOneL5XypgSpGgwqUkHzzinE0hq/L37qDs+q8pOHU8/6EhLEtG9dv9B1Fm0XJKz1lE0ePHlP3yI874NlP08H6c8Zl8HfnvlJ42i0re/1OyMcAS2ZeMUFGUwkaFS0k8Yc0LCrZvIm/151I1mHtRw79p9h7L7t2PMktWkjtzHlldunPm5YpIYexJeOYkZdd8Qf7+PRTdv5v/vzAEKhBbtCR36ixKL3uHnBGjKaXipRQ4KlxKYsk9f0b+wX2U3bhaqgZzd++wULBomXrkLTueqbV4BbnjJ5Pdq68Y5ZLzx64WuZoaynHGhSzQ27ZBjjFzT5/kPzUA7KNatiKrW0/+e04SBw5nyPD8h4pSeKhwKYkDDcPB6ePk794u/wyvXeUs67m5QgjOWND4606eTu6UmeQMGExWx06c3aTzf+C7yT15TGF1Ff+dT1Cwf7eIrlGhRfl8uw5kDxwi1Yfu9Nlkd+9VR2gVpbFR4VISA8QpPH9OhjkGRw5QiPlYLAbGgO1Spy7kjBgVl54PH0VWv4HST/XS8OuIv3NYeYbCYxXkHz4oU5VzL17k/0DDg/J5DKx0+O+P3i933CSyunT9UeFVFFOocCnFj5el8OplyVRg0RQcOyzzskwimQpnVs7oseTwRm8PLSXLdfOfvgacHeK40D9yUApKcA8WXr8mx58mwfRlZI4QMDHwZWHWOzClsVHhUooWcW6/e5vCS5Xk7d5O/r6dFN02KFi4GyppRha8AUeOofSsBWQPK5Vy8/okunOT/PI9/GuXTFmWuzqDDvUQKoiWM212fFfXozdZbdvlP1UU86hwKcUHStthhHujmvxtG8hb93VcTh4a6oWCYLlpSrVpIxOJMx/8Qhp6Uy1a5v9AwxBVV5G3awv/zBsp4AxTCjhMNjCn0+QMHUHpJW+TM3EqWa3baP+X0iiocCnFBT+uYfVV8jaupuwXH5svH89nWeh7Knnnp+TOXvhqd1hvCn7+WzfI37CKaj76NUWGxQvg53c4Ayv5039KTtkE+W8VL8UkKlxK0YB7K2Qb2S3rxa5J7ntMZhw4MhtWSumFy8mZPIPsdu3jTds0nFlG/LMHt2+S/9XH5KOB+cE9c2shGacrGaY7bjJnYCulkAMl9YpiAhUupbDhxxPzsbztG+PydvRjcZaFxl2TOEOHyx0WMgyrey9KtWnb6C7rMAPOsXiFl86Tv2c7eQf2UHTjev5TM6Avze7aTRqX0VztjiwjagwxV5oUKlxKQZLj7CF68ojCIxUUoCgBVXW1/VimsB2yu3Und8YccqWqbjhZHTrK7xcSuZoXcv8VnDpG/oF9FBw/HJsGmwJtAG3bkd1vILks7M6EqWQPGa7Vh0qDocKlFBb8OEaPHojThX/sMAWHD1B4+jjlPE8+MwIacTt0ImdUmWzE7thJ0tcEe6RCRhqYkX1B7I8epODE0VjoDa1bigUd5fJ26WhpC3BHjyO7Vx9ez8JeN6X4UOFSCgYZmV91hTfcI2J7hPlYRq2P4HiBycGcOTgob586S4owiqrwAMLPawax93ZulX+ixw1ZmTHhh4BxZpqejvL5KdLfJg706Uz+DyjKm6HCpTQ+vkfR3TsUnDtF/tYNYnVkemR+qnUbsrt2jycFz5pPzrCRxX3UBQHjdfW3beI1XU/hxUqpwIQvokkw8wt3g+6EKWTxv1ut2qiFlPLGqHApjQfmY714LvczNZ9+GDcQozrOFPnqOGrWnLODuZRZskIGLSatuCD39DF5W9aRt2F1XNwC8TLV85ZHilvmLRUXethHSfalJfTKa6LCpTQKOd44g5vXyf/0t+RtXiuzqWTUiMHHEc2zyLBK/uyfkz1gEKVYwFBokDiwplEoriL+zi1U8/Wn0k5gFF5XNG3DwDe94j1y5y4iG+utKK+BCpdiFFQLhpcvko/ydt5E0Uxr3AGiRQvJrNJL3pLiCyltRwaQRNH6JhwY5J49E8/D4MAeyq7+nEIOHkxmXzIBun0HuUfEfDJn4jSZB6Yor4IKl2IMHAn65bvJ500TR1ZihGty08TI+qEjyJ0yg5xR48juEfdjSUbSlI6tfF+OZFG04cNCavd2Ck1+FynOvkpKyOreU+Z+pWfMjS2z2rbP/wFF+WFUuJSGJRdRdP8eBfv3kH/0kMzHiuByjio3U9i2CJY9dhK5o8rIGThEyt2b+h2L9Moh+z17kgKMgjl2iCLOgI1mvy1bSdWhi/J59H8NHlbvJsVK8lDhUhqGKKTc40fxUETeEDGW/vdl2aZwXLJ79mLRKpWqNnvUWB3L8R1EAWdg585Iz1xwtEIc6KN7d/KfmgGDNmEbhdlfNuaA9RtABANfRfkOVLiU+oUfJzheRFVXKJRR9BvJP3nU8D1KmlKYj9U3niWVnjqbrM5dtBH2R5BBnGdPSf9XcPwQhVcuGW1gBlbHzhJkpKfOJGsAZ8Zdusn3qSjfRIVLqTfEeujBfRnk6G1aTQFGzwdB/lMDcCYF41e7Z59485u3hGxE7sorAfPikDPlmk9/G/d/3ct7Q+YMHSHCQqpNO0ovWEruzPlk9+od938VuHOJYg4VLuXNwZ0IC5R/rIKyX30irhdGHS9wVwXXi3btKc0bXWbpW+IrqLwhvDVgeGXNx7+RI9/cM/MjVKz2HSiz7B1Kz19Kdu++4srR1O8mFRUu5U0JAworz1D2i9+Rf+gAR+e3ZTKx0eMljNfgjS29cBnZ/QeR1axZvMEpbwwyLRmhsncHeWs+j/0PDR77Sv9XOhM7cMxbLL+szt3yHypNFRUu5bWQDe3KRcqu/ZL8wyxYd26J16Dp8nY4MWTmLSK736A/+OFpRF6/8BYBA9/oZjV/1wfFhSM4dTz/oRnk3rJNO2kUT0+bzRnYEkq1aKXfdRNFhUt5JSKMzb90XkaNQLDCC+ek3N1ohtW2HTnDSsmdNJ0cVAr27C19QegPUhoQDkqk/4u/c4xO8bZupPB6lRwTmwKDO61uPcgZNJTcKTPJHjeJrAKYjaaYRYVLeTn4McE8LP/YIQoO7afw1DFxYDDreNGSnIGDZZijM3q8bF7SQKyYBeXzMEU+WkE+C1hwpEKyMWPDPTnLgsck7jFtGZ/Cz8KQ4XLHqRlY00CFS/lh0KR67w6FlWfJP3KA/P27KbpymXK8eZlCNql+A2VsPkbFY+QIyqaVRgbBTNUV6dELDu+P+79Mu6EgmBmB/i9+LkaVkd13gDQ1K8lGhUv5buBr9/QphTeuSYblbVobNxBnzY3FgGClMB+rT3+5lHcnTlXHiwICW0eKvwsUa4QsWv6ureTzsxJVX6Xo4QOzx8et25AzZjylZy8ge8gIsrt2I8J9p5JIVLiUP4YfB4gTIufg6CHy1n0lx0FGy6AdRwov7G49ZCNylr9Ldmu9xyh04MAhk6vX8jOzdztFDx7EgY5JAWvbTqyjMu/8NJ6+3LI1pXT+V+JQ4VL+CDSfwreuBv1Y5buMbjq1oF8ns3C5uLfLyHylqJCK08sX6MXf/TX5B/eatfkCuAPjwCezYBm5P/kzcrr3pJS2RyQKFS5FgMMFJg/7G76m4PgRccAweSwI4NaenjmP3Blz47sKmK2qr2DxgS0FBRxPnlB4+jhlv/iIs/YjcbuEKUS8mpPVsQs/U3PJnbtYevw0a08GKlxNHd+j4OQxym5cQ8HZkxTdqDY7HwsbTOs2ciSYRnkzNpf2HWTIo1L8YP4XKg5Rgejt2sbP2lHJ6o0BRxWZ/zVI7kjR9ydHiEpRo8LVRBE/ussXKDiwl/wjFRRUnqYcR8hwdTcCBKtlKxnk6LBgucNKyerei1JwvVASR3T/LgUXz0v/FzwsQwiYyepDDoSsrt2lbN4ZPU5mskmhj2ZgRYkKVxMjV1MjVV/BiSNSAQYLH4x050/iP9DQ8EaBCjBkVthApCdrxGipIISYKckFQgXD3vDUURmhgvlsESpVOes3BQQMR9LO+Mn8/I0lt3SMOHLokXRxocLVRJBN4/YNCjF3qaKcfP4VXr2U/9QMOBKUTQP9WBOmkjNuEmdYzfOfKk0GPIsP78fl85zxo0cwunubcp6hBmbAAZQzfGQ8fXnEKLL69BdHeg2eigMVrqQTRTLQ0b9RTcGe7eRv3yhzlsyVt6c4yk1LPxai2/SseZJp6Zj2pg22HfSA4f4LPYJ++W5+Li9SxM+q0QZmxyFnzARy0SfIGRiOD3UCc+GjwpVUIFi+H0e2OzbLuJGwukqKMYxh2XJn5fQdQJl3fyaX4ypYyneB/q/s+q/J42c1d+8OZ1/8nBrcmuDA4Y6dSJnl70ojcyqTIZ0wULiocCUUHL34nGFh3IhMsoVFk8EmYkSyVveelFn5AaUXr+SNoUXcS6NHMcp3gUDLy1Jw+SL5676SxneMUzEmXnguOdCC3yEKhjLv/5wczHTT5uWCRIUrYWD8BO4NvM1rKTh9nHIPHxq9/MYlN2YnYXKtO3MeOZ27yt2WCpbyMiDTyj24F4/M2bSWvJ1bzA4lzZ8SoIReMrBl75LVf6C2ZxQYKlwJQRwv4Cm4d4fMShK37qcGGz4ZGZk/ZQa54yfzyz6IrE5dOMvSai3lFeEtSWzHblSLByLEKzh2WEaqGIMDLdhH2X37k1M2kZypM8keMJgsx83/AaUxUeEqZviri1DefuaEWOugtD04f1aKMYxhWWRzViVl7aPGklM6muzuPdXgVKkXcs+fU1h5Wp5tVMLKKYLRDMz6Q/8XZ2A4RrR799MThEZGhatIgX0O3Nr9k0cpPHyAgiMHKTLpeAFHAgx0HFoql9kobYcjAQb9KUq9ggDt0UOxj8IxOJxewkuV0pNo6g5M7mx79pbTBFQhOkNHxKN19EShUVDhKjJwhJK7e5uCMyfJ37uTvD07KPfEYIbFkWaqVWsRKQfl7XMWkjNsJOXw+xqFKg0JBOzBPTkSz+7aStH5sxTdvG60AjGVzpANAePnHndgFr8HVqs2WsRhGBWuYiEKKff4MWdZF8nbton8nVso5JfWJDI2HVnWqLHkLlgqTcR6h6WYJhdFFD59QuG2DeRtWCXDLKMnj4l8c8NNEcC5I0ZTeuEyOXGwunSLTxvUQsoIKlyFDr4eiBZHmjWffyRmuLi0NkqKX0YWKHf8JCp5+yfkjFXHC6UwiO7cJm/jKn4vVlN46aK8K6ayr1rcCVOk/wtTmHEaoeLV8KhwFTA5fgnD+/co2LCasmu/kJdUZhsZdBbAEYgzcCiV/PTPyCkti53b3bREnIrS6KD/K1sjvYpotPe2bqDw2pX8h2ZIpdMsWG3io/MlK8mZNJ0sPTpsUFS4ChH+SsJbN8jft0tKgTGUD+7aFAT5P9DwIKNy+g+KjwRHjyOra7fYCsfSo0Gl8EDzcg4FHJcukL93B2U3rZH/NpZ9cZYl78yY8dT8X/63UkavNBwqXAVGdO8OBYcOkL9/NwXnTlFUXSUTZU0Bl3YMcXQmTiMXlYIDBpHVrgN/oBmWUvjE/V/X+d05TcHBvVKFKP1fhk4p4LbR4t/+r2QPHZH/HaUhUOEqENCbgsnDwbEK8g8f5MjxvPGBe3avvmSPKpMMC5WCVo9eOjFWKUrg0xleOEfB0YMUYN7c6RMSFDY0KlxmUOFqTHjpoxfPKbp0gcIzJ+IJsWdPim2TMeDP1rETv3DDpMHSmThVyn3FV1BRipwcv18hi5ZXvouDwkMUVV2l6NGD/Kf1jwqXGVS4GgNe8tyLFxTdvUX+hUoKNq0h/+A+ecmMncmjgbhlq7ipcswEMcK1e/QkQuGFoiSMHIsVhqd6O7fKFObo9s34CL6e3zcVLjOocJkm8Cl69kwyK3/jGvJ2bBJbG2PgEjmdlrlDEKzM+39C9oAheoelNAlQsOFX7KPsFx9TePl83P8V4P6rfrZBFS4zqHAZJqw8Q9k1n5O/fTOFd2+by7DyoM/EnTSdMsveiecOoYFYRUtpSsgIFY+8bRso++HfiXWajP2pB1S4zKDCZYJcJNWB2S8/FqPQ8EZ1fCxoeNKrO3UWOShvR+FF23Y6qkFpuvC2h3cwuHObgh2byN+ynoJL59/oncQwyvSEKdTsX/33ZHXrkf9dpSFQ4WpIgoCiOzfJ45fC37+HI7tLFD18KMeFpoC3mjNyDGXmLyF7yHBKdesZD3WEG4aiNHFgH4WJy+HlixQcOSD+n0HlmfynLweO3p3ho8idOTc24O3TT6cjNDAqXA0AXgaYf8IMNMAohjMnKLxeHdvRGALNwnb/geROniEd/agaRESodjSK8h14HgeZt2Lz6kP8zh4sp/DW9R/MwHDMbg8fGc/rGlVGzsAhZLXvyB/o0XtDo8JVz8CWSZofMWrkMAvXhXNmjwQ50rN69SZ3JL9I/EK5ZeMphQZiRVF+FGlgrq5i8eL3Fz1gJ49SdP8+v8PfcK1Bkz6mIwwbSe74KWSPHCMjTtRw2hwqXPUBzsufPBaPtOBoBXm7t1N49lTsK2gImRfUtTtZ/QaRO2GyOLejH0tRlFcnx8EmBlh6O7bE5fOXL0gLS6pde7L7D6L05GnkTpkVz+RSX0LjqHC9CXmDz+jubQpPHqPshtWNM6G1TVuyu/Ugd9YCcmfMVccLRaknIGA48sc9Ne6rMcrEnbNIvQgbGRWu1yUIJMsKOLOq+ehX5B85KL9nDPRjcaSXatueMotWUGb5O2R17qbRn6I0ABFmffFWaaW1Qb8QUOF6DSLfE19Bf9Wn5JfvpgiegiZFi7E6daE0Z1eZt39CVvee8agRzbIURWkCqHC9Aliq8NQx8jatlX4sVCHlnj2VSMwUcGp3p8yQkfn2gMGUatNOynEVRVGaCipcLwMuai+d/73PWXixkqIH982Wt8PxYvxkcidOlZ4RNDjKFGJ8fVp+qyhNl2yWcs85gOZ9AFcHTQEVrh8Aw+mkH+tIhfR2oAADoxEwMsEIeBAxnK50NNljJ5E7cgw5/QbG48EVRWnS4N4tktEtFRRVXSZq3iJug4GVW8tWiQ5oVbi+Cxjh3r0jRrioKEJPB1wvUEVoCjx4v+8VmTyDrFFlZDVvzs+i3mMpSlMmB0ee61XknznF+xMH1Id5f+IAG6YDzqCh5E6ZSc7wkWShIRpTyxMoYCpc34SXInp4X6KX4PBB8vZsp+DU8fyHZkiVNJP5WLBnSk+dRe7EaZz+t8t/qihKkwUB9cMHYk/ll+8ib+cWGc9C3zwBwilNSQm5YyeRM2ehCJndpZuIWpIETIWrFl4GRC3wKvM3rZEydxwVGsO25QjQGTCY0ujHmsJZVtfu+Q8VRWmyRKGMPopuVJN/YC9lv/gd71XV8f32D4BrBnfaLErPXSx+pVaC7r9UuPLgvPjpv/mXFJ44alawQH4KcckHf0rpOYvI4ghJURQF4pR7cJ+8HZsp+/UnYif3qqRatqaSn/05Nfvlv8j/TvGjFyaAH46I03A8IDnfy/+mAWxHHC+a/ZN/QS3/z/+XMivejy1kFEVp8oQ1NZRd9xU9/ff/E734m/+bgovn85+8GmjZkbadBKHCVQsiGxRfGEpAYctU8u7PqMX/8JeUWf6e+AqKe7sadSpK0wVB9PNnMuTyxf/+76jmH/5GzA6iR28wDilnbl8zhQqXYayuPSizaLmk7Zm3PiBn9FiyOqmztKI0dWAh5x/aTzV/85+p5sO/I3/fLgqrLsdDZxMmPG+KCpdB0DhcsuI9yrz7c0rPnEd2n/5EsGpSFKXJgmM8GBtgQnr2d39P3vqvpJo5Bys5FazvRIXLIKlWrcjq1l0KMXRsvqI0cXyPwgvnyNu2kWo++Q3/+gdpwZFjQeUHUeEyCAx5az79kLzNaymsPEM5PKAaUSlKk0IaiG/fFMeLmk9/Sy/+5j/FY1Pu3c3/CeXHUOEyDCaqvvgv/4me/6f/QxoIQ35YpfxeBUxRkk2IfqxnMnC25uN/oKf/2/9I2VWfiVm38mqocDUCECr/+GF6/lf/kZ79L/8d+ft2mi3DVxTFLByYhpxlZb/8HT39t/9KhEuOBDVgfS1UuL6B1ayZuXJ0TE9+8ZzCc6fp+f/1H+j5v/+fyd+7g3JPHuX/gKIoSQBG3dnPP6Ln//EvpVpQMizOvlS0Xh91zsgjI7oP7iV/1zbyyneJvYpJxFS3Ww9yysZTeupssoeOiPu6FEUpSnIPH8h1gL9/D4UXzrJg3aZczYv8p2Yp+dkvqfm//jf5/yp+VLi+iZelsOqKlKainwIlqdGtG/kPzSAGu/0HkTt6HDnjJ5M1aBhZrpv/VFGUQiaXiyh6+oTCCt4/Dh+Q5mHcaUkvViOiwtUEyOHBu3ReHjz/8EEKz52i6Mljc6m9ZclofgfiVTaB3BGjyOrVh1KOCpiiFCri3H7hHPknjlBwYK/sG7maGnP7xg+gwtWEyD19TMHpE+Tv2ELBmRMUXjXcxc5CBVeN9NSZ5EycRk7fAZRCD1g6k/8DiqI0NmggloGzJ46St3sbB7z7Y8EqIFS4miA5z+MIao+UrgYcUeXu3zNbwp5KyUyd9IJlMu7E7t0vnnCqNlGK0njwHhA9eiRBrb91A/kH91L04H7+w8JChasJE9a8IH/zOvLXfklB5WnKZVm8UB1kEGfgEMoseZvcWfPI6tBRHOaTOOFUUQoWVAT7HkWXzlP2689it4u7t/MfFiYqXE0ZXio8sLm7dyS6yq7/moJjh/MfGgIDJ9MZsgcMpsziFTK/K9W6Tf5DRVEaFEwhvn5N+rC8XVsp9/gx5eDajskSBYwKlxJ3wD97QuG1qxQc2k/exjUUXL7ID6+57Ateh8i47L4DKL1gKTmTZ5LVIlnjuRWlUMDIo/DKxfhIcPc2Cm/dEDf3QhesWlS4lD/gc/T14B6FLFrIwPydW/mBvi6/bwQWqVQJC1jPPmQPGkrp6bPJHVlGqQSN6FaUxgbl7P5+fr/5HQ/Pn6Ho1s2iEaxaVLiUuiAaq+bs6/gR8ivKpQ9M+r8MPtypZs3JGTpcSujdsZNEyKSAQ1GUV4e3RThc4J0Ojhwk/9ghiq5djYuyDJFKp/k9HkapTIbC69ekcvF1SZpw2X/J5P9deV0487HatJV7J1T/Wa3yFX/ZGso9N9R4iLN3frCjK5cpuneb/7df8F/LIqt167iAQ1GUHwfXAI8eivmAv30TeRtWkX9oH0W38zZNJnAcmdXnTphCmflLpKcTrhtwlH9dnNIx5E6cmv+v4kczroaABSs4e4q87RspQAPzjWrp9TDZiAgHDnf8FErPWUB234GU6tiZUnDg0DswRakDHC9yT55QVF1F4ZkT/O5ukizL2LE/gwwr1a492b36UXrGHHKnzyarQyf5u9R88ls5yXld9KhQeWnERPfsSZnBJRNNOZJDTxjxS2IEZIKt21B6/lJyFi4jp3svsnB8yBGdoigxaGuJHj0g/2gF+eu+puBQuczMMgYqhZs1J7tnH0pPm03p5e9w4Nk5/yGRt2WdCte3UOEyQRiSf+QAZT/8Ffknj4qllGkQuWWWvkXpRSvIQgOzZl6KItWCqAzOfv6hmOE2huMFjgIzC5ayYL3L2Vbf/O/+ARWuuqhwGQJRHSyk/H27yFu/ijMwFjA0MJvC4qiuOUd1PXpRevZCSs9dRFb3nvkPFaWJAcHiIDL79adSgIEG4lzWrK+g1a49pecsJJffR3vAILKat/zO0xAVrrqocBlGLn5vVFNwrIL87ZspPHXM6LFEyk1Tqn0HcgYMJnfSdLkDS7XrkP9UUZINxopEVy6St3Uj+YfK5U4rwv2zqcILtLC0bBmPLpo1j9x+A+VYMFXSLP8H6qLCVRcVrkYAxxPR/bsUnT8r0R4aGqWBOTQoYPyiWJj/NXSEVBu5ZRPi/i/1P1SSiOdReO0y+Qf28a+9Mv1BbJoMtqxY/H45I0aSO2Eq2aVjyOrTj6xMiYjZD6HCVRcVrsaEM63o3l1xk0YFE8aooORVCjhM4brkDB5O7phx5IweT/aQ4VLZpHdgShKQIBGVgiePkn/kIAUnjlB45VL+UzPAks3hzMoZPZacsokSLL5Kj6UKV11UuAoB/gqi61XkYXwKBOzCuTgaNFmKy5GfvFgcDcJ9w+7dl1KtWuc/VZQiA+8Uv0PBhUoJCIP9u8WyKWf0ncrIHD13+Ch5rxx+r8QY+xVR4aqLCleBEV6sZAHbTH45v2iYnProobyEpkg1b0Hu2ImUnreEnGGl8fwvHGcoSjEgPqJP5eTCZ7GCETY8RXFUaATcYbkupdp3lPFD6QVL5GgQVb2viwpXXVS4Cgz5OqJIJql6qz+XJmaYeUqkaPCrghMIBCzz/s/J7j9Y+kz0/kspWPjdwDuS4yzLR3n7l7+joPKMuaILUNuP1aMXZVa8T+6cRbGLzhseu6tw1UWFq1Bh8ZIKqKuXqOYff0Xerm1xua4p8LKhhL5FC0rPnEvNfvrnZPXoI3diilJo5B4/Ir9iH2XXfEHBoQONMmoENk2ZJStl4KvFGZcEevVwV6zCVRcVrkIGXw1HkdHD+xRWnqbsqs+liAMvqTFw9NGipZTsivv8vCWcgQ2ilGXl/4CimOX5r39Nz371K/n3Zr/8JaUH9iF/01opvMC7knvxQj4zBQRL3o0pM2XMUH1PJ1fhqosKV5GQe/5M3KmDU8fI37eTH2J+SU0KGAsVxMvuP1Aqo9KTppKFI8R6iCgV5WV5+ld/RU/+w3/I/1dMevgAstwwno9lcDuTYG7aLHImTiVn4FBKdejYIPfBKlx1UXf4IgGNw7jgtbp2Jwueg6hOwnHig/tmzvF5Q8Cld+72TamADG9cJ3r8kKw27SQjq48jEUX5MR7/u39H0d27+f+KyT15SlbakGAhgMP97/Q5lFnyNqVnzCVnaClZ7TtQqoE8QNFzBq9TdYf/AypcRYZMPmbxgqcZHODlWALOG+j+N3Gmj6otzvSQ/UnVI6LcbI24AaD8Fy+2otQrCJo8j6KqK/Tit7+l6PG3vD5ti+xW/Ow1JByYWW3bkT1sJLmzFlBm4QpyJ00Tn0GZutCAqHDVRYWr2MCdk9w7tZDOe3vEyD+M7EflIQbdmcjAIGAPH1Bw+oRsKPERDf8dcFSSzsjfUVHemMCXMflyRL5lPQVnTlL0kIO0b+C0yZBV0nATD6SBuC/mY02l9OKVlF6ykuxuPShlqMpWhasueseVEHL37lJ23Vfk7dlO0ZVLFMGB3qSFlOPE05cXLI0dOHB00pwFVVFeBxyD8zMcXb9G3s4t5G3bQOHVy/JR+LiGf8V9WTaLVkNlWzjdgGjBVSY9d7E8343RlK93XHVR4UoYOMITAdu4hsLbN+Lsy+BXXOvAkVn+HrlTZ8rdnB4fKi8NjgU54ELhkb9htfRjYbK30flY/Lzi+M8ZOpIy7/6M3HETKdWmXf5D86hw1UWFK2ngCK+GI9LL5/mBX0/epjUU3b+X/9AAOMZ0XPE7dEeOocw7PyWntIxDY21eVn4c2DT5u7ZSzRd5wap5EQdfhsAUYqtXXyp5/+fkTp4hGRee58YMvlS46qLClVBkquuDexRcuUjBto3k79hMkcly4fz8L6tzV/FqSy97i+wBQ2IHDkX5FqiO9Q/uJY+f1eDcaRawO3K/ZQqcDNi4x5o+l5zps8np2i0+Fkw1/mmBClddVLiSDH+1kZel3LUqCitPkbdnBwVHK4xnYFbrtnH/15jxlJ4ygwVssBRwKEruxXMKKvbJ9OHg5DEKq6uk7cIkdp9+UiHojp0UN9d37V5QxUUqXHVR4Woi4MglPHeKgmOHyT98gMKzHNU+epD/1Awo44dxr8sCZo8aqw4cTRUEVC/4eTx7kgKMGsGv82eNO8KglL12nI8zqozsHr0L0tJMhasuKlxNBHzNiCKxOUhpcfnueDbR5QtyJ2YMFiq7e09yxk+R8lxn0FA5TtQCjqYBsim4tftnTlK4f7cY4kqGZWobcpy4H2vgEHJHjCZ32myyMMKnARwv6gsVrrqocDVRcFyII5rslvUUsXhFd27FAyxNPQ64U+jeQwxJZSIs+mJwp9BA7gNK4wKDaAxNRdbv79kux9YysscUqBRs0ZLsnr05uxpL6flLJGgiu/CfNxWuuqhw/RjoJ0FTL/8zVcJRmZWg6jj+6iOOdv3tm8hb8zmFV69Q9PRx7MRhCt5QHI5+M8veIWfsRLK6dIujX83AkgGqXJ8/k8ze27SWPH7Wont38h8aAFWuaIjnLMsdPY7Si1aQM2FKQd1h/RgqXHVR4foRYGmEgXTIUGS+Dhprk7ap8iOQe/SAsuibWfWZdOobBZsI/8JI85KVH4gPXKpN2/yHSjEDt4fsp78lb+sGCm9eN5fR50E/ljtxGrlv/4TcsglkoSioiEQLqHDVRYXre5CjtEPl5PFmHpw9SbkwkuOs9MKllJ4+lyz+90TBGSWyrxxvLv7eHZTl6Ni0gKGHRux1howgd95icmbOI7uA7x6U7wENxHduk7dxtWRY4Y1qyj17Jr9vDNsmt3QMZd7+KTnDR8pEYvHSLDLRAipcdVHh+hbIsFAy7u3eFs/3uX1LjjoEjt5QieQMHk7paTPJ4UhOBsYliJzvSU8NJjCjRBn9X+GdW+YiZd5YYBWFI0NnCK+zWEiNk+MepbDJIfiBr+C+XeTv2kLB1cuUu3cnnt5tCBwzYyZWevEKckpHS6WgTC8o4lMSFa66qHDlwTIE2KgP7qPw9DEK4ff38LvLxbGxyiUvvxjuuMnkjJ8cN9YWYTT3fcj0Zc6+YGqKzNOv2M9Z6F1z91+4TOd1dgYPIwfVX5OmSSWYbEJKwYHiHsyIw/sTnDxKURWLlmnB6j+Q3AlTxKnFHjqcrLbtE/FOqnDVRd3hhZyM+q751V9LoQLMPMVq5vvAVGJUSFVdkQgTLumSkWDESNrld6X4XxbY3ODFx3RXq1v3+KgFPS7Pn8dr09DxDv7/Y5QFi6eYBt+9LaNbUo4tQYJ4ICqNDioDgyMHJDP3t64nn4MccTHn7MsIHODgGcX04fR8HOPPkbvSJAWS6g5fFxUuwHtkmM1Szd/9tQjRS4ONFUcjHGHieC3ibASFG4j+knK0hdENMvl48HCyu3SNL7dzvCnxz26q/0uapyFeHFBIFgzvOnjKNWshdxmKYfj7h+NFeP4sBeW7KLv6c/J2bZVAjvzYtb3B4ffM6txF/DDTcxdSZvFb5IwZR1brNnidExE8IniTu3Y0aJ86FgfIr4mONUkivAQBv4hP/+LnHN1fzP/mqyMjECZPp/SMeXHU165DfCGcIDBqAnd/GDPhHz7Ign2PN7EfyE4bABzTYo3dGbPJ6tmH172tsdlITRp+T9CPlbt7R+5As2s+lyNk/J4x+HvGcTHuQNP8rmWWvBUXSsEINylgnZ8/iw2HK8qlyAVON7h/fl30jiuJ1JNw1WK1a0/paXMovfwdsvsPjsWriC+Hv4vcYxwRHaTsFx+Tf/q4ROAU4njIzOOUsh3evLryGr9H7vwlZCNI4CwsaetcMAQBRZxho8LWW/0Z+ds2Gr3DwrEfjqqtDp3JnTCZMj/5hUwBT9T3ja04DDg4fMpB4X7KfvwbCirP/PC1xUuiwpVE6lm45GzdcciGF9q02VTy0z+XasTkvWRxcynK51/87u8punwxbtY2Ba8n7rpgGYXxKelZ82P7KKXeQWFAdu2XYhUmJs0GndtBqmUrDgZnUWblB2QPGR7fcSYtGHz6mIITRyn71SdS5FJrfCDv2huiwpVE6lu4auGsINWypYhWevYCysxdRFbXHgVp5Pna8NqJ/9yd2xQc2EOYARZWno7to0wh/nPtxcLHnTFXGk6RjSlvDgoDvNWfx8bM6MdCa4jJ+VjNmslcLHfWAunHEgOApPX2cUaFOyzYr/kH9spd1u9bcOoJFa4k0lDCVQtnYOKM3m8Ab6rTyZk4lawevRLlwIHHSO4+Ll+g4OhB8vftlmMlk8Tzv7rFDvSTp0urgjpwvAaomr11gzxUCR6poPDiubgoxlQrBI4FS0rIGTVOsiybv0/px0LVbhKKLvLkOAAITx0nf+92mdqAambM0GsIVLiSSEMLVx45o+/Vl5yRY2S0hzN8FFnde+Y/TQB4lHAXcvsmBaf5hawoj1/Ia1fMlUczMOtFE6pbOpocGPjCOaF5C97zkrPpNQTYSKV3D1VsHHwER/m7u3XdbIbVoiU5AwbFxsulYySLTrViwUqSR2jgc4B3kTzOrsITRyTAk8GZDbjOKlxJxJBw1SINzNhYx04gZwz/QgVi68KYtlpfyATmG9coYPESATt7inL370m/nBEQtaOBedRYcnidYf+DNZeoXflj+PmXto7zZ8k/yhkWvq+LlWYFq6RZvqmfxaqMvy809csE4gRlWHDIv3VT5pCh380v3xPfFxqwwlLhSiKGhasWNEkiooStkRyH8IubQm9Ski6dcRxy4Vw8kv04R/C8vhHGWZjMwHhTdKfNInfqLLHrQv8PRE3hR//xQwqvXyP/wD7y0Yt1/ozZ+0kU13TqTE5/zrKmzJQj3sQV2ODo9eF9CjkY8A+yYO3O97wZRIUriTSScP0eFipY1ZQsfzeumJL+r5JkRZu8xjgWyW5YRQG/vBhtYcSB4xvgYt+dNJ3ScxfJOlstOaJPUqHMy8JBAyrW0DSPDMtb/QUF5zgjrueCgB8EFaGcUVk9elNmzkJyZ8whu3uvhD3zHJw9e0YRAoPyXXHwdu50/lMz4Hoixc955v2fU7M//4v87xY/KlygsYUrj4xgmDab3OXvxaPEOVNI0osMIt+j4Ogh8r78Hfn7dsXNq4YfQUT0sAbKrHyP7L4D4ww3Yev8vcD14ulTaSKv+fX/Rz4KaAz3Y6GJ2GrTVkrbHcxh69g5eQ3kHBwEz3idt6wj7+tP5RjW5NGrrDM/106/gZRZ8R65s+ZJD1xSUOECBSJcAM3KqQ6dpHhDht7xPxM1/4vXGo2rmP8VnjlJNZ/8hvxjh8xVrAHLlnVGBpZeuJwyi1fGx1NJn76Msuvjh6lm1Wdy70icYeV8rLvBrBdN47PmU4aDM1lzDs6SJloRZ1nBnm1U8+lvKbpWJeOCjPa98fNtd+9JGcwgm4TWkOQNZ1XhAgUkXILY2rSS0fa4rEbEZPful6yNFcdVvOZSxXbyqPR/wYkePWHGQOTfroPcLboz55E7dSZZ3XomblAoqgUxqgduF8GxCgpv3RTrLpOglxGbaBpHgnCT4eBMTJsTRO7hfWkfqO1llJFIsGkytMWKmwz8GzkwcGfM4+e6F1mt2yYyIFPhAoUmXLXgQWzTluzBQ8kdPV6OEe0evcRgNjHw2sNhHEUbuG/x9+3kl/5svdjcvCwpNDD36C1jU9xxk/jXRLJw31Ls5CJZS2/PdjmelX6sB/eNbaQAVZyyphOnkTMibv8Q53b8HRJyPCsO+WdOSPNwcIzX+eqleHCmKTjQwpBbnM6gGlPub/n5TbJ/pwoXKFThqoVfcJszAbhfY6giNgAcBaAiKzHwdxD3f/EGcPiAZAgygdlk9SGODzEig9cYY97Rb5fCTKciQ1oRblbLsaCsJWcBjTJLbdhIskeVxT2LAzjLQnl7ksDRK1oIDu2Pn9fzHBhgnQ0ig22Hj+LnldcYgzP7DiBKmrPId6DCBQpduGrhCMruN5DcsRNlY5XBip27JuJoC48hGoRliu71axRw9Oof5Ai28kw8asakgEkT7GByp8+WIZZ2/0Fx+Xyhr7PvxQMdz56WI0G4l4Q3rpntx+K1w7E2ehNx9GqPGktWkoas8nOK47+o+hqFkmXtYeE6IFWyxuC1lGeU339nJAcGU2bEewHWuYmgwgWKRbjy4G5ABAxn2ZP4oe3eQx7kJF2+igMHC1Z24yrZgKPrVRQ9eWy0iAMz1ZDlonjDHjhUiglgK1VomzDEHvcrUdUV2Ui97ZvFessk8BS02neUY6r0TH4uJ0+Te9okIS0EmI915RL5u7eRv31jbIVlKqhCJlvC68zPISaDZ2rbZ5pgT6IKFygy4apF/Nz6D6bMe38SVx+2acebrcsfJEjAcpyBXbtCNZ/+o2RgOE7EUZjRDAxtCtPnkIsqz2GlZLVqzb9XAMe0iP55Mw3RjwVfwU1rpdkbxRjGQCERGul5A83w+qDJO3H+kLyeGJoaXr1I3tYN5K37Kr4rNAkateW+mwVr2TvxOie9CvYHUOECRSpcAqJ/3jzcoaVU8ie/FLucVKs2+Q8TAh5RFqqg8rQ0y3o7t5g9mgGIdnnjSE+cRmn0Ho0e1+hHtHC4QNRf84+/kuIWcbww/DrbPfvEI2VmzJVjaznGSlLmz4RVl8nbuCauFoTjRWQwMGAgUDLBGP1YKNDCkWDC1vhVUeEC9SRcONdHD0V0o7rBXJ6/DxxrYQIzGpczC5eRM3ZS4s68sTHnnjwWU1J/E28ku7bFAyxNAfHiNZWSY85wM2/9RO6/TB8dwqYJ06e9VZ9RcJEzrAcPYg9IU68yjqq7dpc+Q9lI0SeEI1Q7QRkAr2V07y6L1VryduDolQMDVAoankOGggtkss7YidJAXIhH1Y2BCheoJ+HKLFgm/UDokYEfmYy2N9mXxIgzerfu5IzgCG36HHLGsYAlrCwW1kQh+r8qz1CwdQOv834WMIP2UWhTaM3r3Kc/wSQ5jQnM3TFnrWGPD2XqNMZg7N4uTdsIkIzaZrFwox3Dgecjxsb07kepDh2lfygpSHHQowcUlO+Wvjfx1rxzO3Z4MQWvp9OrD6URgI4sIwvr3KZNotb5TVHhAvUlXCvfp5Kf/IKstu0ouHRBbHWCQwekt0OmmZpaao7I8HdAQQHc0dGXZA8eLuXeiYHXMmIBi86flSF8/t5dcpRotLGWAwIpR0YFHWe4OKa1ezRAmwLKrs+eksIL6ce6csl4Ro+fC5uoUzYxHscDQ+gk3bHgebp/l4KTx8irKKeI/xleqhSXF2PvLTLZzt3InTiVA05e52Hx4EzJZDXL+iNUuAAvQX0KFyJxeRHQWMubanBwH/n8z/ACvwiIkE2BjbVNO3JGj5XMwOV/ygBLeCAmCDk+PHKQfMyRQgMob+xGjxAZu/9AckeNkypEe2gpWd16vPFdDzbNCIM5pR+Lf7aTRyT6N4lUCg4exsIcj+Cx+/ZP3BE0Ci1Q1IJ1lllkcHAxaDgsDfBduvFzM4KDg3ygiT1Exep7UeECDSFctaBUmTdWv3w3eXu3U4i+JFTG4WjLIFaHTpSeOZcjuckySgWjJBLVwMxEd29TgPEc+3ZScJ7X+eaNONM1BCoNIWAORs2P5YiZ/x2Vnq+6AUkD8Z2bFHCgI0dW/PNIY6upakHc5TVvQXbvvizGvJHiHgsDHdFykRT4nYc4Sc/giSPkw12EsyxpuTCI1bEz7xf94oZ3fm6kHythR/sNgQoXaEjh+gYYI+Ft30iezD06J3cWchRhELtXX0rPmiebEWyOUCmXtCow+B96u7fxWm/i7/OS3FkYbcJNZyQzQfEGqg8RJEiW+2PrjAyLN87o6qX477/+67hPyNQrygIr/VjYTAcOpczyfPUk/zyJAWuJBmJ+F2HT5G1ax1nWgXidTYF15sDA6tBRZpCl5yyUZuKm4HhRX6hwAVPCxf87iL2RcaG01lvzhQzxM2nEKXBEJwK2cDm5S98mu3VrSjno/0rO0QTWGpsRRkp4qz+L538hSDDY/wVzU3fwMCr5+X9DNi7ZYXiKaPrb64zvHuPcq67IzCZv81oKr17Of2gIHCvDjaF0DKWXv0sOb6hW0vqEopCzrOcSGNR8/Rl5G1fFPYGmwPeOyQQtW1F6/CR+Lv4pWTh6TVJgYAgVLsBLYEK4fg+ODz2PRatKGkezqz6Pj4JMbqq8Ucm4dJQ18987PX8ZWa1aJUq88L1iY8rdu03Zrz6hLAcLyMaMYjtSFIN7i8yK9+NG8W/dEUV374hYiWBdOs/PBgTWbK8QjHAzS1bKUTLuRZM2YBNN2ZhA7G1YRT6eAw5qTAeMOGp1Ud7+9k+lyAVm2VLgkqR3zhAqXMC0cOWpnUvl36imEBkYLGTuGRQwfmHw4qTatSdn0DAp60b/l1QyJQnetFCFF166QP7OzeTt2RH7HxpEjoY6dpIqz/ScRWSXTaCo5jmFO7bEgoWCEmymBu/k8P2jcg0TodGXJs7tSbMOY8LzZyWTRVUm7rSix4+MBoniK8gZN+aQydExWgiaoE1TfaLCBRpJuAT+386FAUXVVVLZhIt4uE1Ht27m/4AZkAVgLpU9ZASlJ0/jF4wzg7YceScIVHRCsNALJSa+WGfD5qiw7bH6DiC7Vx+pfESGhWGDJtsl5A6uR09yZ8yVxlY8r2ifIBwXJwVYhd25RT4HBhiaKcU6d+GQb+5OWRwvOFCx0fNWOka+c8lmNcN6Y1S4QGMKVy34GnyPgouVFBw/QgHGUZw8StF9ww4crVrLuG8poeeswOVIEVNqkwR6vZDhoIrMr9hLIa+3TKk1FYXj+BAz1ThgEZsmQ0jZNWdV8r1yYOKUjiKrc7f43i0psDDh1AJtEf4R9FAejhu1Td5luS45/QfJsTCqBS3Mx2rfgVKWVgvWFypcoBCE6xvknvHGWnlGXNH944fk32HyaSoiB6g2dDHnh6NFG3OV+g2Ix38nJVrktYw4AwtZvAJkuZyFwVEdrQuJw7KkURol7dhI3QlTJOvDGJmkkEPhxf37ciwo0545IAnOnTFbTcrvB5zb4djuTpxC7tjJciyYxAnEjY0KFygw4apFGmuPVVB2Iy7tK6WwwKi1EW9s8EZzp8wid/YCcgYOllJpEbAEAVsuH03iu7bKIEscMZlsQG0w8P21biNHwNJXNmOuiJeVpCNBRiYQc1YlDcT4DuFUY3D8DYTJatdBfCtl2vP02VK1qzQcKlygQIVL4L9b5PsUoKhg3VcUYGwFv6gmj5gA7rsyC5ZSetYCmQUmZp9J2wAfPyK/fBcHCmtkSKDp+V/1BhqIObiAaEGwxAwYE4hLEhRw8HuBqkC8C7jD8jatoeDEUbPeoFhnFN106UbpqbMoPW+xrLPS8KhwgUIWrm+ADAxNtVm4gp86jt+Rv7tJYLKKqrj0ouXxz5m0i2YECmhOZQGr+c1/paDqstEKtDeGvw8LglXGgvXTX5AztDR5R1UQLbSTnDtFNX/7/5B/kgXLdIaMdW7ZmtJL3+Jfb8vI/KQ18hcyKlygSIQLGyhcqmU8+/49lF3LGRi/vEZBYQFH7nb3njLMLvPWB3J8mCgBq13nu7fJ37mFsmu+lEZxFM8UMoj+nbLxlFnylhRfpFq0iLPiBH03+F5QfZv97B+lKlTcZ3D6YHAbQ3k7gjf0vcmRIAaL6j2WUVS4QLEIVy0on3/0iMKrlyg8WkHZ1Z9TePum0YtoVE5Zbdvzz9pPbGucuYvIbt8xWVEn+r8ecvZVXUXB3h0sYltlqGChZWC1ZddyDzl6HNmdu4o7Q6JgwcIYGwwR9Q/slbYGKaQxuH2hMhDri6GZ4pCPgA3VoUk7dSgCVLhAsQlXHjnjR+nvmZMcfZaLwWyIxlqDmQHG2lvde4mztTt+MrljJpDVJZ6EmxSkz+56NYXnz1DAUT7uVGQSbmPDQQJG5qc5cLBHjpHiABQJJGvtw7hS8OBeCo5USLsILNNMYmHG3fCR8biR0jIxH05cYFBkqHCBIhWuWvAVRrCzOXZYMjDMpxJnCIOZAfqScDENKxu3bLyMwsBIjMTAayxjRqouxeNTsImeOBo3MBt+hWAhZXXryUHCOMkA0C8kgpWkfiwI1rWrMjAT5e0h1vrWdaPVgvJMDy0Vh3wZV4NnGuusNDoqXKDIhasWVB+i5yvYv5tf9oMUXrpo1hmCQSQqgxUnTpOx41KBCBuhYs8CvvGaiAMHPydybIXBjvAXxADLBg4URLBq+7FYsOB8IcdVSTqeRQMx5mOhj7FiH3m7tnGGdcuc4wU/pxAszFPD8NU0pojDpqld++J/hhOEChdIiHDVIhfYlafJ27yO/IPl+flfz/9o821oxJ9t+EjKLHubN1qOVHHvkqQGZuB75B8/LEUy4bnT8b0L1rm+BczCQNC2MirFnTSdBWsO2b375T9MCGggfvKEwuqrMszRW/c1BXgXTZ4acGAA304UXGDsjzN/KdkovNBqwYJDhQskTLjw88iXmhewmg9/lR+S9yjuSzL1lSN6LWlG7oTJVPLun5DdfzCl4ECfsP6viNcUWa639ktpgo0eP66fe0asH7Ksdh2k8AJjaKQfK0nij2eVn1MYDPu8htk1X8izahRMSuB1xukADIfTc5eIIbJSuKhwgaQJ1zfhiBX3Av6+HVTz8W8oxFjyGrPTl+MRKiWUnjmf0is/IGdYafKmvIacMTx9TH7Ffsqu/ow34T35D14TiFbz5ryJLib3vZ+T06M3WahgS1j0H/KzGOzYTB56E08fj0vbDWZZQGbTobl+zkKye/aJ7wqTFBwkEBUukGThyiMD9B7ck94Xf/M6Ck4c5kjX7AgN9BVZXbpLdVYGxzCDh+U/TAgIEnD/dfO6FBR4G1eTj+zhFTdiOLXLfKwV75PVu5+4lkifUII2U3hvSoa1/mupGkR1rEmHfKwl1jm9eKXcY+HoVe5iEzaHLKmocIEmIFwC/5wYoBdVXZYjLW/PdnHPNor4urWPfd1g+Ar/PES5iSowCCj35JGUzEugsG0jhdeu/GiggLJr6cdCn9DQUrJ69pIjLH5N4z+QAGDJhKw/u3mttHFgPlaD3At+HxAsOItMnkEO5mP1H0hWxy75dVaKBRUu0FSEqxbeWDFxOTh3mkIWML98tzQzy2h7Q2AmlNW5S+ykjQq5idOkgCNRES9vxuJywhs0Cg5QJRexmH27pFscL4aV5seNjBNRh89gkpDZY+fPyRrABBfiJV6QpuDACHeFzjD0G04he8So+L7QTef/gFJMqHCBpiZceXKBT7kH9+U+BkdbmAMW3b5h1sCXNxQM2JPyeQzdGzpCSr4TdQfGzxcCAx8z1o5USAVieL1KfkYUrNijyiT7hHhJ71uS7le87B9mnx3eT8EJPGO38h+aAUGAgx5DZLNl48kZMTp5M+Y4k0VwgONODIVNOipcoIkK1+/hnz/ijdTbtkk2F8yliu7dM9c7w8gmPngYOVNniaM5LsxlKm+CNnFUH+L5wvwvBAqUKSF3+hw5tsLxVaLusBAU3b4p91fevl0SHElTvCl4LVPNmpHVoxc5Q0opPW0WC1cZi1jb/B9IBvGd6g0xHEbbC5zq0X5id+uRaDsqFS7QxIUrF0XSq4JHQfq/trOAle+OJ8ca9oND8yf6v1D67YydJP5wKKlP1KaerSHCumL0CKyDkrS5QJxxj3X9mtzt+ZtWU3jvrjkfTQiW40pBizNoqLi3w4YMg1EThfhoPpA5ff7m9Rwc7BRTaPyc6ZnzpPjJ4uAv1bZtIo9DVbhAExeubyPzvy5WUrDmC/I2rKIIwytl4zEoYM2aiwMH1hN3P4ieWV2TtcknCWwj2Ew5q/J2b6Ps5x+JZZPJZwbHzmhyx+DMzNs/ofSiFfLfiYLXWTxK79+jmt/9mrytG1iwvuWOw++IBQf75e/KGuD0Ap6iSSqAUuECKlx1QAGBnJtfr6Kaj/9BKhBzzwzOPIJAYYRK8xaUHo/S8PfIHjYyLllWCo7o7i3OsDZRdiNnWJcvxlmlqSyLie8LB5G7cBm5cxeTzZkHCoCSFOjA7Dm4eYOC9V+Tx0FlhJEuqFT9ropMZJ7I6Dt2psycBZResEwarJOCChdQ4fpu8GhwdIcjCFQgehtWS0VY9Ohh/g8YAC8gi1XtSInM3EXklI5J3OV6sQKPRm/7Rhn5Epw/Q7kHD+J+LINgiGN69vy4MpWzrVSbdsmyaeL3UAyH927nbHY771GXpCfzpVoIOPiDXVjJB39GJX/2z/K/WfyocIF6Ei6XN9TMT/5MxnukWiWnnFkekefPKLyK/q9D/ALtFAd6NDWbRPq/eJNCdZgzYYoIWOIcOIoBfh4ifh6CA3v5WdhBwdlTFN24ZvZ5YGFCBSYEyxkzQe6zUI2atAZiFFygsAUzyDBWB4UYrxMYlPzsl9T8X/+b/H8VPypcoJ6ES+b2DCsld+wkmUQrzuhJKE3FI5I/cokw/4uzr7h8/nBsIWUwwk7h+LBjR6kUc8ZOiCsQe/eVyFJpYCBYnG2LczvGjRw+INVscMGQZ8QEaGDv0JHcMShrHyPvGUa8JKqBOBdxJvtU1tfHe3bkoASNb2LVpsKVROpJuGqxunYnd1SZzKZCXxKyhCSN9sYjIwMsj1VI9aFE3FX8Ypns/8IG1rEzuZOnkztuskTcqU6d43sNpd4Rx4urlyRYwSBNOK7IKBdTcOCEBmJ74BByRo+l9JQZZA8YkqiCg9gh/zGFly5QcPoE+btw/HqWM9k3v1tW4Uoi9SxcAo4ysLGisXbuInL79KMUSruT5Iwe8ov26AF5/IJhNpVcyt+/Z/aOgzc0ZFww8HXGTyK7zwA504ewKfUAByM4rgo4s/J3bCH/4D7Ouh7kPzRDCicZHAyiD8vF9zx6XLKOiBEIPntG0c1qESy8S0HFvtjJpp62ZxWuJNIQwlULBKx1GynPxUuHxkAp7U7Y0RYyMBimejs3s4BdotwLjhINVpUB2PlgJAVMfNGIiYrE2iNO5dXAyHzijAoei9mvPyUffULoxzIFinJcNx5MOnYiZZa8JZOIE+d4wUEe5pAFJ4+St3EN+eU7+d2p/+kNKlxJpCGF6xvYPXpJWXd6ziKyuvfM/25yQCMzTFO9DSxgq7+gkCN10+BIFmXR6aVvk7v0HbIRJCivBEQruHOLfPQJ8WYaPX70chVs9Ql/j+7QUir55V+QM7IssW0QuMeKx+DsjSsFGwgVriRiSLikL6lFC3IGDqH0rPnkTp9NVudu+Q8TApwTUIHI6+hv3xhvfA/uyxobgyN1KZTp058y7/xULJWagn/bm4LAA0UA/pZ1cWMri5dR53ZGDIcHD5MAzxkzXpwg4KYizedJgd8RTHrOfvwP4l8Z3bkd97014DqrcCURU8KVBxZGqIzCRTPsWdypM1nQkmX9g8ZI6f/i9QxwN7Jnm1jUGBMwHDXBgb5bD3KGDKf07AVx5I77L6UOUXUV+eW7xFcwvHCOont3zDYQszjhfcBIF3Fv795T7rYSddTr+yJYHgcG4t1YfS2eSm5gnVW4kohh4aoFE26RFcDaCFmBXTpGMoXEvKy8rhHsaeAOfuZE7EKP0fYm70oY3JOgNUHGp6CAgyP6JPXZvTb4fu7foaB8D/lHDlJwFvOxqt+o7PpVEccLOLdjpMuYcSxe/N107pKoBmI5Qq+6IgUXmM+GdhL4gJokacJl/yWT//emS14nIo6GcpwVSF+KieMRjsAQ2aL8FX5jcsbNm4nVvIWMui96kPWgc799B2kJsDGuBNN8UREGOykcj5ggXxkHB3xMJ849fhyX07fmIKEpVh/ys5179JCCQ/vIg0ErJmIfq5AjKxxjGQGCxVmVO202pecupszMeHhmqk0bfmySE7hhfA1mkOHo1du2UZxnxLjaMGjWR9FSUlDhErDB8ovUsRMLRnP+d472WFQk8uSHr8HBvdD1azKnKQfx4v/G3wfiJef7RQ5WEG0AqPTDXCSrS1cRNKlcYwFD/4oJ4OyAqcRStv/4Yfy/i8o1BAoQ06SDDAuTmdFAXL6TvFWfk7djk9xlGRMsBAztO5Izcozc85aseF+qBVPtOoiYJYLawODUMfK3byZv3VfiMoKjcyP7yXeQNOHSo8Jvgc0UbgA+RnvAZgUWK9jkDGJ16EQuXCEwWhwj3DljIfR/Jei8P/fwvjSyZvmlxqDB3P27cQOzqceRN0k0tKLC05kxh5yefchq25aFLJkTcVFkIa4nJ46St2WtbKTfnsTcoCAQa9GKs6we4nqBqk9k4Ym6w4JgYZ05q0d5e/aL38XPtmHvxu9C77iaCtka6VrPrv6C0/z18t/yohtcLghWesZcyqz8QAbiSf+XlazGy6imJq5iW/UpBXjJ4RJgsCgAYJ0zy9GmsJAsFjDJcpNyxxJyNv/iBYXYSNd+KU4nRh0vGKxnirMsRPwYsyFFMkkSLH6OZZrCowcyRTz76W/FqqmQUOFqSsCCBVY3505TzacfSoZQH/YrLw3uiDAUr0WLuDx4yVvkoNoqUc3L/PgFvM4P7lF22wbeXDkDqzyT/8wQ2ER5nZ0+/Sg9d1HcZ9ezd/7DIoYzAHl2f/tfeSM9JGMwJCgw+MqjididvUB66pxhpWSjgThhx7IRZ1RwFPFXfSbFF3LFYDj4+jFUuJoaiKaQbT3kaIqjKAxW9E8dN+7ThjJuu3NXOT7E3YDVu1+yolZ+0aMnj6XaKti/m7Jb1lN4sTL/oRkwKTbVqlXcwDxznthIpTp0zH9aRPBGin4scbzgjbRR+rEyGXLHTeJM9l2pGkTGJUMdE/TMYusM9u8hb/NaORpEgZWscwFuqSpcTRjcdYXVVWIw6u/ZLvcFRs+vcS/D4oUGZnGgnzyN7J598h8mBFRa3r/HonVOmjP9zesoxKW2yU0XfXZduv5ewOwJU6VNodBLtHFcFV6+QMGeHSxY5RReOh/3zplcuxYt4765OQtk8KdM362dXp0UPE8mhPvbNpDPe0F09ZIEXSbX+VVR4Wrq8HLJJXfladlYQ45oQzg4GzwaQLUhRjk4paNZwCaKw4AUcCTo/ksamG/f4Cz3EAVH4vEO0d27RIGf/xMNDLLcdIbsgYPJHlpKLuZ/DR9JVtv28llBwc8kKiX9Y/kRGGdOUnj9mmGxLyG73yDJsjBqBL2JqdbJavbGESCmIPgH9nHQeoSC08cpesCBQWiwyOU1UeFSBAgVjmACNBTWNm9euxpXxhkCNkZ2vwGxeJXxr0FD4s0iCXcIeCxZIKTKE0FCBa/zsUPy79LAbHJTZgGDM7nDmzKGhWLNMWW30UEQhWfw7CkKKsrlDlaeQVPizuAOy0IT/ZAR8Xy0UWNlrE+igOPF9SoKTh2Pgyh+FqNbN/IfFgcqXMofg6ot3kj9XVvI27tLjmdyD+4bLoFNcUYwmdLTZ3NWMCquQGyZLLuciAMCVMbJES0ErLpKemVMYnFQgP4jNM0i27W6duPgoUX+U4PwMydzmzCRmjNSjM6HN6Q0zpui9ti6b39yp/J6wJGfBStRjhe8NeZu34x9NzGFeN9OKW83ifQYptNyAiH3Z6+JCpfyvcgDvmU9eeUsYJhY+uwZ77gmjxCbyZGWO3dxvLHCpSJBYyDkUc3WUHjqmPR/SQXXw4dxkGDwMcaxLI7E0guWkT14uIytEQeOhg4UOMuU4yrMx2LxRp8Q7lqMVrDxz4nNFM3kmTmLeA2WkNWxS/zzJwWsM4tEiIAU7/PmNfI+G73DguNMGw6UYE/WvDkFly5IUPy6qHApPwpMStEzAysdsXEyubEwuCB3yybEzuhjJ8pLkKTsC6AtAQL24tf/hYIzx3lDh3iZvRxHUJBZvJIyb30g5fMNWjWHzfTpE/IP7BHBgregUfBzcTaFgY6oas2893PJuBIFtkKMzX/yhLw926jmN38rR4Q4KjQGr7PMIevUhZr9yT8hd+Y8GX1S88lvxefzdVHhUn6cAE2fHLGxgHlrviBv05p4mqkp5OFPSym3O2YClfzJn0t1l7hvJAF+ZPHYpnBk9vQpeft28mb+Ea93pTn/Q4B1ZrGC0z/6v9z5S8UNor6Py1AtiCNSj4MhKbtGK4bJ54mRnxG+gvgZOQsg/rkx+yxJoJcQ91d4Z/0zJ8QiLA46zWyRYovWsxdllrxNztzFZMO3kdfZ27ZBhetbqHA1ILhziO7eoojTfDnaQgMzvPlMITY7LSUyTk+ezpHyArKwsSbBwPcb5B4/ovDWDVlff8dmCs+eMt+m0LYdWT16x+4QKKHvNzD/4RvAmyY2q+yGVSxYxyi6dT3eTA2+sugfTE+dJfd69qChckyapONngPtC2Lt58uyclDvrN7lPeh0Q8KSnzyGX31OrF+zH2kuGCzAGRYXrj1HhamiQHeBe5uL52HRzzw4Kzpzkl+VR/g+YQfqS+OVwx08mB31JffqTlaCIGY9x7u5taVpGozg2IqyzUVBh16mL9DHhDszlDd/q2Fkys1dB7lc42EExAH6WAJnk08fmjpyRSbZowT/DZLInTSeXfx5M707aFGIU/GDUCHwbkcnCgNm0c7vdk4MdtFqgL3PgELk7xHP0TVS46qLCZRA0MAenT8rFuvxC/5dJBw7cUfTsQ3bpaOn9ckeMio8QX3FjLWgCPy5e4AxFZkwdPhj3NBnstZGeJt7oscbOaP6FQhm4n/9IoCAZ+tVL8d+bNynJsu7e4Q8Mlv63biMbqDN6rDS5W4OHkYXp0Ql6RlDgEp49Td6xCgrxfKDFAhWqprZCfg+l8ALBzahxstZSCYw70u9AhasuKlyNAGZwwXVDBivizoI3K5N3YLDjwXEEJs2ieMPmiNpCX1IS+r9qEQG7Rd7OLXGQgONDHAEZ7HGCUEn2NWkaOaPGSoOuzCP71h2Y9ARWV+X71copOLiPQsODBpFNYT6Ww8GMO5H/vqPHiYglCWSy4tzOmbi/d4escyRjdQwFBjhSbt1W+gCxzpjKbfXuL++j8D3BgQpXXVS4Ggtedun/2rudvG2bKIR4YbQHBMzQVyLj0jkDS8PAd8ToPxwHJUjA4umzl8lbv0oyGTToRo8xLt1gBgYBQ4M4hiWWjiGnS7d4LD3+bvydB7AR27VVCjDQn2a0CvUbx5u4y0IWgP9OErjvzMFG7MI58st3kcdrLUMzTYGj15atyOrWIxasWQtk4vPLFvGocNVFhauRyeUiCp89o+DrT/gBXR831jbCaA935BgZn4JjCzFETXMUmKTjIX7M0cDsbVpLHme6ORjPogLR4OOPoMAZM44yC5ZJRgOXFW/jaqliw/Gm8flY6MfizbRk+XvkTp+dOMGSFgK0TSBw4e8dM/ZQxGMSvEcQLRwbY6SLzYGBXZthvSQqXHVR4SoUEH1zFJhd9SlvZmtYwK7mPzAERIp/4UI+s+JdOS5K2mW8ZLkcfePYECMojLcpgHz0bXfuxt95SAEaWyVIMSignAFKA/E7PyOXN1MxEE7SMTHg7xrOKjUf/z1l+X0SiyZTR4LfAIUXmZXvk8sZtxy9vkYwqMJVFxWuQoI3MBRr4NgQZd1ZjhJl3LdBxMC3bXuxjnIXLidn0rREVR/KhuZ7MqYmunyBar74SCoQjdolWdbvhcK0cKIYR2aOzZpHVtcecXDykkdWxQC2M0wX8JHJbviawtucWT99avZo2E2TPWCQDCcVA+zOXeLCi9dcZxWuuqhwFSDiS3bvTnwmf3CvzKZCr5KxiBEbK29oFi7rBw+TplMIWWL6vyBeeOzRpoCiiLMnydu8ngI0nRouhzZFbdm1O2Fq3I/VsVNyGtLzwHAYxS0oyMHEhujWTbOClc6Q1ZsDgzkLpfDJ7s6BQSvOst4wm1XhqosKVwGDLABHhqiCCtDTg+ICw2W7ci8zZDg5o8ZResp06f+CK33RgzXEsQ1EDFlu5RkZnQJLpbDyrJRMFz3881nt2sejRvBr2Ei500rE9/cNUOQkBsyY1HDiiIx4MemgAosmGw75mNIwehy/L8PI6lJ/DvkqXHVR4Spw5OsJQwr5hcT8LzSkIhOLMCDQILi4d8fwS4neJIz26NWHyE3nP00G0v+FNoUjByg8dVyaxnGsWHRwwGHhHm34SHJGjmXhmihOHijGSAwIOFB4gRaCIxUyXkjeC5xMGMTmDMsZVhq/FxzciWdlPR+9qnDVRYWriEAfCrIucVTgDVYqEE1aSDFy5DRxqhw5Wf0HySV/ki72pXz+9i1xVECrQnjhPIU3q8V/suCpLfzo0UtEC31Czogx0vaQGHi7gg9oVHWFwnOnxInG5w3d6Igbft7RUG734ndh8gz5JZPIG2idVbjqosJVhOAl9Q/vlxJfaay9fy/ODEx9lRxR2vDlm8Mb44x55HTtRlY9nOUXFCHmrN3hTWMDeds2UnT9GkWwXTJdhfiS4PgPPoL20BHkzppPztTZr1x2Xejg+C96cF8cZ/z1X3MAt8tsSwM/37LO/LxL9e2i5WT17ve9jhf1hQpXXVS4ihgUbPicGWQ/+nsKMEgQBqwG53/hct/mlxhjPVwY+HboJOf9r1PyW6ggA0OhTPbLj8nbvokFjLNcn7MvwyNUvhdsphzp46gqs/gt8aJMmuOFVNuijSEvWNmNq+Nn3RR4ntFCwFmWjAvi590ZWZb/sOFR4aqLClcxw18dLIyiZ8/I37iGvFWfSrOl0RJrFHDAgaNXP8q8+zNyp87kyL9j/sNkAEsmGd9+4Sx5G1aLi7jpNoXvhNceVZ+Zt38iGQACB/FDTFDgAFA4g/l2OBaM7tyMn2+D25YMaJ08nTLL3iVnVFmcYRk8XVDhqosKVxKAgHH2Fdy+KbZBwfaNFFw8L5GqKWT+V7v25AwdIZY2eNET53WHNoVHDylAm8KuLSJg6AczDvqEevamzFLOsCZOk8IZKbxI0lFtFMrxrDidlO8W2y7xFTR41yhWXWMnkbtgqRgl2zhRaISKTBWuuqhwJYgcXvbbtyi6WCmlwTASlZHjBkH5vJi1Dh9FDoo4xk2KN9UkHR9i7MiNajm6CjhQgFmyuPw39KuEu8WefaQYwJk8jZy+A2XAI34/MWAIK/qxWKw8Dg7w/OKoFvZYpkC/ojTgT5vNgVgpWX36ibdkfVcLviwqXHVR4Uoi/JLLxnriSDybChErMgNT91+obuMX3RkwSKranPGTpWjASpKA8WsTYQwJZ1/BkQPkYzzGuVMN06bAmZQNg9aRvJZjJsimikbXxtpIGwKp5mTBQtsHStv9U8ekHcGkTRMCLJtFCga4mJrgDBkRmyE3ciarwlUXFa4Eg6MtcUbftS1uzISbADZWU24CKYs3g+Zyoe1gVEbpKKlGTFQ/EQO3DayvNMAe53VGoUx9zFljkUcDsfQJjRonhRcYBtpQZdeNhYz5Oc8BAMbPHN4vs7JMTrAWx4se8SkBPAVhhCwDHQsEFa662H/J5P9dSRhiptq+o3Tz2126Ug4VaKiSw6ZgZGPgmMjn7O/qZc5GeDPCHQX/llQeZjLy90sCmKeEhmxn8NC4shIVh55PuZrnr3fPyN+T1boN2f0HyR1WXPQyK95Mk3KPxfEynofoyiXy9+6k7NefiD9nVI2hn2ZOBlI2vx+dOktgkJ63hDJL3+FMa4L0whUS4SVMTz8uDfKvC0wD0H+ZFDTjakKELFYhGpg3rontozj7Mm1tZHXuSulps2SjsPv2j49irGRsxniVcBCKGVu4X8yu/kIGREbwP0SW+2OvGo5YMyXxZjqyjDLL35UsIFFFFxAsfg5R1IIm+uzqz2RTNtpIb+EkoAUHc93InTGX3PlLJfAo1KNXzbjqosLVFGGx8o8douwnv5GKLdlQDT8GcMzOzF9CJT/5c0q1bZ+szRnweoa8GfsbVpH32YcUXq+Opy9/3zpDtJo1I3f0eEqjL27KzETdYQn8s4tN09lTVPP5h+Tt2GL0DkvA8XXr1pSZPZ9K/vSfSSBFnHkVMipcdVHhaopgA8Fojwf3JNrNfvRrCmAsa/BeAUKF/hhUxUnj7OKV4lieSkrxBsA6c5CQu32Tsts2yvwvGMB+m7jseiK5S3gdRo+T8e6/H+eeECJ+3oLTJ0TI0bKRe/zYqBEukGx/ygxKL+AMq/8gzrqKY9q3ClddVLh+BKl24g099ewZWW3axg2eSQH3XRwBRzevy0wqb/Na3lgvSFGHMXjjwL0QTGDdabPkTgfl9ImpPgQo8X54P77P2Y8y761xmwJH+nDezyxeIUeCKf65Uy1b8o+eoGpB3l7C08fJ27qBgiMV/KxVm51wwIhD/vjJ5E6fI+XtKQ6WGtqmqT5R4aqLCtf3gGXJwRft5BHy9u4kevJYepLEoaBrdyIUGCQIlCKjsRabS3BwH4UXK2P/Q0Mgw4jnfw2XuVEYw2F17Jz/NBkgo8Uk3pAzj6DyjDSz4tLcGTQ0btZO0nEpi3V49SL5u3eQf+KwuF9gwKO5pvgUZ/QZaR9AM7w0EKOitcAKL14GFa66qHB9B3JxfP4MBUcPUXCMN/ITx2TTsQcMJndkmfjCwX1bnNGT1ktz/Vo82+jIQRbtoxReupD/1AzYzO1+A+IS+lFj5ZdM6U1CBpZ/1eT48P5dDn5YrDuxOCcou6wVZxReBBXl0keIcndjNmRyV8jPEL+r0o/Fz4/0EOK0pEhR4aqLCtc3QGUTenBw7xMc2Cu9Od+e7yO+fBwhO+M5K8DQuH4D42mySQIl7NXX5PjQP7iHwguVFN29E1fGGaJ2gGV65jyyh/DGw2KWqAbmpIHjUBYoGch5+IA8Ozh2NnkkKILFWbs9rFSydnvSdLIT8MyocNVFhSsPsg1/91by1n4ljZByDv8D4IzcHjiY0vOXxMeHtX5xScnA+LFAlCyFBWu+kOba6NrVeLSHqeMeRM8cKGD2lzN/KTmDhpDdsbNsUCpgBQKeEw7uUPaPZ8TbuVkCP5PgXRSfTJyITJ0pwY5UqiYEFa66qHABXoLgxXN6+hc/p4gzrldBfM04I8i881PpvbHwwiRstAfAdNns5x9xBraPI+vblMti/pdBOx4Wq/S02eQuXE4OjmlxfJikQpliA4LledKj5u/eRv46DvjOnZLfMwb6sfi5gGBJAFnbpJ0kOKCG0XDNZyxcJ4/lf/PVUeFKIm8gXAKyLMum9NQZlFn5gVy4y71MQkA2ChnOhQFHfUc4K/2SPClpNjsmHWuMY9k0R9WZ5e+RPWR4/gPFNLinwyDHmt/+Vynxl9J2fk6MkbKklaLkJ7+QSc/Sj4X3MGEBI+5Cazhg9NZ/Lf6jr4sKVxJ5U+HKg+jPateOnLGTyeUIUDKwhPnKyRRaFK+cPUX+5rXk79xi7uIdoP8L69y1uxRwlLzzE7K6905WRV4BI2Ndjh+mLG+kKN7Bfxudj8XiBBuz9LzF0vtnd+4SZ98F3kT8SvBahvyeIYv1t20Us+HoCQeJbzDSRYUridSTcAkc8Vlt2ol7N4QL9kY2MrAERYJ4ZFDIkrt+Te4z5F6DN7PcC4P2UfBhbNOW7F59xYNNou5uPfj3k9WmUCjANDg4fVyah33px7peP0bCrwCOAd0Jk/mdmiN9fykOXlJJClj4vcLdOgrD8E5JUdTtm3E2+4bbtApXEqlP4aoFGysMblGByAKGzdXq3S9ZjghRxJvX43gu1aED5FeUiyGoUd85DgjsHr1kgCXcJ1ACbXXvlTy7pEYCjhcRsuuD+6RoCf190b27+U/NgCNBeYfG8fc7fHQiHfKlBeccr/MBrHMFhefPxX2U9bQ9q3AlkYYQrlrgDMECFjcvT5L7L6tLV5limySkgRmzlFAKffyIjFMx7cCBKFysk9ADNmS4VHoqrwc2TRmJc/I4hRjXwpuptESYusfCyUWr1tKD5YwYTe74SWQPGJKou2OArBWFT7g79o8epPDU8TotOPWBClcSaUjh+gaIFHF06JRNlCZbCFrSKuNk3PqBPeSX76HoEkfnOFJ6g7P5VwX+h/bAIZSeMUdcEzDiXtwSNAN7KRBs5O7epoAzZ9hT+Xt2SH/Wm9yvvBIsWLjDxPcm87FmL5BsOlGChS038CmsukLB2ZPkY17escNiC9ZQqHAlEUPCVQuOD9NzFpI7aRpZXXvEoz2SdAfGUXl08wb5OzeTv3kdhSxe0eOHBu1+eDmbt5A2hfSSlRyxjyKrYxdpXVAB+x74u5Ho//IFESvxrbx1I/+hASBYmNHWriM56I9csJScqbPj4qYkvRvojXxwjwO8Ksp+/alMZ0CBS0OjwpVEDAsXSLlpybrSK94nd95ispo1k8F2SXpJ4bSB+xC8oNl1X8Z3I4jcTT5yvJ5SffiTX8iRUyGMYi8o8F3ge7p7h7xtGyi79iu5xzIKBxPSDzm0NHbI56DOLiIT3JcC98FwpKm6St7XH1N21WdGqzFVuJJIIwiXwBsoMgOrW09q9tNfkDtlBm+sbfIfJgS8sF5Wija89avI271Njg+NgkKZFi3JGTeZ0kvfjgs4Ena5/7rkOBP2Nq2j7HoWrEsX5LsymRkDcchf9q6Y4aYwQTqJDfxXL0kjcXbjGsrduRk3ahvcelW4EkrEmUD2V39N3oZVcrRl8hIaJdxorHWHjaT0wqWxsWzCBAwbIiqnMETQ27mF/PLdMinYGLzOuCdBo6ozcgylZy8UB/pEzf96WfiVh+NFsG8neRtXU3DlEuU4GxbRMgWKaTp3o8zK98kZO+EPzu0Jy4ajas6wdm2TZu0Qd74PcWRu8M4X6zxiNJW8/3NKz1mU/93iR4WrFl6GsLqKN9aTYhCK6rjw+rX8h2bAi4sR4thY3ckzxImeSprlP00GKJVHxhWc4XXOX/7XR5/KS4MGVvR/oQJx1DhKz5wbl1cnbEzN94HRIihrh/OJjBq5diWu/jS1/jgi79qN3EnTycH4moFDyGrfQYK3xIBTBg7SvPKdsWBhne/colyN2cGZyGRlxh0HwhbMwFEMlhBUuL4FmmgjTusx2h7ihQZbqaoyCF5kONC7Y8aLA72FsQx4sROUHUghwMVK8g4fpLBiHwXnTstQS2MbaG2fXelocjETC/O/evQSw9Ykgn678OxpMcL1j1ZQiPV+8Tz/qQE4YLC7diebgzGnbDy5w0eT1adf8sYCPbhPIUYh8RrDW1DssGrMNebjmBUFX2gfkOkVaL/B9IokOYswKlzfQ+4Jv+gXzpF/cC+/6IckapIX3eARIgRMSrrhDIG+JBynoDIuKfCjF/JLHSLDxewmzsJC9H/x2psEG6oMG0SggHXGoNCkZABelgIOENAf5B/YI5spNleTYOaYM2AIry9vpAgQ+N+tJGW4/BzD8QL3uBLwlu+Wqc9G20DS8Ww3e/AwckeOJXf6LP7vrhKgJREVrh8BWQAaa7MbVrOQnaXoxnX+PRYwU87oMJZt25bcmfPk+BBO2CnOFDDuI0mgJFiChN3bKDh9QrJckxZSuAuw+van9NRZ5E6cRlbP3mR14Ei1GLNcfqVRwZa7c0vK270t62NXf0wgNkXKolSLFjIfC3dYcqc4cChRkpxjGDn6xuBMDgjg24mMVo6+TSH7Qzuy+dnFeCV3RmyHlXRUuF4SFG8EvKnCpRlNg7mHD81eZjN2566UXrQifjh79ZVGzcRdZt++KfcC3tb1Mt5e/PBM9n9xQIA7L3fuYv61iGzeFNDUXDQCFvgU8ZoFVVcp2LiasvxLLLhMvea8Tmj1SLVrJ8eBmQ/+VI69ZQ2TAtaS1zn39Cn5Jw6Tt473hCMHG8Tx4nvBOjdrJsGV3IfPWxI3aidsP/g+VLheEWyk/t4dlP3qEzEb5d+JPzCI3bsfZVjAUNqduOnLeZBxeVs3UM2Hf0fR3dvmjmhrQRFBrz7U7Bf/nNypsynVnIOEAgd3LJjgjeAKA1GNVm3mEecS3kCb/ckvyZ0yq3gE/1XwPKkQrPno78kr32V+vI8EBy6lWazc939OTv9B8R14E0KF61VBxRBGe6AyrqJc+jKCU68/4O21yPcl2X36kTtnEbnL3iG7mLKClyEK5Ug2vH+PN+EvyGcRw5GMsXsDrKXN69yylThvpBevlGKZFGdghQgmEHub1pC3Y7NUw8pxNq+hKVDUIm0GC5aRM34yWa3bJus+FnhZDgwuUXbDKunJkgkJOBY0GFShpcMtm0glnMlKcQvWGfdYSQwQfgAVrtcFRzJPHss4e79iH3ksYNGN6rgb3gSIutJpSnXszALWX8Z6OLibad+BP0rOQ4wsAnc1YvjKm7K3b5ess0mkSbxTF3KGlVJ6xlwx8pWeo8aGX93cg/sy2t3bv1vGYMBOyOh8NAbVa/CGRNl1qnsvFq02idpIJZO9WEkBRrqg8KL6auwCYxA8by68G+ctjieAwyoO94VNTLBqUeF6UzgDiO7eouDcGQoO748bayFgBjODlOOKfZS4aE+aRjYe7HYd8n8gIYhdzhUp3MB9gozYMN1nxxuyw0ECRmwgq7DHjCOrMVz+YdHEghWgtH3/HrlzFTNjk31C/Mw5KAiYOoucUWVk9x/MQVN7yVKTBI5epa8TLQSVZznrN2waLZ6bw6UaU8rb+w+S57Cpo8JVX/AyykNeu6nyBisbq8FjBBkDgYecI18Xm8ng4bE3X4JAlWd09bL0Ikmf3Ymj8XRYU+vMgYLVrn08bmPsJPFBREUXypEbGryqGOUO9xGIt6zB2dNmnRhQdt21m7Rp4BnDpIO4gThBgiXB6O24UhDP2BGYEXCWj/lYprBtcgYNI5vX2EUbwdBSsjp2ludPUeGqdyIcIV48T0H5rniw4tVLFN25nf/UDHCGwL2MRMPDSvPOEAlz2WYBCytPk7dzG4vXYbl7kAZmUwIGBw6OfN3pc8gdP4XsQUPETqqhqufELqv6KgXHj3JWv1PmNxktu0ZjK2+ciPjh9YijQQzsxPaRmKNpCFa+H0sCg93b4r5Cg3PlcPyPSc8YzeNOmUk2Z1o2/BubSLXgy6LC1UCgBym8eE4ct1HeDfdtoxsrgyMFd/xkyix9Oy6f78gvgIHMwCQ5zjZkDMeWdeIGgUhZ+r8MPtZoU3Bnzyd3Mm80sNZp0yYOFN4YzrAwH4sDH2RX6BNCTyE2V2Mgw2zTTvra3AlT4laMgUOTI1ZMDj2ZT5/KEb/YYW3bKOttElQJ4n3FfbU7dSZlFq+M/UoT5CxSn6hwNTCIinG0k/3sQ/Jrh8XhjNzUsvMGg6qj9JK3KL3sXalEtJAVJCyCC3mdA97Y0VMD14IIQYLBuwggg0LnLKD0zPm80fd5g8tzfjYwHwtVlRz81PzuH+TIyqijCJ4b9GO1bBmXXS9aQTbKrpPkeAF8jwIYDuO+cO1X/M9yo3dYMtKFg0k0asNkILP0LZkWofwwKlwm4CwrF/gUHNxHNZ/9IwXHD8fZl0lQQt+hE2UWLJUmZjk+TBq82UvRQvkuqvnyYwpYwIyC6JgDAumz4yw3s2i5lCu/snihEOXKJRasX5O3Y0vsdYdM3eCriuZ2HAdm3vmZZJHS7J6w6B/Vgv6+nTIvDpmsBAaGR7rYXbrFQ2XRQDxgcHxXmKBstqFQ4TIIvA5hu4O7L3/LOgpOHjVbCcabaqpla7J7cHQ3cRqlFy6TI8REke//wrEPjnu8NV/KGHq0LxiDMxXYdNmcdYnTyfQ5L1UiLmXX58/K9GF/z/b4eNmk6wUj96Mjx8bjdUrHiPCKvViCNlMEAuGpYyxYn1Fw9hRF927H76GpY3xeS6t5c3LnLyUXVlgcROKYMGk2bg2JCpdpeLmjhw+kLwlRnrd9kzjQm0TO0+GMPnCI9CSlMYG5LUqZE3R8WHvRjnVGn932zVLcANcDI/DmJBft3XqSzZE0sheY+Ir/4bfAKwjBQiuFjNNhoRW3EIOvppRdjxhN6emzY0fx7j0Lo1etHoE4RRhoyu8cPAVDjHRBYGBKsBgEArgrTE+fJXeFMHSWiQSaZb0SKlyNBY617t+V4ywcHQaHDko5vclKMSlt7tYjnv+Fsm5MBkYFU5KOhBAoIPtC/xcc6FHaXF1ldrOCDdKAQZLJuBiaiDE16LPjvwPcQHxUoHJ2GMId/9ZNo2XXuIdzho2U7x7z3yCyUt6eJLJwvLhA/uGDcQsFinju3Mp/aAZpoRgyQoqlMEpHjgVVsF4bFa7GBs2k9+6wcB2QI0TYR4m1kckSXNzLoP9r/BQRMRnuh8wgScdDOIa7cC7euNBrh82L19kkqM6zBw8lFyXOg4bKkRXK2lEVGd2sjse5GwLZIO450S5R+73L1IGEfedR1RUp1pH+SgQH1zjrNggsmlDUIj1vYydJmwp+T3kzVLgKCFzIw8BXjjEuVsbHRSad0RF9w1Zm2mw51kKlU9IamMVvDgMsd8QjKKRPBw70BjMwib779JcCneD8WbPZH0f5VoeOZPUbIPZV6SkzKcWCmrhjYpxm8PsU5KdsR9erzLrZ5I+JHczHwkii0eMK1ueyGFHhKjDwdchAuq3rZXPFmA/jF/QsVrA1QvGGXNC3bR9fHCcpGq+pkVLzLKo881Ouf1+9l0QcRyJ9FAKgTwiVbIkru0YLAQqgblSTh2rBrz6Jgz+D5e1yf8wCZfXqS5nFK6S3D/Oy9EiwflHhKjDwdeARj/gllCGAn38kFYgRmmrh9m3w68KFPcbal/yTvxAvuiSWRAMcIWU//a2MqZHmXoOu6kZg0bK7dKf03EVxJWniWiH4nQgjybJwX5j99MM4kzUJBmem3biSdMV75Cx5m5xmCZvYUECocBUwcrTB2Raqn2r+8VdyB2a+CTXu6HcnTKWStz6QuxlKmPsG+T5FvM6YEuyt+0ruwIzaKTUgGH+TXv6uVI6iv0wsqZJ0LMjgRAL2TNn1/N1x9iyl7QazLIBetwwHBu6s+VLwpJWCDYsKV6GDr8f3KLp9i4IzJ8nbsYk3Vs4MHpgcw84CBgNfdPfDWHbmPKmMS5R/Gq8zNsAQE5hPHKUAfXaciRl1Uagv+PtC3xjG3LgLl4uLu4y7SVLAwd9XiPvKvTvJ37Yh3491V44KTWL36C1uKeiLtHr3lT44OOcrDYsKVxGBbAtVUWhclp6fY4eMOnCkbIdSHTpKlZQYrU6eLv+eJFCJlnv0UPp94A7ubd9I4cXzlDPpDP4GoBoUY0aQIWMcRqoPi1bS7ic5wJDvZu/2eAoDDJb594wdo8OmiQODdK3B8pBhMq9NsizFCCpcxQZ/XfA7DCrPxmXdh/fLy5szaVXjumJVI+NTWMDwTzijJ2q0BfrsHj7g4KCCfx2WY1qpTDPYpvAqoAAAx7ioBsWkZnvAEEq1aJH/NBlIRnz5ghzpImjDbDYRLFMFNbYt/Xdo1LZH87M/epx4f0omq8eCRlHhKkb4K8PXhlEXcIWQ7OvcKd5Yr5nt/0IvUM/e5EyaHjcwo/+rXfvEHZVIAzOOpNC8XHnGeJPwD4Hx+LhfQfUnHBkwtymF7yBB4L4xqq6Kh4jieT+wLzarNggES4a1Yp0xrJXFS0eNNB4qXMUOjraePSFvw2ry9u6g8NIFFrT7RptZARpYZaz9yDIZgSEedwmqQMRrEmFMzZ4dMhEXwyxRxWbseOqb4M6Rg4ZUh07idJGZv4TcsROlbSFJ5OA7eed2nGXt2koexgPdvJ7/1Axwx5fjV86u4PqPY1iprlUaFRWuBAH3BRGwnVtjHzZcVJtsYEbZ9bCRcf/X5Blkc+SftHN/DAoNL18kf+Nq8rdukONE6f8y9RrxGlstW0mFoDtvMaUXrRTD1kQdVeX7sQKUt6/+nPxtGymEYJk6EkRgYDtELFo4DszgeUYDMRq1lYJAhStp8NcZVl0hf/Nayq79ksIb1fkPDCHZABw4SinzwS/EhSNR3ocCvzIooee1ffGbvxEDX7lrMQDuVDBkMLP83XgjTdjditg03b0tbQloDkdgAFs0k2AOGda55M/+mRS5iHtMwta52FHhSiJBIH1JYiG1ZR1567/m/36GXSH/BxoYEa80pXCRPXgYZd7+SezAkaQjFrw2KOBApeeFs+R9/Rn5h8rjjbYBgCmrTFmeNF2aXMXvLmEBAVxiYHnmbVwjo2hyT1F4YfDEAEVHfQdI35s7dZaUtsuJQQKb7osdFa6kwl8r7rnggh1UXWYBW08B7mbQ/2XqyAVlwyxWaMhE8QbuwGAym2qRtHEZL+TuBYa5Hsbro/+rPtoUUhbZnbrEgjVxqhRhyPgZlLcnCDGZ3rdLbJow3iW6c9tsA7htk4OKTBYrjPlxevWNi4w0yypYVLgST46igDODC+coPHOC/P17KDhxNC4sMAguuO2+/WVjQO+LM2BQPNYhQUiV5+ULMmctqNgfT7p+nQ3YQtl1u3itJs+Qfqzfz21KCgisXjyPn8eKfdKXhXEzpieD2/0HclDFYlU2noMqXufOXbVasAhQ4WpCYFPAzCcfoz3QB3PudOyMbhAMKHQxj2jMeHJGjCGLxSxp1Ye5B/fjURoYU8NBAsap5LyXaFPgdRDn+EHDeH3GkTuaN1M4lCSpP47XR46xz56ikIXdh2hVnjV2RyigiKhjZykkcsdPksILu1uP5FmZJRgVriYInCHEfWPnVvLPnqCo6mqcGRh6FLARI4OQ/i/0HvUfRFanzsnq/0IpN6+zv39v3KZw/gxFt27GFYjfAZwY7F59pa1A7rFGjyXLTdaRoDQQ36iWfix/91Y5us75vrHnThqIMRMN87FYrNzps8WmKVFWWE0EFa4mTO4xb6zluym7cbWUeOfg9fYymUF9gY2kQyfKLHubN+sZZPfoJX0ziWtgvn8vHlOzZztnX5Wy7rJho4ilpJn4CGIOWnr+EnJGjYvXIEGgKR5rEFaejvuxdm/jNXiU/9QAuGtt0ZKsLhwsjSqjzIKlUiykFC8qXE0d/voDTOJF/9eazym8wgIGd22TFlIMsq70krfInTIjdtdGtpGQy3GUeGOyMAo4vM3ryNuwKu5L4szTHT6SMu/8TGyzEje0E83xnMnjqBSzsVAx2FBVl98LB0FWmzYSGKWXrJQGeb3DKn5UuJT4qAYl9A/vk7dlHWXXfUXh+XP5Dw2BqNh1xbIovWi5GJiinD4pyGuGX5xpoTk8PHaIhaqVDBr8/aiRJFWxoVXgzi2q+fBvxW0ElYMyasTgdiPP07iJVPI2BwZox2jZKl5npehR4VL+AO5l0JeEBub9u8nbtE5G25sE3nuYIOsMHEoujs6mzSYb1XQJ2tTlmBCuJvkjrET9bCxY4c1q8jmDx7FgdOsGRSgAMpjBp5o1E6HKLFpBNioyUSkoQx21HyspqHApdcH8r3t3xVDWP7iX/D07Kbx7y9xwPt7Ipf+rZ2/eeEZQZjqLFxzoETErhQlvI7UBD7wcw4uV0lBsrGeQwcRuadTm58UZM0EMoOW+0NIsK2mocCnfi1yqV1+l4PRJ8iv2UnD0UHzkYyp6RkaCzWjwsLjabsJUMZWVIx+lYEBWhbJ/OIegCTtiAcsFnFUaQhwv+LlwyiaSO3os2fy8YD6WklxUuJQfRY5/zpykANnX8cNy/yUCZhCUMaNJFBOYnRGjyJIx9MlqYC4qUHjx5FE8aoTFCv1YMpnAZAMxBzbIqtDrJk3tY8aR3bWHZOxKslHhUl4aOB2Ep45LOTNsjdCTgzsxk1hdupI7brKY9+JYSAZYumjQ1c3KCBCs50/lWBBOLOIryIGM0ZH5thMPzuzbT0bmO7AS695LqwWbECpcyiuDqFpGp6/5gvxjh8TqSEbbG3yUrI6dKT17gfTkwI2DWrZOlsNEAYLm6dz9uxSwYGVXfS53WVhzmb5t4rtnwUKRhQQvnGGVvPMz/vdu0lagNC1UuJTXgx+bCBZSJ49Szd/8ZwouVcb9XyYfJ8siq1Vr6YNyF68kmzcxibr1qKh+wXft+xQcPkDel7+TfqycqUKdWnAsyNk1XNszK96TadtK00WFS3l9+NFBpgW/Q3/3dsqu+5LCc2e+19aoQUABB9wnWLTSnH2l5yyUsR9K/QGz4CwGOh7aLxkXinZMAjssTBZIL1gmhsPS96ZZVpNGhUupF8T/ED50h8rJ37FZijnkCMkUvJGJddKAIRKViw9dx875D5VXBo3SVy6St2kN+UcOUnjtamzIbLIfi79T+S7nLCJn6AixB5N+LKXJo8Kl1BsQKlQbRhcrxX3e37dTnL9NIv1fMPAdVkruhMnkTpklJfV6fPiSeFkZL+If2EN++R4KL52PZ7gZPBpMNW9OzvCR4p5iDy0lq09/shLWqK28GSpcSv0TcLR++6b0fQXHKjgL44gdzagme3t48xMX8LIJMrbCQsTeqk2iRqjUJ7kw4KyqSkaN4GgQ0wMwQdskcBGxWaTcsvHynYl/I3+P6nihfBsVLqX+wd0X/slClbt1k7wdm+Pjpsoz4odo1IHDceKptpOmSxSP6ba4M1Hy8HclU7IvnCOZHwbXiysXjVs0Wd17yf2VO24SOeMnk9W+Y/5TRamLCpdihOD0cfK2rJcjxOj6NYow1sKkHVCr1rIpSv/XiNEy/0su+Zsq6Md6+oRCuF6wWMFcGTZN4qNoCjsea+MMHELujLkym03K2xXlR1DhUoyBOzD0f/kbV5G/bxdFD+7HAywNYrVpK02rmeXvkj1oaHz/1ZQaVyFYLE45znxRJZj99EMKL583WynI6y2VoB07UQajbOYvlVJ3vcNSXhYVLsUsOEaEA8fZU1Tz1SdStWYc9H+1bU/pqTOp5M//InbfaCLihSGWwZGDVPPFx+ItKFmvyS0A/VidupC7cBmlP/gF2ZwJa++d8qqocCnmgXh5Wcrdv0fBmePkrfmS/GOHDfvccdTfvLlE/ekZ88hZvJKcHj15E01mf1DuxTMplvE2rRXBglWXNIwbBNWe6WmzKY0Mq2dvotZaLKO8HipcSuMhvnfPKLpRTf7RCvK3b6Kg8gzlnj3N/wEDIPvq0Insvv3Ffd6ZPF0q25KyocrxLNZ211YKThyhsPqaZF0msdp1kMnW7uQZ5AwaGme46XT+U0V5dVS4lIJA5n9dOBf3fx3cR+G507H/oSFQfSiVbag8HDuR3DHjyerWI/9p8YGMNrxQSd6+nRSePEbh+bNxRaepasGUJbOwsI5S1TmyjOxefeI7RUV5Q1S4lMKBH0UMH8ToFBQOwH0DlW5mS7Obk927HzllE8gdOUbmgKXatJPMrBjIvXjBGey1uAiG1zCoKKcIGZYxwUqJYDmDhpE9ejy5ZePk33WGmlKfqHApBQeOt8I7tyjENN1dW6URFv8NGyJTYNaX3Xcgpect4ixslBwlplq2LlwB8zC1+o4ctQacsfrluyi8fi3/oRmkgbh7z3g+1rTZ5E6aro79SoOgwqUULkFA0d3b5G1cLTPAouoqiuCXZ9iZ3B07kTKLV5DNAobJusjKCqUKLod7wiePKLp6hcVqJ3k7t3CWej7/qRlSmYxkpfATTM9ZIP6CqeYt858qSv2jwqUUBTgy9NZ+yQK2ncKb1bF4GXx0xfB14lRKL39P7mwsNC83Zgk9/+wYjx8+eUz+xjXkrfk8tmgyeKwqx4LpjIwYKVnxHgvWTEq165D/UFEaDhUupTjgDRnFGijayG5YRd62jeJIbxTXJQuZxdgJVLLyA/HTaxT4lY0gWDs3U/bLTyi8diVuJTApWizaqBZs9su/iI8E4dyOSdTqK6gYQIVLKSrgtAHHDVTM+Ts2kc8CFmFsvKnH2LKkMg53ORCuzKIVZPcbaKy8G9OmfQx0XPeV+Avm4D5icPq0VF9260npuYvikfldu5OFwosm0sCtFAYqXErxwY8squfC6qsUVXIGBg/EE0fN9n9hA+fsy+7dVwQMgw4xfgP3PQ0BfAXjUTG7Yuf2Ks6yINgGwYBO+Am64yfL8WCKRUsbiJXGQIVLKV5QmMAZGDZybOpwhkAvWGT4CBHGsG7paBaw8WSPHivl9PVSTQeBrmGBPnNSsiw0EuOuL+KsyyRwvHBHlpGDnqwRo6Qfi9INI9CK8jKocCmJAEdmEDA0L4tDBDISkxZSti0bulM2MW645YzE7tGL37DXqD6EYOFI9OplCk4dI/8A/0zHKswKFmdSOALEIEeXxRjGxFbfAdImoCiNjQqXkihkttSh/VI+H1aeFTspDEk0RcpxyWIBS8+YQ+7U2XIXJvO/XvIOCBkWWgCCC5UU7NkufWzSAgAzXBPAw7FF/g5vyHBKL32b7AGDm/YIGKXgUOFSkgc/0tH9u+SzeGW/+J1MX849fUpkUsBQJt6nH2Xe+oCccZPEDzGV4Wzl++6EgkAyRBx1ets2UHbzeso9Mphh5UvbUx06kjNsJGUWLZfhm3qHpRQiKlxK8sBRW/wvFLIY+B/9PXkbvqbw5g2zJeN53LIJlHn7A/7nJEq1bSci8UdAaK9XUXb1F+LeHt4w63ghosWZImyu0ivfj42GIbKKUqCocCnJJhdR7tkzmbrsbVhN3s7N5q2QUCrfvAW5I0ZReuFycUkXs1kI7JNHlMVcsu2b4nu5mhfGxdUtG0+ZZe9IdWSqbYe4MvJ17uYUxRAqXErTwPfFyw9Hcf7+PeTDNd20gKH/q1t3OYqzR5bx38mLBevqZZlNZtQN303L+Jb0srfIGTFanPG1H0spFlS4lCYFep+imzcoPHtSKhC9vTukR8pc8YNFFgYoduoimVV09RLlTHovQrB69IznY42dRDbmY+H4MqEDNJVkosKlNEkgYOGl8+QfOkABeqTOnJCpwDi+SyLieNGjlxgFO6PGkjt6XNyPhZ9XjwWVIkOFS2mywFkdG3dwYK8cHaJnKrx2NRawBIEGYqffwLi/bMIUsajSakGlmFHhUhQGpej+/t3xndOp41JOn6upyX9ahLAwYXgjyvDRU5aetUBmiqnjhZIEVLgU5RvkHt4XAcuu+lyGMoofYCOU0L82KG13XRkvAk/Bkrc+IKv/oLiHTFESggqXonwTvA5RRFGtgH34q7hMPTA3fflNsFq1Fk/BzLs/k3ssKbrQY0ElYahwKcp3gYq/589kjIi3ZT15m1ZTdK2qYAUMGZU7fhKl5y+VUnurTVu1aVISiwqXonwf+Vcjun2LgqpL5JfvpqB8l/RdFcrxIaoFYSnlTJlJDioGe/SKvREVJcGocCnKS5BDBlZ9lcLTJ8g/clCMfE03MH8TZFj2oCHSi4WjQZmPhSxLjwWVJoAKl6K8ArXjRmR8CmaAnThC0eNHxhqYU82ayQRiZ/hIGeqIGWBxA7E6XihNBxUuRXkNRMAuXaDshlUUnD4eF3DAgaOhjhBdl6yOnckZNFSqBd1J08nq3jP/oaI0LVS4FOUN8Q/sEVf34OQxiu7cpNyLF7+/H3tj0I/Vug3ZnGW502dTetZ88RhUlKaMCpei1AO4A/PLd5H39afkHyqnXE2WKHqD7As2TLBpat1WnNvdRSvI7tlb77AUhVHhUpR6Au7uuceP5O4r+9XH5B8sz3/y6qDQIjN/qYiW1a0HpZo113ssRcmjwqUo9UkUiX1UdLNajg6zX39G4aVKynkvN7IE91juuInkzpxHzpARZLXvwJmXG2dgiqIIKlyK0hCEoQyJDC+eJ79in8wAC69cii2kvgM0DItr+6Rp+flYPeNhk4qi1EGFS1EamKi6igLM/0L/19EKilCB6PuSRWGgozOqTHqxXBYuG76CLGKKonw/KlyKYgCMUMHQyKBiP/mH98fuG3C9GFZK7rRZnGWNkQGTeiSoKD+OCpeimMTzKKy6zJnXIaI0Z1tzFpLVvAXrlQqWorwsKlyKoihKUaFNIYqiKEpRocKlKIqiFBUqXIqiKEpRocKlKIqiFBUqXIqiKEpRocKlKIqiFBUqXIqiKEpRocKlKIqiFBUqXIqiKEpRocKlKIqiFBUqXIqiKEpRocKlKIqiFBUqXIqiKEpRocKlKIqiFBUqXIqiKEpRocKlKIqiFBUqXIqiKEpRocKlKIqiFBUqXIqiKEpRocKlKIqiFBUqXIqiKEpRocKlKIqiFBUqXIqiKEpRocKlKIqiFBUqXIqiKEpRocKlKIqiFBUqXIqiKEpRocKlKIqiFBUqXIqiKEoRQfT/A/jvGRijljlqAAAAAElFTkSuQmCC;" vertex="1" parent="1">
          <mxGeometry x="1007" y="609.53" width="65" height="60.47" as="geometry" />
        </mxCell>
        <mxCell id="VnHRzEKTD8y2LnNAsG4Z-92" style="edgeStyle=orthogonalEdgeStyle;rounded=0;orthogonalLoop=1;jettySize=auto;html=1;fontSize=15;fontColor=#000000;" edge="1" parent="1" source="VnHRzEKTD8y2LnNAsG4Z-78" target="VnHRzEKTD8y2LnNAsG4Z-91">
          <mxGeometry relative="1" as="geometry" />
        </mxCell>
        <mxCell id="VnHRzEKTD8y2LnNAsG4Z-78" value="" style="shape=image;verticalLabelPosition=bottom;labelBackgroundColor=default;verticalAlign=top;aspect=fixed;imageAspect=0;image=data:image/png,iVBORw0KGgoAAAANSUhEUgAAAa4AAAGQCAYAAAD2hYRHAAAAAXNSR0IArs4c6QAAAARnQU1BAACxjwv8YQUAAAAJcEhZcwAAFiUAABYlAUlSJPAAAITTSURBVHhe7b1nkFxZlt938pnMgvfee1cwBe+9d+1nZmd3diiSsWSQnySRUoREKVYfGAoyFPqgFRlaicvdmd2Z3p723fDeAwWg4H3BFwre28rnUud/XtZMT1cbmKpbma/OLwLR3UjsDurme/d/zr3n/E8qx5CiKIqiFAlW/p+KoiiKUhSocCmKoihFhQqXoiiKUlSocCmKoihFhQqXoiiKUlSocCmKoihFhQqXoiiKUlSocCmKoihFhQqXoiiKUlSocCmKoihFhQqXoiiKUlSocCmKoihFhQqXoiiKUlSocCmKoihFhQqXoiiKUlSocCmKoihFhQqXoiiKUlSocCmKoihFhQqXoiiKUlSocCmKoihFhQqXoiiKUlSocCmKoihFhQqXoiiKUlSocCmKoihFhQqXoiiKUlSocCmKoihFhQqXoiiKUlSocCmKoihFhQqXoiiKUlSocCmKoihFRSrH5P9dUZSGhF+16M4tCk4eo/DCOUq5LjljJ5I9aCilSprl/5CiKD+GCpeiGCD34D4Fl85TcOQg+Qf3Ulh5hlIOC9fEqeSOnUTO8JFk9ehFqeYt8v8XiqJ8HypcitJQ8KuVe/GcouoqzrKOkr9rGwWnjlH05HH+D8RYHTqRO2UGuZNnkIPsq0NHSmVK8p8qivJtVLgUpb7BK+V7FHGWFZ4/Q9nPPiKfhSv37Gn+D3w3ds8+5E6bRekZc8nuN4BSLVuxqtn5TxVFqUWFS1HqE2RZNS8ouniOXvzjr8jbuZUoDPMfvhxW955UsvQdyix7m1Lt2rOiQbxS8YeKoqhwKUp9kWOBCs6cIG/tl+Tv2U65x48ol83mP30FWKhw12V36Ubp5e+SO3shWe07UCql4qUoQIVLUeoBHAl62zaRX1FO4bUrlHv0MD4yfF1YpFKOQ6kOncju05/Ss+eTO3EaWZ275v+AojRdVLgU5XXhDCu6cY38fbvIP3yAgnOnKbp7hyjw83+gfkhlMmT17COVhxAvd8w4SrVtn/9UUZoeKlyK8qr4vvRj+UcrKDh2iILjh1nArlPOe41jwVcg1ao1Of0HkVM2npzR48gtHUOE6kM9QlSaGCpcivKS5KKIont3KDp/jsXqEHm7t1F46cKbHQm+BqnWbVi0RpM7bTbZQ4aT1asvWc2aq4ApTQYVLkV5CXJPHlHAWVVQUU7+9k0Unj1JuSDIf9oI4A4skyF3+lxyZs0nd+Bgsjp0plQzdeBQko8Kl6J8H/xq5Hxf+q/8A3vIW/UpBSePN/iR4KuSatuO0jPnUXruYrIHDyOrOWdftpP/VFGShwqXonwPEChYNGV/+7fknz0VNxAX6utiWeLAkebsK/PWB2T3HZD/QFGShwqXonwLCFR45gRl168mv2KflLZLllXor0pt/1ePXuROmi4CBjGDqClKklDhUpRaamooqDxNHjwFD+6l6NYNitCPVWy4LlntO3LW1T/2P5wxj+xOnSil9lFKQlDhUpo8cLwIz5+l4FA5BUcPsXidoej2zfynxQsamK1efcgeNpLcsRPJGTWWrC7dWMA0A1OKGxUupekSBBReryL/+BEK8z1ZyLIatVqwAUil02QPGCKzv9wx48kePFQyMkUpVlS4lKaHB+f2exRevkD+gb3kbd9E0d3bImRGQL9Vbc9VFMX/NADc5p0hI8idOpOc0tFk9+lHqeYt//B3UZQiQYVLaTqEIeWePaGw6ooIlr95HQUsXiZJpTNSvm61a8dCGVLIgpl78oQF7NUc5N8EFHA4w0op89b75AwaTqmOneL5XypgSpGgwqUkHzzinE0hq/L37qDs+q8pOHU8/6EhLEtG9dv9B1Fm0XJKz1lE0ePHlP3yI874NlP08H6c8Zl8HfnvlJ42i0re/1OyMcAS2ZeMUFGUwkaFS0k8Yc0LCrZvIm/151I1mHtRw79p9h7L7t2PMktWkjtzHlldunPm5YpIYexJeOYkZdd8Qf7+PRTdv5v/vzAEKhBbtCR36ixKL3uHnBGjKaXipRQ4KlxKYsk9f0b+wX2U3bhaqgZzd++wULBomXrkLTueqbV4BbnjJ5Pdq68Y5ZLzx64WuZoaynHGhSzQ27ZBjjFzT5/kPzUA7KNatiKrW0/+e04SBw5nyPD8h4pSeKhwKYkDDcPB6ePk794u/wyvXeUs67m5QgjOWND4606eTu6UmeQMGExWx06c3aTzf+C7yT15TGF1Ff+dT1Cwf7eIrlGhRfl8uw5kDxwi1Yfu9Nlkd+9VR2gVpbFR4VISA8QpPH9OhjkGRw5QiPlYLAbGgO1Spy7kjBgVl54PH0VWv4HST/XS8OuIv3NYeYbCYxXkHz4oU5VzL17k/0DDg/J5DKx0+O+P3i933CSyunT9UeFVFFOocCnFj5el8OplyVRg0RQcOyzzskwimQpnVs7oseTwRm8PLSXLdfOfvgacHeK40D9yUApKcA8WXr8mx58mwfRlZI4QMDHwZWHWOzClsVHhUooWcW6/e5vCS5Xk7d5O/r6dFN02KFi4GyppRha8AUeOofSsBWQPK5Vy8/okunOT/PI9/GuXTFmWuzqDDvUQKoiWM212fFfXozdZbdvlP1UU86hwKcUHStthhHujmvxtG8hb93VcTh4a6oWCYLlpSrVpIxOJMx/8Qhp6Uy1a5v9AwxBVV5G3awv/zBsp4AxTCjhMNjCn0+QMHUHpJW+TM3EqWa3baP+X0iiocCnFBT+uYfVV8jaupuwXH5svH89nWeh7Knnnp+TOXvhqd1hvCn7+WzfI37CKaj76NUWGxQvg53c4Ayv5039KTtkE+W8VL8UkKlxK0YB7K2Qb2S3rxa5J7ntMZhw4MhtWSumFy8mZPIPsdu3jTds0nFlG/LMHt2+S/9XH5KOB+cE9c2shGacrGaY7bjJnYCulkAMl9YpiAhUupbDhxxPzsbztG+PydvRjcZaFxl2TOEOHyx0WMgyrey9KtWnb6C7rMAPOsXiFl86Tv2c7eQf2UHTjev5TM6Avze7aTRqX0VztjiwjagwxV5oUKlxKQZLj7CF68ojCIxUUoCgBVXW1/VimsB2yu3Und8YccqWqbjhZHTrK7xcSuZoXcv8VnDpG/oF9FBw/HJsGmwJtAG3bkd1vILks7M6EqWQPGa7Vh0qDocKlFBb8OEaPHojThX/sMAWHD1B4+jjlPE8+MwIacTt0ImdUmWzE7thJ0tcEe6RCRhqYkX1B7I8epODE0VjoDa1bigUd5fJ26WhpC3BHjyO7Vx9ez8JeN6X4UOFSCgYZmV91hTfcI2J7hPlYRq2P4HiBycGcOTgob586S4owiqrwAMLPawax93ZulX+ixw1ZmTHhh4BxZpqejvL5KdLfJg706Uz+DyjKm6HCpTQ+vkfR3TsUnDtF/tYNYnVkemR+qnUbsrt2jycFz5pPzrCRxX3UBQHjdfW3beI1XU/hxUqpwIQvokkw8wt3g+6EKWTxv1ut2qiFlPLGqHApjQfmY714LvczNZ9+GDcQozrOFPnqOGrWnLODuZRZskIGLSatuCD39DF5W9aRt2F1XNwC8TLV85ZHilvmLRUXethHSfalJfTKa6LCpTQKOd44g5vXyf/0t+RtXiuzqWTUiMHHEc2zyLBK/uyfkz1gEKVYwFBokDiwplEoriL+zi1U8/Wn0k5gFF5XNG3DwDe94j1y5y4iG+utKK+BCpdiFFQLhpcvko/ydt5E0Uxr3AGiRQvJrNJL3pLiCyltRwaQRNH6JhwY5J49E8/D4MAeyq7+nEIOHkxmXzIBun0HuUfEfDJn4jSZB6Yor4IKl2IMHAn65bvJ500TR1ZihGty08TI+qEjyJ0yg5xR48juEfdjSUbSlI6tfF+OZFG04cNCavd2Ck1+FynOvkpKyOreU+Z+pWfMjS2z2rbP/wFF+WFUuJSGJRdRdP8eBfv3kH/0kMzHiuByjio3U9i2CJY9dhK5o8rIGThEyt2b+h2L9Moh+z17kgKMgjl2iCLOgI1mvy1bSdWhi/J59H8NHlbvJsVK8lDhUhqGKKTc40fxUETeEDGW/vdl2aZwXLJ79mLRKpWqNnvUWB3L8R1EAWdg585Iz1xwtEIc6KN7d/KfmgGDNmEbhdlfNuaA9RtABANfRfkOVLiU+oUfJzheRFVXKJRR9BvJP3nU8D1KmlKYj9U3niWVnjqbrM5dtBH2R5BBnGdPSf9XcPwQhVcuGW1gBlbHzhJkpKfOJGsAZ8Zdusn3qSjfRIVLqTfEeujBfRnk6G1aTQFGzwdB/lMDcCYF41e7Z59485u3hGxE7sorAfPikDPlmk9/G/d/3ct7Q+YMHSHCQqpNO0ovWEruzPlk9+od938VuHOJYg4VLuXNwZ0IC5R/rIKyX30irhdGHS9wVwXXi3btKc0bXWbpW+IrqLwhvDVgeGXNx7+RI9/cM/MjVKz2HSiz7B1Kz19Kdu++4srR1O8mFRUu5U0JAworz1D2i9+Rf+gAR+e3ZTKx0eMljNfgjS29cBnZ/QeR1axZvMEpbwwyLRmhsncHeWs+j/0PDR77Sv9XOhM7cMxbLL+szt3yHypNFRUu5bWQDe3KRcqu/ZL8wyxYd26J16Dp8nY4MWTmLSK736A/+OFpRF6/8BYBA9/oZjV/1wfFhSM4dTz/oRnk3rJNO2kUT0+bzRnYEkq1aKXfdRNFhUt5JSKMzb90XkaNQLDCC+ek3N1ohtW2HTnDSsmdNJ0cVAr27C19QegPUhoQDkqk/4u/c4xO8bZupPB6lRwTmwKDO61uPcgZNJTcKTPJHjeJrAKYjaaYRYVLeTn4McE8LP/YIQoO7afw1DFxYDDreNGSnIGDZZijM3q8bF7SQKyYBeXzMEU+WkE+C1hwpEKyMWPDPTnLgsck7jFtGZ/Cz8KQ4XLHqRlY00CFS/lh0KR67w6FlWfJP3KA/P27KbpymXK8eZlCNql+A2VsPkbFY+QIyqaVRgbBTNUV6dELDu+P+79Mu6EgmBmB/i9+LkaVkd13gDQ1K8lGhUv5buBr9/QphTeuSYblbVobNxBnzY3FgGClMB+rT3+5lHcnTlXHiwICW0eKvwsUa4QsWv6ureTzsxJVX6Xo4QOzx8et25AzZjylZy8ge8gIsrt2I8J9p5JIVLiUP4YfB4gTIufg6CHy1n0lx0FGy6AdRwov7G49ZCNylr9Ldmu9xyh04MAhk6vX8jOzdztFDx7EgY5JAWvbTqyjMu/8NJ6+3LI1pXT+V+JQ4VL+CDSfwreuBv1Y5buMbjq1oF8ns3C5uLfLyHylqJCK08sX6MXf/TX5B/eatfkCuAPjwCezYBm5P/kzcrr3pJS2RyQKFS5FgMMFJg/7G76m4PgRccAweSwI4NaenjmP3Blz47sKmK2qr2DxgS0FBRxPnlB4+jhlv/iIs/YjcbuEKUS8mpPVsQs/U3PJnbtYevw0a08GKlxNHd+j4OQxym5cQ8HZkxTdqDY7HwsbTOs2ciSYRnkzNpf2HWTIo1L8YP4XKg5Rgejt2sbP2lHJ6o0BRxWZ/zVI7kjR9ydHiEpRo8LVRBE/ussXKDiwl/wjFRRUnqYcR8hwdTcCBKtlKxnk6LBgucNKyerei1JwvVASR3T/LgUXz0v/FzwsQwiYyepDDoSsrt2lbN4ZPU5mskmhj2ZgRYkKVxMjV1MjVV/BiSNSAQYLH4x050/iP9DQ8EaBCjBkVthApCdrxGipIISYKckFQgXD3vDUURmhgvlsESpVOes3BQQMR9LO+Mn8/I0lt3SMOHLokXRxocLVRJBN4/YNCjF3qaKcfP4VXr2U/9QMOBKUTQP9WBOmkjNuEmdYzfOfKk0GPIsP78fl85zxo0cwunubcp6hBmbAAZQzfGQ8fXnEKLL69BdHeg2eigMVrqQTRTLQ0b9RTcGe7eRv3yhzlsyVt6c4yk1LPxai2/SseZJp6Zj2pg22HfSA4f4LPYJ++W5+Li9SxM+q0QZmxyFnzARy0SfIGRiOD3UCc+GjwpVUIFi+H0e2OzbLuJGwukqKMYxh2XJn5fQdQJl3fyaX4ypYyneB/q/s+q/J42c1d+8OZ1/8nBrcmuDA4Y6dSJnl70ojcyqTIZ0wULiocCUUHL34nGFh3IhMsoVFk8EmYkSyVveelFn5AaUXr+SNoUXcS6NHMcp3gUDLy1Jw+SL5676SxneMUzEmXnguOdCC3yEKhjLv/5wczHTT5uWCRIUrYWD8BO4NvM1rKTh9nHIPHxq9/MYlN2YnYXKtO3MeOZ27yt2WCpbyMiDTyj24F4/M2bSWvJ1bzA4lzZ8SoIReMrBl75LVf6C2ZxQYKlwJQRwv4Cm4d4fMShK37qcGGz4ZGZk/ZQa54yfzyz6IrE5dOMvSai3lFeEtSWzHblSLByLEKzh2WEaqGIMDLdhH2X37k1M2kZypM8keMJgsx83/AaUxUeEqZviri1DefuaEWOugtD04f1aKMYxhWWRzViVl7aPGklM6muzuPdXgVKkXcs+fU1h5Wp5tVMLKKYLRDMz6Q/8XZ2A4RrR799MThEZGhatIgX0O3Nr9k0cpPHyAgiMHKTLpeAFHAgx0HFoql9kobYcjAQb9KUq9ggDt0UOxj8IxOJxewkuV0pNo6g5M7mx79pbTBFQhOkNHxKN19EShUVDhKjJwhJK7e5uCMyfJ37uTvD07KPfEYIbFkWaqVWsRKQfl7XMWkjNsJOXw+xqFKg0JBOzBPTkSz+7aStH5sxTdvG60AjGVzpANAePnHndgFr8HVqs2WsRhGBWuYiEKKff4MWdZF8nbton8nVso5JfWJDI2HVnWqLHkLlgqTcR6h6WYJhdFFD59QuG2DeRtWCXDLKMnj4l8c8NNEcC5I0ZTeuEyOXGwunSLTxvUQsoIKlyFDr4eiBZHmjWffyRmuLi0NkqKX0YWKHf8JCp5+yfkjFXHC6UwiO7cJm/jKn4vVlN46aK8K6ayr1rcCVOk/wtTmHEaoeLV8KhwFTA5fgnD+/co2LCasmu/kJdUZhsZdBbAEYgzcCiV/PTPyCkti53b3bREnIrS6KD/K1sjvYpotPe2bqDw2pX8h2ZIpdMsWG3io/MlK8mZNJ0sPTpsUFS4ChH+SsJbN8jft0tKgTGUD+7aFAT5P9DwIKNy+g+KjwRHjyOra7fYCsfSo0Gl8EDzcg4FHJcukL93B2U3rZH/NpZ9cZYl78yY8dT8X/63UkavNBwqXAVGdO8OBYcOkL9/NwXnTlFUXSUTZU0Bl3YMcXQmTiMXlYIDBpHVrgN/oBmWUvjE/V/X+d05TcHBvVKFKP1fhk4p4LbR4t/+r2QPHZH/HaUhUOEqENCbgsnDwbEK8g8f5MjxvPGBe3avvmSPKpMMC5WCVo9eOjFWKUrg0xleOEfB0YMUYN7c6RMSFDY0KlxmUOFqTHjpoxfPKbp0gcIzJ+IJsWdPim2TMeDP1rETv3DDpMHSmThVyn3FV1BRipwcv18hi5ZXvouDwkMUVV2l6NGD/Kf1jwqXGVS4GgNe8tyLFxTdvUX+hUoKNq0h/+A+ecmMncmjgbhlq7ipcswEMcK1e/QkQuGFoiSMHIsVhqd6O7fKFObo9s34CL6e3zcVLjOocJkm8Cl69kwyK3/jGvJ2bBJbG2PgEjmdlrlDEKzM+39C9oAheoelNAlQsOFX7KPsFx9TePl83P8V4P6rfrZBFS4zqHAZJqw8Q9k1n5O/fTOFd2+by7DyoM/EnTSdMsveiecOoYFYRUtpSsgIFY+8bRso++HfiXWajP2pB1S4zKDCZYJcJNWB2S8/FqPQ8EZ1fCxoeNKrO3UWOShvR+FF23Y6qkFpuvC2h3cwuHObgh2byN+ynoJL59/oncQwyvSEKdTsX/33ZHXrkf9dpSFQ4WpIgoCiOzfJ45fC37+HI7tLFD18KMeFpoC3mjNyDGXmLyF7yHBKdesZD3WEG4aiNHFgH4WJy+HlixQcOSD+n0HlmfynLweO3p3ho8idOTc24O3TT6cjNDAqXA0AXgaYf8IMNMAohjMnKLxeHdvRGALNwnb/geROniEd/agaRESodjSK8h14HgeZt2Lz6kP8zh4sp/DW9R/MwHDMbg8fGc/rGlVGzsAhZLXvyB/o0XtDo8JVz8CWSZofMWrkMAvXhXNmjwQ50rN69SZ3JL9I/EK5ZeMphQZiRVF+FGlgrq5i8eL3Fz1gJ49SdP8+v8PfcK1Bkz6mIwwbSe74KWSPHCMjTtRw2hwqXPUBzsufPBaPtOBoBXm7t1N49lTsK2gImRfUtTtZ/QaRO2GyOLejH0tRlFcnx8EmBlh6O7bE5fOXL0gLS6pde7L7D6L05GnkTpkVz+RSX0LjqHC9CXmDz+jubQpPHqPshtWNM6G1TVuyu/Ugd9YCcmfMVccLRaknIGA48sc9Ne6rMcrEnbNIvQgbGRWu1yUIJMsKOLOq+ehX5B85KL9nDPRjcaSXatueMotWUGb5O2R17qbRn6I0ABFmffFWaaW1Qb8QUOF6DSLfE19Bf9Wn5JfvpgiegiZFi7E6daE0Z1eZt39CVvee8agRzbIURWkCqHC9Aliq8NQx8jatlX4sVCHlnj2VSMwUcGp3p8yQkfn2gMGUatNOynEVRVGaCipcLwMuai+d/73PWXixkqIH982Wt8PxYvxkcidOlZ4RNDjKFGJ8fVp+qyhNl2yWcs85gOZ9AFcHTQEVrh8Aw+mkH+tIhfR2oAADoxEwMsEIeBAxnK50NNljJ5E7cgw5/QbG48EVRWnS4N4tktEtFRRVXSZq3iJug4GVW8tWiQ5oVbi+Cxjh3r0jRrioKEJPB1wvUEVoCjx4v+8VmTyDrFFlZDVvzs+i3mMpSlMmB0ee61XknznF+xMH1Id5f+IAG6YDzqCh5E6ZSc7wkWShIRpTyxMoYCpc34SXInp4X6KX4PBB8vZsp+DU8fyHZkiVNJP5WLBnSk+dRe7EaZz+t8t/qihKkwUB9cMHYk/ll+8ib+cWGc9C3zwBwilNSQm5YyeRM2ehCJndpZuIWpIETIWrFl4GRC3wKvM3rZEydxwVGsO25QjQGTCY0ujHmsJZVtfu+Q8VRWmyRKGMPopuVJN/YC9lv/gd71XV8f32D4BrBnfaLErPXSx+pVaC7r9UuPLgvPjpv/mXFJ44alawQH4KcckHf0rpOYvI4ghJURQF4pR7cJ+8HZsp+/UnYif3qqRatqaSn/05Nfvlv8j/TvGjFyaAH46I03A8IDnfy/+mAWxHHC+a/ZN/QS3/z/+XMivejy1kFEVp8oQ1NZRd9xU9/ff/E734m/+bgovn85+8GmjZkbadBKHCVQsiGxRfGEpAYctU8u7PqMX/8JeUWf6e+AqKe7sadSpK0wVB9PNnMuTyxf/+76jmH/5GzA6iR28wDilnbl8zhQqXYayuPSizaLmk7Zm3PiBn9FiyOqmztKI0dWAh5x/aTzV/85+p5sO/I3/fLgqrLsdDZxMmPG+KCpdB0DhcsuI9yrz7c0rPnEd2n/5EsGpSFKXJgmM8GBtgQnr2d39P3vqvpJo5Bys5FazvRIXLIKlWrcjq1l0KMXRsvqI0cXyPwgvnyNu2kWo++Q3/+gdpwZFjQeUHUeEyCAx5az79kLzNaymsPEM5PKAaUSlKk0IaiG/fFMeLmk9/Sy/+5j/FY1Pu3c3/CeXHUOEyDCaqvvgv/4me/6f/QxoIQ35YpfxeBUxRkk2IfqxnMnC25uN/oKf/2/9I2VWfiVm38mqocDUCECr/+GF6/lf/kZ79L/8d+ft2mi3DVxTFLByYhpxlZb/8HT39t/9KhEuOBDVgfS1UuL6B1ayZuXJ0TE9+8ZzCc6fp+f/1H+j5v/+fyd+7g3JPHuX/gKIoSQBG3dnPP6Ln//EvpVpQMizOvlS0Xh91zsgjI7oP7iV/1zbyyneJvYpJxFS3Ww9yysZTeupssoeOiPu6FEUpSnIPH8h1gL9/D4UXzrJg3aZczYv8p2Yp+dkvqfm//jf5/yp+VLi+iZelsOqKlKainwIlqdGtG/kPzSAGu/0HkTt6HDnjJ5M1aBhZrpv/VFGUQiaXiyh6+oTCCt4/Dh+Q5mHcaUkvViOiwtUEyOHBu3ReHjz/8EEKz52i6Mljc6m9ZclofgfiVTaB3BGjyOrVh1KOCpiiFCri3H7hHPknjlBwYK/sG7maGnP7xg+gwtWEyD19TMHpE+Tv2ELBmRMUXjXcxc5CBVeN9NSZ5EycRk7fAZRCD1g6k/8DiqI0NmggloGzJ46St3sbB7z7Y8EqIFS4miA5z+MIao+UrgYcUeXu3zNbwp5KyUyd9IJlMu7E7t0vnnCqNlGK0njwHhA9eiRBrb91A/kH91L04H7+w8JChasJE9a8IH/zOvLXfklB5WnKZVm8UB1kEGfgEMoseZvcWfPI6tBRHOaTOOFUUQoWVAT7HkWXzlP2689it4u7t/MfFiYqXE0ZXio8sLm7dyS6yq7/moJjh/MfGgIDJ9MZsgcMpsziFTK/K9W6Tf5DRVEaFEwhvn5N+rC8XVsp9/gx5eDajskSBYwKlxJ3wD97QuG1qxQc2k/exjUUXL7ID6+57Ateh8i47L4DKL1gKTmTZ5LVIlnjuRWlUMDIo/DKxfhIcPc2Cm/dEDf3QhesWlS4lD/gc/T14B6FLFrIwPydW/mBvi6/bwQWqVQJC1jPPmQPGkrp6bPJHVlGqQSN6FaUxgbl7P5+fr/5HQ/Pn6Ho1s2iEaxaVLiUuiAaq+bs6/gR8ivKpQ9M+r8MPtypZs3JGTpcSujdsZNEyKSAQ1GUV4e3RThc4J0Ojhwk/9ghiq5djYuyDJFKp/k9HkapTIbC69ekcvF1SZpw2X/J5P9deV0487HatJV7J1T/Wa3yFX/ZGso9N9R4iLN3frCjK5cpuneb/7df8F/LIqt167iAQ1GUHwfXAI8eivmAv30TeRtWkX9oH0W38zZNJnAcmdXnTphCmflLpKcTrhtwlH9dnNIx5E6cmv+v4kczroaABSs4e4q87RspQAPzjWrp9TDZiAgHDnf8FErPWUB234GU6tiZUnDg0DswRakDHC9yT55QVF1F4ZkT/O5ukizL2LE/gwwr1a492b36UXrGHHKnzyarQyf5u9R88ls5yXld9KhQeWnERPfsSZnBJRNNOZJDTxjxS2IEZIKt21B6/lJyFi4jp3svsnB8yBGdoigxaGuJHj0g/2gF+eu+puBQuczMMgYqhZs1J7tnH0pPm03p5e9w4Nk5/yGRt2WdCte3UOEyQRiSf+QAZT/8Ffknj4qllGkQuWWWvkXpRSvIQgOzZl6KItWCqAzOfv6hmOE2huMFjgIzC5ayYL3L2Vbf/O/+ARWuuqhwGQJRHSyk/H27yFu/ijMwFjA0MJvC4qiuOUd1PXpRevZCSs9dRFb3nvkPFaWJAcHiIDL79adSgIEG4lzWrK+g1a49pecsJJffR3vAILKat/zO0xAVrrqocBlGLn5vVFNwrIL87ZspPHXM6LFEyk1Tqn0HcgYMJnfSdLkDS7XrkP9UUZINxopEVy6St3Uj+YfK5U4rwv2zqcILtLC0bBmPLpo1j9x+A+VYMFXSLP8H6qLCVRcVrkYAxxPR/bsUnT8r0R4aGqWBOTQoYPyiWJj/NXSEVBu5ZRPi/i/1P1SSiOdReO0y+Qf28a+9Mv1BbJoMtqxY/H45I0aSO2Eq2aVjyOrTj6xMiYjZD6HCVRcVrsaEM63o3l1xk0YFE8aooORVCjhM4brkDB5O7phx5IweT/aQ4VLZpHdgShKQIBGVgiePkn/kIAUnjlB45VL+UzPAks3hzMoZPZacsokSLL5Kj6UKV11UuAoB/gqi61XkYXwKBOzCuTgaNFmKy5GfvFgcDcJ9w+7dl1KtWuc/VZQiA+8Uv0PBhUoJCIP9u8WyKWf0ncrIHD13+Ch5rxx+r8QY+xVR4aqLCleBEV6sZAHbTH45v2iYnProobyEpkg1b0Hu2ImUnreEnGGl8fwvHGcoSjEgPqJP5eTCZ7GCETY8RXFUaATcYbkupdp3lPFD6QVL5GgQVb2viwpXXVS4Cgz5OqJIJql6qz+XJmaYeUqkaPCrghMIBCzz/s/J7j9Y+kz0/kspWPjdwDuS4yzLR3n7l7+joPKMuaILUNuP1aMXZVa8T+6cRbGLzhseu6tw1UWFq1Bh8ZIKqKuXqOYff0Xerm1xua4p8LKhhL5FC0rPnEvNfvrnZPXoI3diilJo5B4/Ir9iH2XXfEHBoQONMmoENk2ZJStl4KvFGZcEevVwV6zCVRcVrkIGXw1HkdHD+xRWnqbsqs+liAMvqTFw9NGipZTsivv8vCWcgQ2ilGXl/4CimOX5r39Nz371K/n3Zr/8JaUH9iF/01opvMC7knvxQj4zBQRL3o0pM2XMUH1PJ1fhqosKV5GQe/5M3KmDU8fI37eTH2J+SU0KGAsVxMvuP1Aqo9KTppKFI8R6iCgV5WV5+ld/RU/+w3/I/1dMevgAstwwno9lcDuTYG7aLHImTiVn4FBKdejYIPfBKlx1UXf4IgGNw7jgtbp2Jwueg6hOwnHig/tmzvF5Q8Cld+72TamADG9cJ3r8kKw27SQjq48jEUX5MR7/u39H0d27+f+KyT15SlbakGAhgMP97/Q5lFnyNqVnzCVnaClZ7TtQqoE8QNFzBq9TdYf/AypcRYZMPmbxgqcZHODlWALOG+j+N3Gmj6otzvSQ/UnVI6LcbI24AaD8Fy+2otQrCJo8j6KqK/Tit7+l6PG3vD5ti+xW/Ow1JByYWW3bkT1sJLmzFlBm4QpyJ00Tn0GZutCAqHDVRYWr2MCdk9w7tZDOe3vEyD+M7EflIQbdmcjAIGAPH1Bw+oRsKPERDf8dcFSSzsjfUVHemMCXMflyRL5lPQVnTlL0kIO0b+C0yZBV0nATD6SBuC/mY02l9OKVlF6ykuxuPShlqMpWhasueseVEHL37lJ23Vfk7dlO0ZVLFMGB3qSFlOPE05cXLI0dOHB00pwFVVFeBxyD8zMcXb9G3s4t5G3bQOHVy/JR+LiGf8V9WTaLVkNlWzjdgGjBVSY9d7E8343RlK93XHVR4UoYOMITAdu4hsLbN+Lsy+BXXOvAkVn+HrlTZ8rdnB4fKi8NjgU54ELhkb9htfRjYbK30flY/Lzi+M8ZOpIy7/6M3HETKdWmXf5D86hw1UWFK2ngCK+GI9LL5/mBX0/epjUU3b+X/9AAOMZ0XPE7dEeOocw7PyWntIxDY21eVn4c2DT5u7ZSzRd5wap5EQdfhsAUYqtXXyp5/+fkTp4hGRee58YMvlS46qLClVBkquuDexRcuUjBto3k79hMkcly4fz8L6tzV/FqSy97i+wBQ2IHDkX5FqiO9Q/uJY+f1eDcaRawO3K/ZQqcDNi4x5o+l5zps8np2i0+Fkw1/mmBClddVLiSDH+1kZel3LUqCitPkbdnBwVHK4xnYFbrtnH/15jxlJ4ygwVssBRwKEruxXMKKvbJ9OHg5DEKq6uk7cIkdp9+UiHojp0UN9d37V5QxUUqXHVR4Woi4MglPHeKgmOHyT98gMKzHNU+epD/1Awo44dxr8sCZo8aqw4cTRUEVC/4eTx7kgKMGsGv82eNO8KglL12nI8zqozsHr0L0tJMhasuKlxNBHzNiCKxOUhpcfnueDbR5QtyJ2YMFiq7e09yxk+R8lxn0FA5TtQCjqYBsim4tftnTlK4f7cY4kqGZWobcpy4H2vgEHJHjCZ32myyMMKnARwv6gsVrrqocDVRcFyII5rslvUUsXhFd27FAyxNPQ64U+jeQwxJZSIs+mJwp9BA7gNK4wKDaAxNRdbv79kux9YysscUqBRs0ZLsnr05uxpL6flLJGgiu/CfNxWuuqhw/RjoJ0FTL/8zVcJRmZWg6jj+6iOOdv3tm8hb8zmFV69Q9PRx7MRhCt5QHI5+M8veIWfsRLK6dIujX83AkgGqXJ8/k8ze27SWPH7Wont38h8aAFWuaIjnLMsdPY7Si1aQM2FKQd1h/RgqXHVR4foRYGmEgXTIUGS+Dhprk7ap8iOQe/SAsuibWfWZdOobBZsI/8JI85KVH4gPXKpN2/yHSjEDt4fsp78lb+sGCm9eN5fR50E/ljtxGrlv/4TcsglkoSioiEQLqHDVRYXre5CjtEPl5PFmHpw9SbkwkuOs9MKllJ4+lyz+90TBGSWyrxxvLv7eHZTl6Ni0gKGHRux1howgd95icmbOI7uA7x6U7wENxHduk7dxtWRY4Y1qyj17Jr9vDNsmt3QMZd7+KTnDR8pEYvHSLDLRAipcdVHh+hbIsFAy7u3eFs/3uX1LjjoEjt5QieQMHk7paTPJ4UhOBsYliJzvSU8NJjCjRBn9X+GdW+YiZd5YYBWFI0NnCK+zWEiNk+MepbDJIfiBr+C+XeTv2kLB1cuUu3cnnt5tCBwzYyZWevEKckpHS6WgTC8o4lMSFa66qHDlwTIE2KgP7qPw9DEK4ff38LvLxbGxyiUvvxjuuMnkjJ8cN9YWYTT3fcj0Zc6+YGqKzNOv2M9Z6F1z91+4TOd1dgYPIwfVX5OmSSWYbEJKwYHiHsyIw/sTnDxKURWLlmnB6j+Q3AlTxKnFHjqcrLbtE/FOqnDVRd3hhZyM+q751V9LoQLMPMVq5vvAVGJUSFVdkQgTLumSkWDESNrld6X4XxbY3ODFx3RXq1v3+KgFPS7Pn8dr09DxDv7/Y5QFi6eYBt+9LaNbUo4tQYJ4ICqNDioDgyMHJDP3t64nn4MccTHn7MsIHODgGcX04fR8HOPPkbvSJAWS6g5fFxUuwHtkmM1Szd/9tQjRS4ONFUcjHGHieC3ibASFG4j+knK0hdENMvl48HCyu3SNL7dzvCnxz26q/0uapyFeHFBIFgzvOnjKNWshdxmKYfj7h+NFeP4sBeW7KLv6c/J2bZVAjvzYtb3B4ffM6txF/DDTcxdSZvFb5IwZR1brNnidExE8IniTu3Y0aJ86FgfIr4mONUkivAQBv4hP/+LnHN1fzP/mqyMjECZPp/SMeXHU165DfCGcIDBqAnd/GDPhHz7Ign2PN7EfyE4bABzTYo3dGbPJ6tmH172tsdlITRp+T9CPlbt7R+5As2s+lyNk/J4x+HvGcTHuQNP8rmWWvBUXSsEINylgnZ8/iw2HK8qlyAVON7h/fl30jiuJ1JNw1WK1a0/paXMovfwdsvsPjsWriC+Hv4vcYxwRHaTsFx+Tf/q4ROAU4njIzOOUsh3evLryGr9H7vwlZCNI4CwsaetcMAQBRZxho8LWW/0Z+ds2Gr3DwrEfjqqtDp3JnTCZMj/5hUwBT9T3ja04DDg4fMpB4X7KfvwbCirP/PC1xUuiwpVE6lm45GzdcciGF9q02VTy0z+XasTkvWRxcynK51/87u8punwxbtY2Ba8n7rpgGYXxKelZ82P7KKXeQWFAdu2XYhUmJs0GndtBqmUrDgZnUWblB2QPGR7fcSYtGHz6mIITRyn71SdS5FJrfCDv2huiwpVE6lu4auGsINWypYhWevYCysxdRFbXHgVp5Pna8NqJ/9yd2xQc2EOYARZWno7to0wh/nPtxcLHnTFXGk6RjSlvDgoDvNWfx8bM6MdCa4jJ+VjNmslcLHfWAunHEgOApPX2cUaFOyzYr/kH9spd1u9bcOoJFa4k0lDCVQtnYOKM3m8Ab6rTyZk4lawevRLlwIHHSO4+Ll+g4OhB8vftlmMlk8Tzv7rFDvSTp0urgjpwvAaomr11gzxUCR6poPDiubgoxlQrBI4FS0rIGTVOsiybv0/px0LVbhKKLvLkOAAITx0nf+92mdqAambM0GsIVLiSSEMLVx45o+/Vl5yRY2S0hzN8FFnde+Y/TQB4lHAXcvsmBaf5hawoj1/Ia1fMlUczMOtFE6pbOpocGPjCOaF5C97zkrPpNQTYSKV3D1VsHHwER/m7u3XdbIbVoiU5AwbFxsulYySLTrViwUqSR2jgc4B3kTzOrsITRyTAk8GZDbjOKlxJxJBw1SINzNhYx04gZwz/QgVi68KYtlpfyATmG9coYPESATt7inL370m/nBEQtaOBedRYcnidYf+DNZeoXflj+PmXto7zZ8k/yhkWvq+LlWYFq6RZvqmfxaqMvy809csE4gRlWHDIv3VT5pCh380v3xPfFxqwwlLhSiKGhasWNEkiooStkRyH8IubQm9Ski6dcRxy4Vw8kv04R/C8vhHGWZjMwHhTdKfNInfqLLHrQv8PRE3hR//xQwqvXyP/wD7y0Yt1/ozZ+0kU13TqTE5/zrKmzJQj3sQV2ODo9eF9CjkY8A+yYO3O97wZRIUriTSScP0eFipY1ZQsfzeumJL+r5JkRZu8xjgWyW5YRQG/vBhtYcSB4xvgYt+dNJ3ScxfJOlstOaJPUqHMy8JBAyrW0DSPDMtb/QUF5zgjrueCgB8EFaGcUVk9elNmzkJyZ8whu3uvhD3zHJw9e0YRAoPyXXHwdu50/lMz4Hoixc955v2fU7M//4v87xY/KlygsYUrj4xgmDab3OXvxaPEOVNI0osMIt+j4Ogh8r78Hfn7dsXNq4YfQUT0sAbKrHyP7L4D4ww3Yev8vcD14ulTaSKv+fX/Rz4KaAz3Y6GJ2GrTVkrbHcxh69g5eQ3kHBwEz3idt6wj7+tP5RjW5NGrrDM/106/gZRZ8R65s+ZJD1xSUOECBSJcAM3KqQ6dpHhDht7xPxM1/4vXGo2rmP8VnjlJNZ/8hvxjh8xVrAHLlnVGBpZeuJwyi1fGx1NJn76Msuvjh6lm1Wdy70icYeV8rLvBrBdN47PmU4aDM1lzDs6SJloRZ1nBnm1U8+lvKbpWJeOCjPa98fNtd+9JGcwgm4TWkOQNZ1XhAgUkXILY2rSS0fa4rEbEZPful6yNFcdVvOZSxXbyqPR/wYkePWHGQOTfroPcLboz55E7dSZZ3XomblAoqgUxqgduF8GxCgpv3RTrLpOglxGbaBpHgnCT4eBMTJsTRO7hfWkfqO1llJFIsGkytMWKmwz8GzkwcGfM4+e6F1mt2yYyIFPhAoUmXLXgQWzTluzBQ8kdPV6OEe0evcRgNjHw2sNhHEUbuG/x9+3kl/5svdjcvCwpNDD36C1jU9xxk/jXRLJw31Ls5CJZS2/PdjmelX6sB/eNbaQAVZyyphOnkTMibv8Q53b8HRJyPCsO+WdOSPNwcIzX+eqleHCmKTjQwpBbnM6gGlPub/n5TbJ/pwoXKFThqoVfcJszAbhfY6giNgAcBaAiKzHwdxD3f/EGcPiAZAgygdlk9SGODzEig9cYY97Rb5fCTKciQ1oRblbLsaCsJWcBjTJLbdhIskeVxT2LAzjLQnl7ksDRK1oIDu2Pn9fzHBhgnQ0ig22Hj+LnldcYgzP7DiBKmrPId6DCBQpduGrhCMruN5DcsRNlY5XBip27JuJoC48hGoRliu71axRw9Oof5Ai28kw8asakgEkT7GByp8+WIZZ2/0Fx+Xyhr7PvxQMdz56WI0G4l4Q3rpntx+K1w7E2ehNx9GqPGktWkoas8nOK47+o+hqFkmXtYeE6IFWyxuC1lGeU339nJAcGU2bEewHWuYmgwgWKRbjy4G5ABAxn2ZP4oe3eQx7kJF2+igMHC1Z24yrZgKPrVRQ9eWy0iAMz1ZDlonjDHjhUiglgK1VomzDEHvcrUdUV2Ui97ZvFessk8BS02neUY6r0TH4uJ0+Te9okIS0EmI915RL5u7eRv31jbIVlKqhCJlvC68zPISaDZ2rbZ5pgT6IKFygy4apF/Nz6D6bMe38SVx+2acebrcsfJEjAcpyBXbtCNZ/+o2RgOE7EUZjRDAxtCtPnkIsqz2GlZLVqzb9XAMe0iP55Mw3RjwVfwU1rpdkbxRjGQCERGul5A83w+qDJO3H+kLyeGJoaXr1I3tYN5K37Kr4rNAkateW+mwVr2TvxOie9CvYHUOECRSpcAqJ/3jzcoaVU8ie/FLucVKs2+Q8TAh5RFqqg8rQ0y3o7t5g9mgGIdnnjSE+cRmn0Ho0e1+hHtHC4QNRf84+/kuIWcbww/DrbPfvEI2VmzJVjaznGSlLmz4RVl8nbuCauFoTjRWQwMGAgUDLBGP1YKNDCkWDC1vhVUeEC9SRcONdHD0V0o7rBXJ6/DxxrYQIzGpczC5eRM3ZS4s68sTHnnjwWU1J/E28ku7bFAyxNAfHiNZWSY85wM2/9RO6/TB8dwqYJ06e9VZ9RcJEzrAcPYg9IU68yjqq7dpc+Q9lI0SeEI1Q7QRkAr2V07y6L1VryduDolQMDVAoankOGggtkss7YidJAXIhH1Y2BCheoJ+HKLFgm/UDokYEfmYy2N9mXxIgzerfu5IzgCG36HHLGsYAlrCwW1kQh+r8qz1CwdQOv834WMIP2UWhTaM3r3Kc/wSQ5jQnM3TFnrWGPD2XqNMZg7N4uTdsIkIzaZrFwox3Dgecjxsb07kepDh2lfygpSHHQowcUlO+Wvjfx1rxzO3Z4MQWvp9OrD6URgI4sIwvr3KZNotb5TVHhAvUlXCvfp5Kf/IKstu0ouHRBbHWCQwekt0OmmZpaao7I8HdAQQHc0dGXZA8eLuXeiYHXMmIBi86flSF8/t5dcpRotLGWAwIpR0YFHWe4OKa1ezRAmwLKrs+eksIL6ce6csl4Ro+fC5uoUzYxHscDQ+gk3bHgebp/l4KTx8irKKeI/xleqhSXF2PvLTLZzt3InTiVA05e52Hx4EzJZDXL+iNUuAAvQX0KFyJxeRHQWMubanBwH/n8z/ACvwiIkE2BjbVNO3JGj5XMwOV/ygBLeCAmCDk+PHKQfMyRQgMob+xGjxAZu/9AckeNkypEe2gpWd16vPFdDzbNCIM5pR+Lf7aTRyT6N4lUCg4exsIcj+Cx+/ZP3BE0Ci1Q1IJ1lllkcHAxaDgsDfBduvFzM4KDg3ygiT1Exep7UeECDSFctaBUmTdWv3w3eXu3U4i+JFTG4WjLIFaHTpSeOZcjuckySgWjJBLVwMxEd29TgPEc+3ZScJ7X+eaNONM1BCoNIWAORs2P5YiZ/x2Vnq+6AUkD8Z2bFHCgI0dW/PNIY6upakHc5TVvQXbvvizGvJHiHgsDHdFykRT4nYc4Sc/giSPkw12EsyxpuTCI1bEz7xf94oZ3fm6kHythR/sNgQoXaEjh+gYYI+Ft30iezD06J3cWchRhELtXX0rPmiebEWyOUCmXtCow+B96u7fxWm/i7/OS3FkYbcJNZyQzQfEGqg8RJEiW+2PrjAyLN87o6qX477/+67hPyNQrygIr/VjYTAcOpczyfPUk/zyJAWuJBmJ+F2HT5G1ax1nWgXidTYF15sDA6tBRZpCl5yyUZuKm4HhRX6hwAVPCxf87iL2RcaG01lvzhQzxM2nEKXBEJwK2cDm5S98mu3VrSjno/0rO0QTWGpsRRkp4qz+L538hSDDY/wVzU3fwMCr5+X9DNi7ZYXiKaPrb64zvHuPcq67IzCZv81oKr17Of2gIHCvDjaF0DKWXv0sOb6hW0vqEopCzrOcSGNR8/Rl5G1fFPYGmwPeOyQQtW1F6/CR+Lv4pWTh6TVJgYAgVLsBLYEK4fg+ODz2PRatKGkezqz6Pj4JMbqq8Ucm4dJQ18987PX8ZWa1aJUq88L1iY8rdu03Zrz6hLAcLyMaMYjtSFIN7i8yK9+NG8W/dEUV374hYiWBdOs/PBgTWbK8QjHAzS1bKUTLuRZM2YBNN2ZhA7G1YRT6eAw5qTAeMOGp1Ud7+9k+lyAVm2VLgkqR3zhAqXMC0cOWpnUvl36imEBkYLGTuGRQwfmHw4qTatSdn0DAp60b/l1QyJQnetFCFF166QP7OzeTt2RH7HxpEjoY6dpIqz/ScRWSXTaCo5jmFO7bEgoWCEmymBu/k8P2jcg0TodGXJs7tSbMOY8LzZyWTRVUm7rSix4+MBoniK8gZN+aQydExWgiaoE1TfaLCBRpJuAT+386FAUXVVVLZhIt4uE1Ht27m/4AZkAVgLpU9ZASlJ0/jF4wzg7YceScIVHRCsNALJSa+WGfD5qiw7bH6DiC7Vx+pfESGhWGDJtsl5A6uR09yZ8yVxlY8r2ifIBwXJwVYhd25RT4HBhiaKcU6d+GQb+5OWRwvOFCx0fNWOka+c8lmNcN6Y1S4QGMKVy34GnyPgouVFBw/QgHGUZw8StF9ww4crVrLuG8poeeswOVIEVNqkwR6vZDhoIrMr9hLIa+3TKk1FYXj+BAz1ThgEZsmQ0jZNWdV8r1yYOKUjiKrc7f43i0psDDh1AJtEf4R9FAejhu1Td5luS45/QfJsTCqBS3Mx2rfgVKWVgvWFypcoBCE6xvknvHGWnlGXNH944fk32HyaSoiB6g2dDHnh6NFG3OV+g2Ix38nJVrktYw4AwtZvAJkuZyFwVEdrQuJw7KkURol7dhI3QlTJOvDGJmkkEPhxf37ciwo0545IAnOnTFbTcrvB5zb4djuTpxC7tjJciyYxAnEjY0KFygw4apFGmuPVVB2Iy7tK6WwwKi1EW9s8EZzp8wid/YCcgYOllJpEbAEAVsuH03iu7bKIEscMZlsQG0w8P21biNHwNJXNmOuiJeVpCNBRiYQc1YlDcT4DuFUY3D8DYTJatdBfCtl2vP02VK1qzQcKlygQIVL4L9b5PsUoKhg3VcUYGwFv6gmj5gA7rsyC5ZSetYCmQUmZp9J2wAfPyK/fBcHCmtkSKDp+V/1BhqIObiAaEGwxAwYE4hLEhRw8HuBqkC8C7jD8jatoeDEUbPeoFhnFN106UbpqbMoPW+xrLPS8KhwgUIWrm+ADAxNtVm4gp86jt+Rv7tJYLKKqrj0ouXxz5m0i2YECmhOZQGr+c1/paDqstEKtDeGvw8LglXGgvXTX5AztDR5R1UQLbSTnDtFNX/7/5B/kgXLdIaMdW7ZmtJL3+Jfb8vI/KQ18hcyKlygSIQLGyhcqmU8+/49lF3LGRi/vEZBYQFH7nb3njLMLvPWB3J8mCgBq13nu7fJ37mFsmu+lEZxFM8UMoj+nbLxlFnylhRfpFq0iLPiBH03+F5QfZv97B+lKlTcZ3D6YHAbQ3k7gjf0vcmRIAaL6j2WUVS4QLEIVy0on3/0iMKrlyg8WkHZ1Z9TePum0YtoVE5Zbdvzz9pPbGucuYvIbt8xWVEn+r8ecvZVXUXB3h0sYltlqGChZWC1ZddyDzl6HNmdu4o7Q6JgwcIYGwwR9Q/slbYGKaQxuH2hMhDri6GZ4pCPgA3VoUk7dSgCVLhAsQlXHjnjR+nvmZMcfZaLwWyIxlqDmQHG2lvde4mztTt+MrljJpDVJZ6EmxSkz+56NYXnz1DAUT7uVGQSbmPDQQJG5qc5cLBHjpHiABQJJGvtw7hS8OBeCo5USLsILNNMYmHG3fCR8biR0jIxH05cYFBkqHCBIhWuWvAVRrCzOXZYMjDMpxJnCIOZAfqScDENKxu3bLyMwsBIjMTAayxjRqouxeNTsImeOBo3MBt+hWAhZXXryUHCOMkA0C8kgpWkfiwI1rWrMjAT5e0h1vrWdaPVgvJMDy0Vh3wZV4NnGuusNDoqXKDIhasWVB+i5yvYv5tf9oMUXrpo1hmCQSQqgxUnTpOx41KBCBuhYs8CvvGaiAMHPydybIXBjvAXxADLBg4URLBq+7FYsOB8IcdVSTqeRQMx5mOhj7FiH3m7tnGGdcuc4wU/pxAszFPD8NU0pojDpqld++J/hhOEChdIiHDVIhfYlafJ27yO/IPl+flfz/9o821oxJ9t+EjKLHubN1qOVHHvkqQGZuB75B8/LEUy4bnT8b0L1rm+BczCQNC2MirFnTSdBWsO2b375T9MCGggfvKEwuqrMszRW/c1BXgXTZ4acGAA304UXGDsjzN/KdkovNBqwYJDhQskTLjw88iXmhewmg9/lR+S9yjuSzL1lSN6LWlG7oTJVPLun5DdfzCl4ECfsP6viNcUWa639ktpgo0eP66fe0asH7Ksdh2k8AJjaKQfK0nij2eVn1MYDPu8htk1X8izahRMSuB1xukADIfTc5eIIbJSuKhwgaQJ1zfhiBX3Av6+HVTz8W8oxFjyGrPTl+MRKiWUnjmf0is/IGdYafKmvIacMTx9TH7Ffsqu/ow34T35D14TiFbz5ryJLib3vZ+T06M3WahgS1j0H/KzGOzYTB56E08fj0vbDWZZQGbTobl+zkKye/aJ7wqTFBwkEBUukGThyiMD9B7ck94Xf/M6Ck4c5kjX7AgN9BVZXbpLdVYGxzCDh+U/TAgIEnD/dfO6FBR4G1eTj+zhFTdiOLXLfKwV75PVu5+4lkifUII2U3hvSoa1/mupGkR1rEmHfKwl1jm9eKXcY+HoVe5iEzaHLKmocIEmIFwC/5wYoBdVXZYjLW/PdnHPNor4urWPfd1g+Ar/PES5iSowCCj35JGUzEugsG0jhdeu/GiggLJr6cdCn9DQUrJ69pIjLH5N4z+QAGDJhKw/u3mttHFgPlaD3At+HxAsOItMnkEO5mP1H0hWxy75dVaKBRUu0FSEqxbeWDFxOTh3mkIWML98tzQzy2h7Q2AmlNW5S+ykjQq5idOkgCNRES9vxuJywhs0Cg5QJRexmH27pFscL4aV5seNjBNRh89gkpDZY+fPyRrABBfiJV6QpuDACHeFzjD0G04he8So+L7QTef/gFJMqHCBpiZceXKBT7kH9+U+BkdbmAMW3b5h1sCXNxQM2JPyeQzdGzpCSr4TdQfGzxcCAx8z1o5USAVieL1KfkYUrNijyiT7hHhJ71uS7le87B9mnx3eT8EJPGO38h+aAUGAgx5DZLNl48kZMTp5M+Y4k0VwgONODIVNOipcoIkK1+/hnz/ijdTbtkk2F8yliu7dM9c7w8gmPngYOVNniaM5LsxlKm+CNnFUH+L5wvwvBAqUKSF3+hw5tsLxVaLusBAU3b4p91fevl0SHElTvCl4LVPNmpHVoxc5Q0opPW0WC1cZi1jb/B9IBvGd6g0xHEbbC5zq0X5id+uRaDsqFS7QxIUrF0XSq4JHQfq/trOAle+OJ8ca9oND8yf6v1D67YydJP5wKKlP1KaerSHCumL0CKyDkrS5QJxxj3X9mtzt+ZtWU3jvrjkfTQiW40pBizNoqLi3w4YMg1EThfhoPpA5ff7m9Rwc7BRTaPyc6ZnzpPjJ4uAv1bZtIo9DVbhAExeubyPzvy5WUrDmC/I2rKIIwytl4zEoYM2aiwMH1hN3P4ieWV2TtcknCWwj2Ew5q/J2b6Ps5x+JZZPJZwbHzmhyx+DMzNs/ofSiFfLfiYLXWTxK79+jmt/9mrytG1iwvuWOw++IBQf75e/KGuD0Ap6iSSqAUuECKlx1QAGBnJtfr6Kaj/9BKhBzzwzOPIJAYYRK8xaUHo/S8PfIHjYyLllWCo7o7i3OsDZRdiNnWJcvxlmlqSyLie8LB5G7cBm5cxeTzZkHCoCSFOjA7Dm4eYOC9V+Tx0FlhJEuqFT9ropMZJ7I6Dt2psycBZResEwarJOCChdQ4fpu8GhwdIcjCFQgehtWS0VY9Ohh/g8YAC8gi1XtSInM3EXklI5J3OV6sQKPRm/7Rhn5Epw/Q7kHD+J+LINgiGN69vy4MpWzrVSbdsmyaeL3UAyH927nbHY771GXpCfzpVoIOPiDXVjJB39GJX/2z/K/WfyocIF6Ei6XN9TMT/5MxnukWiWnnFkekefPKLyK/q9D/ALtFAd6NDWbRPq/eJNCdZgzYYoIWOIcOIoBfh4ifh6CA3v5WdhBwdlTFN24ZvZ5YGFCBSYEyxkzQe6zUI2atAZiFFygsAUzyDBWB4UYrxMYlPzsl9T8X/+b/H8VPypcoJ6ES+b2DCsld+wkmUQrzuhJKE3FI5I/cokw/4uzr7h8/nBsIWUwwk7h+LBjR6kUc8ZOiCsQe/eVyFJpYCBYnG2LczvGjRw+INVscMGQZ8QEaGDv0JHcMShrHyPvGUa8JKqBOBdxJvtU1tfHe3bkoASNb2LVpsKVROpJuGqxunYnd1SZzKZCXxKyhCSN9sYjIwMsj1VI9aFE3FX8Ypns/8IG1rEzuZOnkztuskTcqU6d43sNpd4Rx4urlyRYwSBNOK7IKBdTcOCEBmJ74BByRo+l9JQZZA8YkqiCg9gh/zGFly5QcPoE+btw/HqWM9k3v1tW4Uoi9SxcAo4ysLGisXbuInL79KMUSruT5Iwe8ov26AF5/IJhNpVcyt+/Z/aOgzc0ZFww8HXGTyK7zwA504ewKfUAByM4rgo4s/J3bCH/4D7Ouh7kPzRDCicZHAyiD8vF9zx6XLKOiBEIPntG0c1qESy8S0HFvtjJpp62ZxWuJNIQwlULBKx1GynPxUuHxkAp7U7Y0RYyMBimejs3s4BdotwLjhINVpUB2PlgJAVMfNGIiYrE2iNO5dXAyHzijAoei9mvPyUffULoxzIFinJcNx5MOnYiZZa8JZOIE+d4wUEe5pAFJ4+St3EN+eU7+d2p/+kNKlxJpCGF6xvYPXpJWXd6ziKyuvfM/25yQCMzTFO9DSxgq7+gkCN10+BIFmXR6aVvk7v0HbIRJCivBEQruHOLfPQJ8WYaPX70chVs9Ql/j+7QUir55V+QM7IssW0QuMeKx+DsjSsFGwgVriRiSLikL6lFC3IGDqH0rPnkTp9NVudu+Q8TApwTUIHI6+hv3xhvfA/uyxobgyN1KZTp058y7/xULJWagn/bm4LAA0UA/pZ1cWMri5dR53ZGDIcHD5MAzxkzXpwg4KYizedJgd8RTHrOfvwP4l8Z3bkd97014DqrcCURU8KVBxZGqIzCRTPsWdypM1nQkmX9g8ZI6f/i9QxwN7Jnm1jUGBMwHDXBgb5bD3KGDKf07AVx5I77L6UOUXUV+eW7xFcwvHCOont3zDYQszjhfcBIF3Fv795T7rYSddTr+yJYHgcG4t1YfS2eSm5gnVW4kohh4aoFE26RFcDaCFmBXTpGMoXEvKy8rhHsaeAOfuZE7EKP0fYm70oY3JOgNUHGp6CAgyP6JPXZvTb4fu7foaB8D/lHDlJwFvOxqt+o7PpVEccLOLdjpMuYcSxe/N107pKoBmI5Qq+6IgUXmM+GdhL4gJokacJl/yWT//emS14nIo6GcpwVSF+KieMRjsAQ2aL8FX5jcsbNm4nVvIWMui96kPWgc799B2kJsDGuBNN8UREGOykcj5ggXxkHB3xMJ849fhyX07fmIKEpVh/ys5179JCCQ/vIg0ErJmIfq5AjKxxjGQGCxVmVO202pecupszMeHhmqk0bfmySE7hhfA1mkOHo1du2UZxnxLjaMGjWR9FSUlDhErDB8ovUsRMLRnP+d472WFQk8uSHr8HBvdD1azKnKQfx4v/G3wfiJef7RQ5WEG0AqPTDXCSrS1cRNKlcYwFD/4oJ4OyAqcRStv/4Yfy/i8o1BAoQ06SDDAuTmdFAXL6TvFWfk7djk9xlGRMsBAztO5Izcozc85aseF+qBVPtOoiYJYLawODUMfK3byZv3VfiMoKjcyP7yXeQNOHSo8Jvgc0UbgA+RnvAZgUWK9jkDGJ16EQuXCEwWhwj3DljIfR/Jei8P/fwvjSyZvmlxqDB3P27cQOzqceRN0k0tKLC05kxh5yefchq25aFLJkTcVFkIa4nJ46St2WtbKTfnsTcoCAQa9GKs6we4nqBqk9k4Ym6w4JgYZ05q0d5e/aL38XPtmHvxu9C77iaCtka6VrPrv6C0/z18t/yohtcLghWesZcyqz8QAbiSf+XlazGy6imJq5iW/UpBXjJ4RJgsCgAYJ0zy9GmsJAsFjDJcpNyxxJyNv/iBYXYSNd+KU4nRh0vGKxnirMsRPwYsyFFMkkSLH6OZZrCowcyRTz76W/FqqmQUOFqSsCCBVY3505TzacfSoZQH/YrLw3uiDAUr0WLuDx4yVvkoNoqUc3L/PgFvM4P7lF22wbeXDkDqzyT/8wQ2ER5nZ0+/Sg9d1HcZ9ezd/7DIoYzAHl2f/tfeSM9JGMwJCgw+MqjididvUB66pxhpWSjgThhx7IRZ1RwFPFXfSbFF3LFYDj4+jFUuJoaiKaQbT3kaIqjKAxW9E8dN+7ThjJuu3NXOT7E3YDVu1+yolZ+0aMnj6XaKti/m7Jb1lN4sTL/oRkwKTbVqlXcwDxznthIpTp0zH9aRPBGin4scbzgjbRR+rEyGXLHTeJM9l2pGkTGJUMdE/TMYusM9u8hb/NaORpEgZWscwFuqSpcTRjcdYXVVWIw6u/ZLvcFRs+vcS/D4oUGZnGgnzyN7J598h8mBFRa3r/HonVOmjP9zesoxKW2yU0XfXZduv5ewOwJU6VNodBLtHFcFV6+QMGeHSxY5RReOh/3zplcuxYt4765OQtk8KdM362dXp0UPE8mhPvbNpDPe0F09ZIEXSbX+VVR4Wrq8HLJJXfladlYQ45oQzg4GzwaQLUhRjk4paNZwCaKw4AUcCTo/ksamG/f4Cz3EAVH4vEO0d27RIGf/xMNDLLcdIbsgYPJHlpKLuZ/DR9JVtv28llBwc8kKiX9Y/kRGGdOUnj9mmGxLyG73yDJsjBqBL2JqdbJavbGESCmIPgH9nHQeoSC08cpesCBQWiwyOU1UeFSBAgVjmACNBTWNm9euxpXxhkCNkZ2vwGxeJXxr0FD4s0iCXcIeCxZIKTKE0FCBa/zsUPy79LAbHJTZgGDM7nDmzKGhWLNMWW30UEQhWfw7CkKKsrlDlaeQVPizuAOy0IT/ZAR8Xy0UWNlrE+igOPF9SoKTh2Pgyh+FqNbN/IfFgcqXMofg6ot3kj9XVvI27tLjmdyD+4bLoFNcUYwmdLTZ3NWMCquQGyZLLuciAMCVMbJES0ErLpKemVMYnFQgP4jNM0i27W6duPgoUX+U4PwMydzmzCRmjNSjM6HN6Q0zpui9ti6b39yp/J6wJGfBStRjhe8NeZu34x9NzGFeN9OKW83ifQYptNyAiH3Z6+JCpfyvcgDvmU9eeUsYJhY+uwZ77gmjxCbyZGWO3dxvLHCpSJBYyDkUc3WUHjqmPR/SQXXw4dxkGDwMcaxLI7E0guWkT14uIytEQeOhg4UOMuU4yrMx2LxRp8Q7lqMVrDxz4nNFM3kmTmLeA2WkNWxS/zzJwWsM4tEiIAU7/PmNfI+G73DguNMGw6UYE/WvDkFly5IUPy6qHApPwpMStEzAysdsXEyubEwuCB3yybEzuhjJ8pLkKTsC6AtAQL24tf/hYIzx3lDh3iZvRxHUJBZvJIyb30g5fMNWjWHzfTpE/IP7BHBgregUfBzcTaFgY6oas2893PJuBIFtkKMzX/yhLw926jmN38rR4Q4KjQGr7PMIevUhZr9yT8hd+Y8GX1S88lvxefzdVHhUn6cAE2fHLGxgHlrviBv05p4mqkp5OFPSym3O2YClfzJn0t1l7hvJAF+ZPHYpnBk9vQpeft28mb+Ea93pTn/Q4B1ZrGC0z/6v9z5S8UNor6Py1AtiCNSj4MhKbtGK4bJ54mRnxG+gvgZOQsg/rkx+yxJoJcQ91d4Z/0zJ8QiLA46zWyRYovWsxdllrxNztzFZMO3kdfZ27ZBhetbqHA1ILhziO7eoojTfDnaQgMzvPlMITY7LSUyTk+ezpHyArKwsSbBwPcb5B4/ovDWDVlff8dmCs+eMt+m0LYdWT16x+4QKKHvNzD/4RvAmyY2q+yGVSxYxyi6dT3eTA2+sugfTE+dJfd69qChckyapONngPtC2Lt58uyclDvrN7lPeh0Q8KSnzyGX31OrF+zH2kuGCzAGRYXrj1HhamiQHeBe5uL52HRzzw4Kzpzkl+VR/g+YQfqS+OVwx08mB31JffqTlaCIGY9x7u5taVpGozg2IqyzUVBh16mL9DHhDszlDd/q2Fkys1dB7lc42EExAH6WAJnk08fmjpyRSbZowT/DZLInTSeXfx5M707aFGIU/GDUCHwbkcnCgNm0c7vdk4MdtFqgL3PgELk7xHP0TVS46qLCZRA0MAenT8rFuvxC/5dJBw7cUfTsQ3bpaOn9ckeMio8QX3FjLWgCPy5e4AxFZkwdPhj3NBnstZGeJt7oscbOaP6FQhm4n/9IoCAZ+tVL8d+bNynJsu7e4Q8Mlv63biMbqDN6rDS5W4OHkYXp0Ql6RlDgEp49Td6xCgrxfKDFAhWqprZCfg+l8ALBzahxstZSCYw70u9AhasuKlyNAGZwwXVDBivizoI3K5N3YLDjwXEEJs2ieMPmiNpCX1IS+r9qEQG7Rd7OLXGQgONDHAEZ7HGCUEn2NWkaOaPGSoOuzCP71h2Y9ARWV+X71copOLiPQsODBpFNYT6Ww8GMO5H/vqPHiYglCWSy4tzOmbi/d4escyRjdQwFBjhSbt1W+gCxzpjKbfXuL++j8D3BgQpXXVS4Ggtedun/2rudvG2bKIR4YbQHBMzQVyLj0jkDS8PAd8ToPxwHJUjA4umzl8lbv0oyGTToRo8xLt1gBgYBQ4M4hiWWjiGnS7d4LD3+bvydB7AR27VVCjDQn2a0CvUbx5u4y0IWgP9OErjvzMFG7MI58st3kcdrLUMzTYGj15atyOrWIxasWQtk4vPLFvGocNVFhauRyeUiCp89o+DrT/gBXR831jbCaA935BgZn4JjCzFETXMUmKTjIX7M0cDsbVpLHme6ORjPogLR4OOPoMAZM44yC5ZJRgOXFW/jaqliw/Gm8flY6MfizbRk+XvkTp+dOMGSFgK0TSBw4e8dM/ZQxGMSvEcQLRwbY6SLzYGBXZthvSQqXHVR4SoUEH1zFJhd9SlvZmtYwK7mPzAERIp/4UI+s+JdOS5K2mW8ZLkcfePYECMojLcpgHz0bXfuxt95SAEaWyVIMSignAFKA/E7PyOXN1MxEE7SMTHg7xrOKjUf/z1l+X0SiyZTR4LfAIUXmZXvk8sZtxy9vkYwqMJVFxWuQoI3MBRr4NgQZd1ZjhJl3LdBxMC3bXuxjnIXLidn0rREVR/KhuZ7MqYmunyBar74SCoQjdolWdbvhcK0cKIYR2aOzZpHVtcecXDykkdWxQC2M0wX8JHJbviawtucWT99avZo2E2TPWCQDCcVA+zOXeLCi9dcZxWuuqhwFSDiS3bvTnwmf3CvzKZCr5KxiBEbK29oFi7rBw+TplMIWWL6vyBeeOzRpoCiiLMnydu8ngI0nRouhzZFbdm1O2Fq3I/VsVNyGtLzwHAYxS0oyMHEhujWTbOClc6Q1ZsDgzkLpfDJ7s6BQSvOst4wm1XhqosKVwGDLABHhqiCCtDTg+ICw2W7ci8zZDg5o8ZResp06f+CK33RgzXEsQ1EDFlu5RkZnQJLpbDyrJRMFz3881nt2sejRvBr2Ei500rE9/cNUOQkBsyY1HDiiIx4MemgAosmGw75mNIwehy/L8PI6lJ/DvkqXHVR4Spw5OsJQwr5hcT8LzSkIhOLMCDQILi4d8fwS4neJIz26NWHyE3nP00G0v+FNoUjByg8dVyaxnGsWHRwwGHhHm34SHJGjmXhmihOHijGSAwIOFB4gRaCIxUyXkjeC5xMGMTmDMsZVhq/FxzciWdlPR+9qnDVRYWriEAfCrIucVTgDVYqEE1aSDFy5DRxqhw5Wf0HySV/ki72pXz+9i1xVECrQnjhPIU3q8V/suCpLfzo0UtEC31Czogx0vaQGHi7gg9oVHWFwnOnxInG5w3d6Igbft7RUG734ndh8gz5JZPIG2idVbjqosJVhOAl9Q/vlxJfaay9fy/ODEx9lRxR2vDlm8Mb44x55HTtRlY9nOUXFCHmrN3hTWMDeds2UnT9GkWwXTJdhfiS4PgPPoL20BHkzppPztTZr1x2Xejg+C96cF8cZ/z1X3MAt8tsSwM/37LO/LxL9e2i5WT17ve9jhf1hQpXXVS4ihgUbPicGWQ/+nsKMEgQBqwG53/hct/mlxhjPVwY+HboJOf9r1PyW6ggA0OhTPbLj8nbvokFjLNcn7MvwyNUvhdsphzp46gqs/gt8aJMmuOFVNuijSEvWNmNq+Nn3RR4ntFCwFmWjAvi590ZWZb/sOFR4aqLClcxw18dLIyiZ8/I37iGvFWfSrOl0RJrFHDAgaNXP8q8+zNyp87kyL9j/sNkAEsmGd9+4Sx5G1aLi7jpNoXvhNceVZ+Zt38iGQACB/FDTFDgAFA4g/l2OBaM7tyMn2+D25YMaJ08nTLL3iVnVFmcYRk8XVDhqosKVxKAgHH2Fdy+KbZBwfaNFFw8L5GqKWT+V7v25AwdIZY2eNET53WHNoVHDylAm8KuLSJg6AczDvqEevamzFLOsCZOk8IZKbxI0lFtFMrxrDidlO8W2y7xFTR41yhWXWMnkbtgqRgl2zhRaISKTBWuuqhwJYgcXvbbtyi6WCmlwTASlZHjBkH5vJi1Dh9FDoo4xk2KN9UkHR9i7MiNajm6CjhQgFmyuPw39KuEu8WefaQYwJk8jZy+A2XAI34/MWAIK/qxWKw8Dg7w/OKoFvZYpkC/ojTgT5vNgVgpWX36ibdkfVcLviwqXHVR4Uoi/JLLxnriSDybChErMgNT91+obuMX3RkwSKranPGTpWjASpKA8WsTYQwJZ1/BkQPkYzzGuVMN06bAmZQNg9aRvJZjJsimikbXxtpIGwKp5mTBQtsHStv9U8ekHcGkTRMCLJtFCga4mJrgDBkRmyE3ciarwlUXFa4Eg6MtcUbftS1uzISbADZWU24CKYs3g+Zyoe1gVEbpKKlGTFQ/EQO3DayvNMAe53VGoUx9zFljkUcDsfQJjRonhRcYBtpQZdeNhYz5Oc8BAMbPHN4vs7JMTrAWx4se8SkBPAVhhCwDHQsEFa662H/J5P9dSRhiptq+o3Tz2126Ug4VaKiSw6ZgZGPgmMjn7O/qZc5GeDPCHQX/llQeZjLy90sCmKeEhmxn8NC4shIVh55PuZrnr3fPyN+T1boN2f0HyR1WXPQyK95Mk3KPxfEynofoyiXy9+6k7NefiD9nVI2hn2ZOBlI2vx+dOktgkJ63hDJL3+FMa4L0whUS4SVMTz8uDfKvC0wD0H+ZFDTjakKELFYhGpg3rontozj7Mm1tZHXuSulps2SjsPv2j49irGRsxniVcBCKGVu4X8yu/kIGREbwP0SW+2OvGo5YMyXxZjqyjDLL35UsIFFFFxAsfg5R1IIm+uzqz2RTNtpIb+EkoAUHc93InTGX3PlLJfAo1KNXzbjqosLVFGGx8o8douwnv5GKLdlQDT8GcMzOzF9CJT/5c0q1bZ+szRnweoa8GfsbVpH32YcUXq+Opy9/3zpDtJo1I3f0eEqjL27KzETdYQn8s4tN09lTVPP5h+Tt2GL0DkvA8XXr1pSZPZ9K/vSfSSBFnHkVMipcdVHhaopgA8Fojwf3JNrNfvRrCmAsa/BeAUKF/hhUxUnj7OKV4lieSkrxBsA6c5CQu32Tsts2yvwvGMB+m7jseiK5S3gdRo+T8e6/H+eeECJ+3oLTJ0TI0bKRe/zYqBEukGx/ygxKL+AMq/8gzrqKY9q3ClddVLh+BKl24g099ewZWW3axg2eSQH3XRwBRzevy0wqb/Na3lgvSFGHMXjjwL0QTGDdabPkTgfl9ImpPgQo8X54P77P2Y8y761xmwJH+nDezyxeIUeCKf65Uy1b8o+eoGpB3l7C08fJ27qBgiMV/KxVm51wwIhD/vjJ5E6fI+XtKQ6WGtqmqT5R4aqLCtf3gGXJwRft5BHy9u4kevJYepLEoaBrdyIUGCQIlCKjsRabS3BwH4UXK2P/Q0Mgw4jnfw2XuVEYw2F17Jz/NBkgo8Uk3pAzj6DyjDSz4tLcGTQ0btZO0nEpi3V49SL5u3eQf+KwuF9gwKO5pvgUZ/QZaR9AM7w0EKOitcAKL14GFa66qHB9B3JxfP4MBUcPUXCMN/ITx2TTsQcMJndkmfjCwX1bnNGT1ktz/Vo82+jIQRbtoxReupD/1AzYzO1+A+IS+lFj5ZdM6U1CBpZ/1eT48P5dDn5YrDuxOCcou6wVZxReBBXl0keIcndjNmRyV8jPEL+r0o/Fz4/0EOK0pEhR4aqLCtc3QGUTenBw7xMc2Cu9Od+e7yO+fBwhO+M5K8DQuH4D42mySQIl7NXX5PjQP7iHwguVFN29E1fGGaJ2gGV65jyyh/DGw2KWqAbmpIHjUBYoGch5+IA8Ozh2NnkkKILFWbs9rFSydnvSdLIT8MyocNVFhSsPsg1/91by1n4ljZByDv8D4IzcHjiY0vOXxMeHtX5xScnA+LFAlCyFBWu+kOba6NrVeLSHqeMeRM8cKGD2lzN/KTmDhpDdsbNsUCpgBQKeEw7uUPaPZ8TbuVkCP5PgXRSfTJyITJ0pwY5UqiYEFa66qHABXoLgxXN6+hc/p4gzrldBfM04I8i881PpvbHwwiRstAfAdNns5x9xBraPI+vblMti/pdBOx4Wq/S02eQuXE4OjmlxfJikQpliA4LledKj5u/eRv46DvjOnZLfMwb6sfi5gGBJAFnbpJ0kOKCG0XDNZyxcJ4/lf/PVUeFKIm8gXAKyLMum9NQZlFn5gVy4y71MQkA2ChnOhQFHfUc4K/2SPClpNjsmHWuMY9k0R9WZ5e+RPWR4/gPFNLinwyDHmt/+Vynxl9J2fk6MkbKklaLkJ7+QSc/Sj4X3MGEBI+5Cazhg9NZ/Lf6jr4sKVxJ5U+HKg+jPateOnLGTyeUIUDKwhPnKyRRaFK+cPUX+5rXk79xi7uIdoP8L69y1uxRwlLzzE7K6905WRV4BI2Ndjh+mLG+kKN7Bfxudj8XiBBuz9LzF0vtnd+4SZ98F3kT8SvBahvyeIYv1t20Us+HoCQeJbzDSRYUridSTcAkc8Vlt2ol7N4QL9kY2MrAERYJ4ZFDIkrt+Te4z5F6DN7PcC4P2UfBhbNOW7F59xYNNou5uPfj3k9WmUCjANDg4fVyah33px7peP0bCrwCOAd0Jk/mdmiN9fykOXlJJClj4vcLdOgrD8E5JUdTtm3E2+4bbtApXEqlP4aoFGysMblGByAKGzdXq3S9ZjghRxJvX43gu1aED5FeUiyGoUd85DgjsHr1kgCXcJ1ACbXXvlTy7pEYCjhcRsuuD+6RoCf190b27+U/NgCNBeYfG8fc7fHQiHfKlBeccr/MBrHMFhefPxX2U9bQ9q3AlkYYQrlrgDMECFjcvT5L7L6tLV5limySkgRmzlFAKffyIjFMx7cCBKFysk9ADNmS4VHoqrwc2TRmJc/I4hRjXwpuptESYusfCyUWr1tKD5YwYTe74SWQPGJKou2OArBWFT7g79o8epPDU8TotOPWBClcSaUjh+gaIFHF06JRNlCZbCFrSKuNk3PqBPeSX76HoEkfnOFJ6g7P5VwX+h/bAIZSeMUdcEzDiXtwSNAN7KRBs5O7epoAzZ9hT+Xt2SH/Wm9yvvBIsWLjDxPcm87FmL5BsOlGChS038CmsukLB2ZPkY17escNiC9ZQqHAlEUPCVQuOD9NzFpI7aRpZXXvEoz2SdAfGUXl08wb5OzeTv3kdhSxe0eOHBu1+eDmbt5A2hfSSlRyxjyKrYxdpXVAB+x74u5Ho//IFESvxrbx1I/+hASBYmNHWriM56I9csJScqbPj4qYkvRvojXxwjwO8Ksp+/alMZ0CBS0OjwpVEDAsXSLlpybrSK94nd95ispo1k8F2SXpJ4bSB+xC8oNl1X8Z3I4jcTT5yvJ5SffiTX8iRUyGMYi8o8F3ge7p7h7xtGyi79iu5xzIKBxPSDzm0NHbI56DOLiIT3JcC98FwpKm6St7XH1N21WdGqzFVuJJIIwiXwBsoMgOrW09q9tNfkDtlBm+sbfIfJgS8sF5Wija89avI271Njg+NgkKZFi3JGTeZ0kvfjgs4Ena5/7rkOBP2Nq2j7HoWrEsX5LsymRkDcchf9q6Y4aYwQTqJDfxXL0kjcXbjGsrduRk3ahvcelW4EkrEmUD2V39N3oZVcrRl8hIaJdxorHWHjaT0wqWxsWzCBAwbIiqnMETQ27mF/PLdMinYGLzOuCdBo6ozcgylZy8UB/pEzf96WfiVh+NFsG8neRtXU3DlEuU4GxbRMgWKaTp3o8zK98kZO+EPzu0Jy4ajas6wdm2TZu0Qd74PcWRu8M4X6zxiNJW8/3NKz1mU/93iR4WrFl6GsLqKN9aTYhCK6rjw+rX8h2bAi4sR4thY3ckzxImeSprlP00GKJVHxhWc4XXOX/7XR5/KS4MGVvR/oQJx1DhKz5wbl1cnbEzN94HRIihrh/OJjBq5diWu/jS1/jgi79qN3EnTycH4moFDyGrfQYK3xIBTBg7SvPKdsWBhne/colyN2cGZyGRlxh0HwhbMwFEMlhBUuL4FmmgjTusx2h7ihQZbqaoyCF5kONC7Y8aLA72FsQx4sROUHUghwMVK8g4fpLBiHwXnTstQS2MbaG2fXelocjETC/O/evQSw9Ykgn678OxpMcL1j1ZQiPV+8Tz/qQE4YLC7diebgzGnbDy5w0eT1adf8sYCPbhPIUYh8RrDW1DssGrMNebjmBUFX2gfkOkVaL/B9IokOYswKlzfQ+4Jv+gXzpF/cC+/6IckapIX3eARIgRMSrrhDIG+JBynoDIuKfCjF/JLHSLDxewmzsJC9H/x2psEG6oMG0SggHXGoNCkZABelgIOENAf5B/YI5spNleTYOaYM2AIry9vpAgQ+N+tJGW4/BzD8QL3uBLwlu+Wqc9G20DS8Ww3e/AwckeOJXf6LP7vrhKgJREVrh8BWQAaa7MbVrOQnaXoxnX+PRYwU87oMJZt25bcmfPk+BBO2CnOFDDuI0mgJFiChN3bKDh9QrJckxZSuAuw+van9NRZ5E6cRlbP3mR14Ei1GLNcfqVRwZa7c0vK270t62NXf0wgNkXKolSLFjIfC3dYcqc4cChRkpxjGDn6xuBMDgjg24mMVo6+TSH7Qzuy+dnFeCV3RmyHlXRUuF4SFG8EvKnCpRlNg7mHD81eZjN2566UXrQifjh79ZVGzcRdZt++KfcC3tb1Mt5e/PBM9n9xQIA7L3fuYv61iGzeFNDUXDQCFvgU8ZoFVVcp2LiasvxLLLhMvea8Tmj1SLVrJ8eBmQ/+VI69ZQ2TAtaS1zn39Cn5Jw6Tt473hCMHG8Tx4nvBOjdrJsGV3IfPWxI3aidsP/g+VLheEWyk/t4dlP3qEzEb5d+JPzCI3bsfZVjAUNqduOnLeZBxeVs3UM2Hf0fR3dvmjmhrQRFBrz7U7Bf/nNypsynVnIOEAgd3LJjgjeAKA1GNVm3mEecS3kCb/ckvyZ0yq3gE/1XwPKkQrPno78kr32V+vI8EBy6lWazc939OTv9B8R14E0KF61VBxRBGe6AyrqJc+jKCU68/4O21yPcl2X36kTtnEbnL3iG7mLKClyEK5Ug2vH+PN+EvyGcRw5GMsXsDrKXN69yylThvpBevlGKZFGdghQgmEHub1pC3Y7NUw8pxNq+hKVDUIm0GC5aRM34yWa3bJus+FnhZDgwuUXbDKunJkgkJOBY0GFShpcMtm0glnMlKcQvWGfdYSQwQfgAVrtcFRzJPHss4e79iH3ksYNGN6rgb3gSIutJpSnXszALWX8Z6OLibad+BP0rOQ4wsAnc1YvjKm7K3b5ess0mkSbxTF3KGlVJ6xlwx8pWeo8aGX93cg/sy2t3bv1vGYMBOyOh8NAbVa/CGRNl1qnsvFq02idpIJZO9WEkBRrqg8KL6auwCYxA8by68G+ctjieAwyoO94VNTLBqUeF6UzgDiO7eouDcGQoO748bayFgBjODlOOKfZS4aE+aRjYe7HYd8n8gIYhdzhUp3MB9gozYMN1nxxuyw0ECRmwgq7DHjCOrMVz+YdHEghWgtH3/HrlzFTNjk31C/Mw5KAiYOoucUWVk9x/MQVN7yVKTBI5epa8TLQSVZznrN2waLZ6bw6UaU8rb+w+S57Cpo8JVX/AyykNeu6nyBisbq8FjBBkDgYecI18Xm8ng4bE3X4JAlWd09bL0Ikmf3Ymj8XRYU+vMgYLVrn08bmPsJPFBREUXypEbGryqGOUO9xGIt6zB2dNmnRhQdt21m7Rp4BnDpIO4gThBgiXB6O24UhDP2BGYEXCWj/lYprBtcgYNI5vX2EUbwdBSsjp2ludPUeGqdyIcIV48T0H5rniw4tVLFN25nf/UDHCGwL2MRMPDSvPOEAlz2WYBCytPk7dzG4vXYbl7kAZmUwIGBw6OfN3pc8gdP4XsQUPETqqhqufELqv6KgXHj3JWv1PmNxktu0ZjK2+ciPjh9YijQQzsxPaRmKNpCFa+H0sCg93b4r5Cg3PlcPyPSc8YzeNOmUk2Z1o2/BubSLXgy6LC1UCgBym8eE4ct1HeDfdtoxsrgyMFd/xkyix9Oy6f78gvgIHMwCQ5zjZkDMeWdeIGgUhZ+r8MPtZoU3Bnzyd3Mm80sNZp0yYOFN4YzrAwH4sDH2RX6BNCTyE2V2Mgw2zTTvra3AlT4laMgUOTI1ZMDj2ZT5/KEb/YYW3bKOttElQJ4n3FfbU7dSZlFq+M/UoT5CxSn6hwNTCIinG0k/3sQ/Jrh8XhjNzUsvMGg6qj9JK3KL3sXalEtJAVJCyCC3mdA97Y0VMD14IIQYLBuwggg0LnLKD0zPm80fd5g8tzfjYwHwtVlRz81PzuH+TIyqijCJ4b9GO1bBmXXS9aQTbKrpPkeAF8jwIYDuO+cO1X/M9yo3dYMtKFg0k0asNkILP0LZkWofwwKlwm4CwrF/gUHNxHNZ/9IwXHD8fZl0lQQt+hE2UWLJUmZjk+TBq82UvRQvkuqvnyYwpYwIyC6JgDAumz4yw3s2i5lCu/snihEOXKJRasX5O3Y0vsdYdM3eCriuZ2HAdm3vmZZJHS7J6w6B/Vgv6+nTIvDpmsBAaGR7rYXbrFQ2XRQDxgcHxXmKBstqFQ4TIIvA5hu4O7L3/LOgpOHjVbCcabaqpla7J7cHQ3cRqlFy6TI8REke//wrEPjnu8NV/KGHq0LxiDMxXYdNmcdYnTyfQ5L1UiLmXX58/K9GF/z/b4eNmk6wUj96Mjx8bjdUrHiPCKvViCNlMEAuGpYyxYn1Fw9hRF927H76GpY3xeS6t5c3LnLyUXVlgcROKYMGk2bg2JCpdpeLmjhw+kLwlRnrd9kzjQm0TO0+GMPnCI9CSlMYG5LUqZE3R8WHvRjnVGn932zVLcANcDI/DmJBft3XqSzZE0sheY+Ir/4bfAKwjBQiuFjNNhoRW3EIOvppRdjxhN6emzY0fx7j0Lo1etHoE4RRhoyu8cPAVDjHRBYGBKsBgEArgrTE+fJXeFMHSWiQSaZb0SKlyNBY617t+V4ywcHQaHDko5vclKMSlt7tYjnv+Fsm5MBkYFU5KOhBAoIPtC/xcc6FHaXF1ldrOCDdKAQZLJuBiaiDE16LPjvwPcQHxUoHJ2GMId/9ZNo2XXuIdzho2U7x7z3yCyUt6eJLJwvLhA/uGDcQsFinju3Mp/aAZpoRgyQoqlMEpHjgVVsF4bFa7GBs2k9+6wcB2QI0TYR4m1kckSXNzLoP9r/BQRMRnuh8wgScdDOIa7cC7euNBrh82L19kkqM6zBw8lFyXOg4bKkRXK2lEVGd2sjse5GwLZIO450S5R+73L1IGEfedR1RUp1pH+SgQH1zjrNggsmlDUIj1vYydJmwp+T3kzVLgKCFzIw8BXjjEuVsbHRSad0RF9w1Zm2mw51kKlU9IamMVvDgMsd8QjKKRPBw70BjMwib779JcCneD8WbPZH0f5VoeOZPUbIPZV6SkzKcWCmrhjYpxm8PsU5KdsR9erzLrZ5I+JHczHwkii0eMK1ueyGFHhKjDwdchAuq3rZXPFmA/jF/QsVrA1QvGGXNC3bR9fHCcpGq+pkVLzLKo881Ouf1+9l0QcRyJ9FAKgTwiVbIkru0YLAQqgblSTh2rBrz6Jgz+D5e1yf8wCZfXqS5nFK6S3D/Oy9EiwflHhKjDwdeARj/gllCGAn38kFYgRmmrh9m3w68KFPcbal/yTvxAvuiSWRAMcIWU//a2MqZHmXoOu6kZg0bK7dKf03EVxJWniWiH4nQgjybJwX5j99MM4kzUJBmem3biSdMV75Cx5m5xmCZvYUECocBUwcrTB2Raqn2r+8VdyB2a+CTXu6HcnTKWStz6QuxlKmPsG+T5FvM6YEuyt+0ruwIzaKTUgGH+TXv6uVI6iv0wsqZJ0LMjgRAL2TNn1/N1x9iyl7QazLIBetwwHBu6s+VLwpJWCDYsKV6GDr8f3KLp9i4IzJ8nbsYk3Vs4MHpgcw84CBgNfdPfDWHbmPKmMS5R/Gq8zNsAQE5hPHKUAfXaciRl1Uagv+PtC3xjG3LgLl4uLu4y7SVLAwd9XiPvKvTvJ37Yh3491V44KTWL36C1uKeiLtHr3lT44OOcrDYsKVxGBbAtVUWhclp6fY4eMOnCkbIdSHTpKlZQYrU6eLv+eJFCJlnv0UPp94A7ubd9I4cXzlDPpDP4GoBoUY0aQIWMcRqoPi1bS7ic5wJDvZu/2eAoDDJb594wdo8OmiQODdK3B8pBhMq9NsizFCCpcxQZ/XfA7DCrPxmXdh/fLy5szaVXjumJVI+NTWMDwTzijJ2q0BfrsHj7g4KCCfx2WY1qpTDPYpvAqoAAAx7ioBsWkZnvAEEq1aJH/NBlIRnz5ghzpImjDbDYRLFMFNbYt/Xdo1LZH87M/epx4f0omq8eCRlHhKkb4K8PXhlEXcIWQ7OvcKd5Yr5nt/0IvUM/e5EyaHjcwo/+rXfvEHZVIAzOOpNC8XHnGeJPwD4Hx+LhfQfUnHBkwtymF7yBB4L4xqq6Kh4jieT+wLzarNggES4a1Yp0xrJXFS0eNNB4qXMUOjraePSFvw2ry9u6g8NIFFrT7RptZARpYZaz9yDIZgSEedwmqQMRrEmFMzZ4dMhEXwyxRxWbseOqb4M6Rg4ZUh07idJGZv4TcsROlbSFJ5OA7eed2nGXt2koexgPdvJ7/1Axwx5fjV86u4PqPY1iprlUaFRWuBAH3BRGwnVtjHzZcVJtsYEbZ9bCRcf/X5Blkc+SftHN/DAoNL18kf+Nq8rdukONE6f8y9RrxGlstW0mFoDtvMaUXrRTD1kQdVeX7sQKUt6/+nPxtGymEYJk6EkRgYDtELFo4DszgeUYDMRq1lYJAhStp8NcZVl0hf/Nayq79ksIb1fkPDCHZABw4SinzwS/EhSNR3ocCvzIooee1ffGbvxEDX7lrMQDuVDBkMLP83XgjTdjditg03b0tbQloDkdgAFs0k2AOGda55M/+mRS5iHtMwta52FHhSiJBIH1JYiG1ZR1567/m/36GXSH/BxoYEa80pXCRPXgYZd7+SezAkaQjFrw2KOBApeeFs+R9/Rn5h8rjjbYBgCmrTFmeNF2aXMXvLmEBAVxiYHnmbVwjo2hyT1F4YfDEAEVHfQdI35s7dZaUtsuJQQKb7osdFa6kwl8r7rnggh1UXWYBW08B7mbQ/2XqyAVlwyxWaMhE8QbuwGAym2qRtHEZL+TuBYa5Hsbro/+rPtoUUhbZnbrEgjVxqhRhyPgZlLcnCDGZ3rdLbJow3iW6c9tsA7htk4OKTBYrjPlxevWNi4w0yypYVLgST46igDODC+coPHOC/P17KDhxNC4sMAguuO2+/WVjQO+LM2BQPNYhQUiV5+ULMmctqNgfT7p+nQ3YQtl1u3itJs+Qfqzfz21KCgisXjyPn8eKfdKXhXEzpieD2/0HclDFYlU2noMqXufOXbVasAhQ4WpCYFPAzCcfoz3QB3PudOyMbhAMKHQxj2jMeHJGjCGLxSxp1Ye5B/fjURoYU8NBAsap5LyXaFPgdRDn+EHDeH3GkTuaN1M4lCSpP47XR46xz56ikIXdh2hVnjV2RyigiKhjZykkcsdPksILu1uP5FmZJRgVriYInCHEfWPnVvLPnqCo6mqcGRh6FLARI4OQ/i/0HvUfRFanzsnq/0IpN6+zv39v3KZw/gxFt27GFYjfAZwY7F59pa1A7rFGjyXLTdaRoDQQ36iWfix/91Y5us75vrHnThqIMRMN87FYrNzps8WmKVFWWE0EFa4mTO4xb6zluym7cbWUeOfg9fYymUF9gY2kQyfKLHubN+sZZPfoJX0ziWtgvn8vHlOzZztnX5Wy7rJho4ilpJn4CGIOWnr+EnJGjYvXIEGgKR5rEFaejvuxdm/jNXiU/9QAuGtt0ZKsLhwsjSqjzIKlUiykFC8qXE0d/voDTOJF/9eazym8wgIGd22TFlIMsq70krfInTIjdtdGtpGQy3GUeGOyMAo4vM3ryNuwKu5L4szTHT6SMu/8TGyzEje0E83xnMnjqBSzsVAx2FBVl98LB0FWmzYSGKWXrJQGeb3DKn5UuJT4qAYl9A/vk7dlHWXXfUXh+XP5Dw2BqNh1xbIovWi5GJiinD4pyGuGX5xpoTk8PHaIhaqVDBr8/aiRJFWxoVXgzi2q+fBvxW0ElYMyasTgdiPP07iJVPI2BwZox2jZKl5npehR4VL+AO5l0JeEBub9u8nbtE5G25sE3nuYIOsMHEoujs6mzSYb1XQJ2tTlmBCuJvkjrET9bCxY4c1q8jmDx7FgdOsGRSgAMpjBp5o1E6HKLFpBNioyUSkoQx21HyspqHApdcH8r3t3xVDWP7iX/D07Kbx7y9xwPt7Ipf+rZ2/eeEZQZjqLFxzoETErhQlvI7UBD7wcw4uV0lBsrGeQwcRuadTm58UZM0EMoOW+0NIsK2mocCnfi1yqV1+l4PRJ8iv2UnD0UHzkYyp6RkaCzWjwsLjabsJUMZWVIx+lYEBWhbJ/OIegCTtiAcsFnFUaQhwv+LlwyiaSO3os2fy8YD6WklxUuJQfRY5/zpykANnX8cNy/yUCZhCUMaNJFBOYnRGjyJIx9MlqYC4qUHjx5FE8aoTFCv1YMpnAZAMxBzbIqtDrJk3tY8aR3bWHZOxKslHhUl4aOB2Ep45LOTNsjdCTgzsxk1hdupI7brKY9+JYSAZYumjQ1c3KCBCs50/lWBBOLOIryIGM0ZH5thMPzuzbT0bmO7AS695LqwWbECpcyiuDqFpGp6/5gvxjh8TqSEbbG3yUrI6dKT17gfTkwI2DWrZOlsNEAYLm6dz9uxSwYGVXfS53WVhzmb5t4rtnwUKRhQQvnGGVvPMz/vdu0lagNC1UuJTXgx+bCBZSJ49Szd/8ZwouVcb9XyYfJ8siq1Vr6YNyF68kmzcxibr1qKh+wXft+xQcPkDel7+TfqycqUKdWnAsyNk1XNszK96TadtK00WFS3l9+NFBpgW/Q3/3dsqu+5LCc2e+19aoQUABB9wnWLTSnH2l5yyUsR9K/QGz4CwGOh7aLxkXinZMAjssTBZIL1gmhsPS96ZZVpNGhUupF8T/ED50h8rJ37FZijnkCMkUvJGJddKAIRKViw9dx875D5VXBo3SVy6St2kN+UcOUnjtamzIbLIfi79T+S7nLCJn6AixB5N+LKXJo8Kl1BsQKlQbRhcrxX3e37dTnL9NIv1fMPAdVkruhMnkTpklJfV6fPiSeFkZL+If2EN++R4KL52PZ7gZPBpMNW9OzvCR4p5iDy0lq09/shLWqK28GSpcSv0TcLR++6b0fQXHKjgL44gdzagme3t48xMX8LIJMrbCQsTeqk2iRqjUJ7kw4KyqSkaN4GgQ0wMwQdskcBGxWaTcsvHynYl/I3+P6nihfBsVLqX+wd0X/slClbt1k7wdm+Pjpsoz4odo1IHDceKptpOmSxSP6ba4M1Hy8HclU7IvnCOZHwbXiysXjVs0Wd17yf2VO24SOeMnk9W+Y/5TRamLCpdihOD0cfK2rJcjxOj6NYow1sKkHVCr1rIpSv/XiNEy/0su+Zsq6Md6+oRCuF6wWMFcGTZN4qNoCjsea+MMHELujLkym03K2xXlR1DhUoyBOzD0f/kbV5G/bxdFD+7HAywNYrVpK02rmeXvkj1oaHz/1ZQaVyFYLE45znxRJZj99EMKL583WynI6y2VoB07UQajbOYvlVJ3vcNSXhYVLsUsOEaEA8fZU1Tz1SdStWYc9H+1bU/pqTOp5M//InbfaCLihSGWwZGDVPPFx+ItKFmvyS0A/VidupC7cBmlP/gF2ZwJa++d8qqocCnmgXh5Wcrdv0fBmePkrfmS/GOHDfvccdTfvLlE/ekZ88hZvJKcHj15E01mf1DuxTMplvE2rRXBglWXNIwbBNWe6WmzKY0Mq2dvotZaLKO8HipcSuMhvnfPKLpRTf7RCvK3b6Kg8gzlnj3N/wEDIPvq0Insvv3Ffd6ZPF0q25KyocrxLNZ211YKThyhsPqaZF0msdp1kMnW7uQZ5AwaGme46XT+U0V5dVS4lIJA5n9dOBf3fx3cR+G507H/oSFQfSiVbag8HDuR3DHjyerWI/9p8YGMNrxQSd6+nRSePEbh+bNxRaepasGUJbOwsI5S1TmyjOxefeI7RUV5Q1S4lMKBH0UMH8ToFBQOwH0DlW5mS7Obk927HzllE8gdOUbmgKXatJPMrBjIvXjBGey1uAiG1zCoKKcIGZYxwUqJYDmDhpE9ejy5ZePk33WGmlKfqHApBQeOt8I7tyjENN1dW6URFv8NGyJTYNaX3Xcgpect4ixslBwlplq2LlwB8zC1+o4ctQacsfrluyi8fi3/oRmkgbh7z3g+1rTZ5E6aro79SoOgwqUULkFA0d3b5G1cLTPAouoqiuCXZ9iZ3B07kTKLV5DNAobJusjKCqUKLod7wiePKLp6hcVqJ3k7t3CWej7/qRlSmYxkpfATTM9ZIP6CqeYt858qSv2jwqUUBTgy9NZ+yQK2ncKb1bF4GXx0xfB14lRKL39P7mwsNC83Zgk9/+wYjx8+eUz+xjXkrfk8tmgyeKwqx4LpjIwYKVnxHgvWTEq165D/UFEaDhUupTjgDRnFGijayG5YRd62jeJIbxTXJQuZxdgJVLLyA/HTaxT4lY0gWDs3U/bLTyi8diVuJTApWizaqBZs9su/iI8E4dyOSdTqK6gYQIVLKSrgtAHHDVTM+Ts2kc8CFmFsvKnH2LKkMg53ORCuzKIVZPcbaKy8G9OmfQx0XPeV+Avm4D5icPq0VF9260npuYvikfldu5OFwosm0sCtFAYqXErxwY8squfC6qsUVXIGBg/EE0fN9n9hA+fsy+7dVwQMgw4xfgP3PQ0BfAXjUTG7Yuf2Ks6yINgGwYBO+Am64yfL8WCKRUsbiJXGQIVLKV5QmMAZGDZybOpwhkAvWGT4CBHGsG7paBaw8WSPHivl9PVSTQeBrmGBPnNSsiw0EuOuL+KsyyRwvHBHlpGDnqwRo6Qfi9INI9CK8jKocCmJAEdmEDA0L4tDBDISkxZSti0bulM2MW645YzE7tGL37DXqD6EYOFI9OplCk4dI/8A/0zHKswKFmdSOALEIEeXxRjGxFbfAdImoCiNjQqXkihkttSh/VI+H1aeFTspDEk0RcpxyWIBS8+YQ+7U2XIXJvO/XvIOCBkWWgCCC5UU7NkufWzSAgAzXBPAw7FF/g5vyHBKL32b7AGDm/YIGKXgUOFSkgc/0tH9u+SzeGW/+J1MX849fUpkUsBQJt6nH2Xe+oCccZPEDzGV4Wzl++6EgkAyRBx1ets2UHbzeso9Mphh5UvbUx06kjNsJGUWLZfhm3qHpRQiKlxK8sBRW/wvFLIY+B/9PXkbvqbw5g2zJeN53LIJlHn7A/7nJEq1bSci8UdAaK9XUXb1F+LeHt4w63ghosWZImyu0ivfj42GIbKKUqCocCnJJhdR7tkzmbrsbVhN3s7N5q2QUCrfvAW5I0ZReuFycUkXs1kI7JNHlMVcsu2b4nu5mhfGxdUtG0+ZZe9IdWSqbYe4MvJ17uYUxRAqXErTwPfFyw9Hcf7+PeTDNd20gKH/q1t3OYqzR5bx38mLBevqZZlNZtQN303L+Jb0srfIGTFanPG1H0spFlS4lCYFep+imzcoPHtSKhC9vTukR8pc8YNFFgYoduoimVV09RLlTHovQrB69IznY42dRDbmY+H4MqEDNJVkosKlNEkgYOGl8+QfOkABeqTOnJCpwDi+SyLieNGjlxgFO6PGkjt6XNyPhZ9XjwWVIkOFS2mywFkdG3dwYK8cHaJnKrx2NRawBIEGYqffwLi/bMIUsajSakGlmFHhUhQGpej+/t3xndOp41JOn6upyX9ahLAwYXgjyvDRU5aetUBmiqnjhZIEVLgU5RvkHt4XAcuu+lyGMoofYCOU0L82KG13XRkvAk/Bkrc+IKv/oLiHTFESggqXonwTvA5RRFGtgH34q7hMPTA3fflNsFq1Fk/BzLs/k3ssKbrQY0ElYahwKcp3gYq/589kjIi3ZT15m1ZTdK2qYAUMGZU7fhKl5y+VUnurTVu1aVISiwqXonwf+Vcjun2LgqpL5JfvpqB8l/RdFcrxIaoFYSnlTJlJDioGe/SKvREVJcGocCnKS5BDBlZ9lcLTJ8g/clCMfE03MH8TZFj2oCHSi4WjQZmPhSxLjwWVJoAKl6K8ArXjRmR8CmaAnThC0eNHxhqYU82ayQRiZ/hIGeqIGWBxA7E6XihNBxUuRXkNRMAuXaDshlUUnD4eF3DAgaOhjhBdl6yOnckZNFSqBd1J08nq3jP/oaI0LVS4FOUN8Q/sEVf34OQxiu7cpNyLF7+/H3tj0I/Vug3ZnGW502dTetZ88RhUlKaMCpei1AO4A/PLd5H39afkHyqnXE2WKHqD7As2TLBpat1WnNvdRSvI7tlb77AUhVHhUpR6Au7uuceP5O4r+9XH5B8sz3/y6qDQIjN/qYiW1a0HpZo113ssRcmjwqUo9UkUiX1UdLNajg6zX39G4aVKynkvN7IE91juuInkzpxHzpARZLXvwJmXG2dgiqIIKlyK0hCEoQyJDC+eJ79in8wAC69cii2kvgM0DItr+6Rp+flYPeNhk4qi1EGFS1EamKi6igLM/0L/19EKilCB6PuSRWGgozOqTHqxXBYuG76CLGKKonw/KlyKYgCMUMHQyKBiP/mH98fuG3C9GFZK7rRZnGWNkQGTeiSoKD+OCpeimMTzKKy6zJnXIaI0Z1tzFpLVvAXrlQqWorwsKlyKoihKUaFNIYqiKEpRocKlKIqiFBUqXIqiKEpRocKlKIqiFBUqXIqiKEpRocKlKIqiFBUqXIqiKEpRocKlKIqiFBUqXIqiKEpRocKlKIqiFBUqXIqiKEpRocKlKIqiFBUqXIqiKEpRocKlKIqiFBUqXIqiKEpRocKlKIqiFBUqXIqiKEpRocKlKIqiFBUqXIqiKEpRocKlKIqiFBUqXIqiKEpRocKlKIqiFBUqXIqiKEpRocKlKIqiFBUqXIqiKEpRocKlKIqiFBUqXIqiKEpRocKlKIqiFBUqXIqiKEoRQfT/A/jvGRijljlqAAAAAElFTkSuQmCC;" vertex="1" parent="1">
          <mxGeometry x="1200" y="609.53" width="65" height="60.47" as="geometry" />
        </mxCell>
        <mxCell id="VnHRzEKTD8y2LnNAsG4Z-80" value="&lt;font style=&quot;font-size: 12px;&quot;&gt;Raw Data&lt;br&gt;(&lt;font style=&quot;font-size: 12px;&quot; color=&quot;#ff8000&quot;&gt;Brozone Table&lt;/font&gt;)&lt;/font&gt;" style="text;html=1;align=center;verticalAlign=middle;resizable=0;points=[];autosize=1;strokeColor=none;fillColor=none;fontSize=17;fontColor=#000000;" vertex="1" parent="1">
          <mxGeometry x="984.5" y="787" width="110" height="50" as="geometry" />
        </mxCell>
        <mxCell id="VnHRzEKTD8y2LnNAsG4Z-81" value="&lt;font style=&quot;font-size: 12px;&quot;&gt;Clean Data&lt;br&gt;(&lt;font style=&quot;font-size: 12px;&quot; color=&quot;#ff8000&quot;&gt;Silver Table&lt;/font&gt;)&lt;/font&gt;" style="text;html=1;align=center;verticalAlign=middle;resizable=0;points=[];autosize=1;strokeColor=none;fillColor=none;fontSize=17;fontColor=#000000;" vertex="1" parent="1">
          <mxGeometry x="1187.5" y="790" width="90" height="50" as="geometry" />
        </mxCell>
        <mxCell id="VnHRzEKTD8y2LnNAsG4Z-83" value="" style="endArrow=classic;startArrow=classic;html=1;rounded=0;fontSize=12;fontColor=#FF8000;entryX=0.5;entryY=1;entryDx=0;entryDy=0;exitX=0.5;exitY=0;exitDx=0;exitDy=0;" edge="1" parent="1" source="VnHRzEKTD8y2LnNAsG4Z-74" target="VnHRzEKTD8y2LnNAsG4Z-77">
          <mxGeometry width="50" height="50" relative="1" as="geometry">
            <mxPoint x="1100" y="760" as="sourcePoint" />
            <mxPoint x="1150" y="710" as="targetPoint" />
          </mxGeometry>
        </mxCell>
        <mxCell id="VnHRzEKTD8y2LnNAsG4Z-85" value="" style="edgeStyle=elbowEdgeStyle;elbow=horizontal;endArrow=classic;html=1;rounded=0;fontSize=15;fontColor=#FF8000;exitX=1;exitY=0.5;exitDx=0;exitDy=0;entryX=0;entryY=0.5;entryDx=0;entryDy=0;" edge="1" parent="1" source="VnHRzEKTD8y2LnNAsG4Z-74" target="VnHRzEKTD8y2LnNAsG4Z-78">
          <mxGeometry width="50" height="50" relative="1" as="geometry">
            <mxPoint x="1100" y="760" as="sourcePoint" />
            <mxPoint x="1150" y="710" as="targetPoint" />
          </mxGeometry>
        </mxCell>
        <mxCell id="VnHRzEKTD8y2LnNAsG4Z-87" value="" style="endArrow=classic;startArrow=classic;html=1;rounded=0;fontSize=12;fontColor=#FF8000;entryX=0.5;entryY=1;entryDx=0;entryDy=0;exitX=0.5;exitY=0;exitDx=0;exitDy=0;" edge="1" parent="1">
          <mxGeometry width="50" height="50" relative="1" as="geometry">
            <mxPoint x="1235" y="722.75" as="sourcePoint" />
            <mxPoint x="1235" y="667.25" as="targetPoint" />
          </mxGeometry>
        </mxCell>
        <mxCell id="VnHRzEKTD8y2LnNAsG4Z-88" value="" style="shape=partialRectangle;whiteSpace=wrap;html=1;bottom=1;right=1;left=1;top=0;fillColor=none;routingCenterX=-0.5;fontSize=15;fontColor=#FF8000;" vertex="1" parent="1">
          <mxGeometry x="920" y="840" width="370" height="20" as="geometry" />
        </mxCell>
        <mxCell id="VnHRzEKTD8y2LnNAsG4Z-89" value="" style="outlineConnect=0;dashed=0;verticalLabelPosition=bottom;verticalAlign=top;align=center;html=1;shape=mxgraph.aws3.s3;fillColor=#E05243;gradientColor=none;fontSize=15;fontColor=#FF8000;" vertex="1" parent="1">
          <mxGeometry x="1041" y="871.5" width="46.5" height="33" as="geometry" />
        </mxCell>
        <mxCell id="VnHRzEKTD8y2LnNAsG4Z-90" value="&lt;font color=&quot;#000000&quot;&gt;Amazon S3&lt;/font&gt;" style="text;html=1;align=center;verticalAlign=middle;resizable=0;points=[];autosize=1;strokeColor=none;fillColor=none;fontSize=15;fontColor=#FF8000;" vertex="1" parent="1">
          <mxGeometry x="1087.5" y="873" width="100" height="30" as="geometry" />
        </mxCell>
        <mxCell id="VnHRzEKTD8y2LnNAsG4Z-91" value="" style="shape=image;verticalLabelPosition=bottom;labelBackgroundColor=default;verticalAlign=top;aspect=fixed;imageAspect=0;image=https://cdn.windowsreport.com/wp-content/uploads/2019/07/Fix-power-bi-cant-find-app.jpg;" vertex="1" parent="1">
          <mxGeometry x="1380" y="578.51" width="122.5" height="122.5" as="geometry" />
        </mxCell>
      </root>
    </mxGraphModel>
  </diagram>
</mxfile>
